SplineFontDB: 3.2
FontName: Samaano-Wide-Thin-Slanted
FullName: Samaano Wide Thin Slanted
FamilyName: Samaano
Weight: Thin
Copyright: Copyright 2024 The Samaano Project Authors (https://github.com/mitradranirban/samaano-fonts)
UComments: "2024-8-27: Created with FontForge (http://fontforge.org)"
Version: 1.101
ItalicAngle: 0
UnderlinePosition: 0
UnderlineWidth: 102
Ascent: 1638
Descent: 410
InvalidEm: 0
UFOAscent: 1638
UFODescent: -410
LayerCount: 2
Layer: 0 0 "Back" 1
Layer: 1 0 "public.default" 0 "glyphs"
StyleMap: 0x0000
FSType: 256
OS2Version: 0
OS2_WeightWidthSlopeOnly: 0
OS2_UseTypoMetrics: 0
CreationTime: 1729163604
ModificationTime: 1729262138
PfmFamily: 16
TTFWeight: 100
TTFWidth: 9
LineGap: 0
VLineGap: 0
Panose: 2 0 2 9 0 2 1 0 0 4
OS2TypoAscent: 2457
OS2TypoAOffset: 0
OS2TypoDescent: -615
OS2TypoDOffset: 0
OS2TypoLinegap: 0
OS2WinAscent: 2476
OS2WinAOffset: 0
OS2WinDescent: 958
OS2WinDOffset: 0
HheadAscent: 2457
HheadAOffset: 0
HheadDescent: -615
HheadDOffset: 0
OS2CapHeight: 1548
OS2XHeight: 1023
OS2FamilyClass: 1031
OS2Vendor: 'anir'
Lookup: 4 0 0 "nuktNuktaFormsinDevanagarilookup0" { "nuktNuktaFormsinDevanagarilookup0 subtable"  } ['nukt' ('DFLT' <'dflt' > 'dev2' <'dflt' > ) ]
Lookup: 4 0 0 "akhnAkhandinDevanagarilookup0" { "akhnAkhandinDevanagarilookup0 subtable"  } ['akhn' ('DFLT' <'dflt' > 'dev2' <'dflt' > ) ]
Lookup: 4 0 0 "rphfRephForminDevanagarilookup0" { "rphfRephForminDevanagarilookup0 subtable"  } ['rphf' ('DFLT' <'dflt' > 'dev2' <'dflt' > ) ]
Lookup: 4 0 0 "blwfBelowBaseFormsinDevanagarilookup0" { "blwfBelowBaseFormsinDevanagarilookup0 subtable"  } ['blwf' ('deva' <'dflt' > 'DFLT' <'dflt' > ) ]
Lookup: 4 0 0 "halfHalfFormsinDevanagarilookup0" { "halfHalfFormsinDevanagarilookup0 subtable"  } ['half' ('deva' <'dflt' > 'DFLT' <'dflt' > ) ]
Lookup: 4 0 0 "halnHalantFormsinDevanagarilookup0" { "halnHalantFormsinDevanagarilookup0 subtable"  } ['haln' ('deva' <'dflt' > 'DFLT' <'dflt' > ) ]

StartChar: .notdef
Encoding: 0 0 0
GlifName: _notdef
Width: 2048
VWidth: 0
Flags: W
LayerCount: 2
Fore
SplineSet
457.176757812 -16 m 257
 1455.17675781 -16 l 257
 2052.08789062 1624 l 257
 1054.08789062 1624 l 257
 457.176757812 -16 l 257
560.293945312 64 m 257
 1099.69824219 1546 l 257
 1231.00292969 827 l 257
 560.293945312 64 l 257
652.293945312 64 m 257
 1240.97753906 750 l 257
 1332.29394531 64 l 257
 652.293945312 64 l 257
1224.06542969 1558 m 257
 1855.06542969 1558 l 257
 1300.84863281 909 l 257
 1224.06542969 1558 l 257
1310.82324219 832 m 257
 1951.4296875 1559 l 257
 1407.29394531 64 l 257
 1310.82324219 832 l 257
EndSplineSet
EndChar

StartChar: A
Encoding: 65 65 1
GlifName: A_
Width: 2048
VWidth: 0
GlyphClass: 2
Flags: W
AnchorPoint: "base" 857 -59 basechar 0
AnchorPoint: "top" 533 1641 basechar 0
AnchorPoint: "base" 1829 -7 basechar 0
AnchorPoint: "top" 533 1641 basechar 0
LayerCount: 2
Fore
SplineSet
128 0 m 257
 187 0 l 257
 752.24609375 1553 l 257
 693.24609375 1553 l 257
 128 0 l 257
730.043945312 1492 m 257
 2418.04394531 1492 l 257
 2440.24609375 1553 l 257
 752.24609375 1553 l 257
 730.043945312 1492 l 257
534.05078125 970 m 257
 512.577148438 911 l 257
 2206.57714844 911 l 257
 2228.05078125 970 l 257
 534.05078125 970 l 257
1859 0 m 257
 1919 0 l 257
 2484.24609375 1553 l 257
 2424.24609375 1553 l 257
 1859 0 l 257
EndSplineSet
EndChar

StartChar: AE
Encoding: 198 198 2
GlifName: A_E_
Width: 2048
VWidth: 0
GlyphClass: 2
Flags: W
LayerCount: 2
Fore
SplineSet
1062.56640625 62 m 257
 1040 0 l 257
 1972 0 l 257
 1994.56640625 62 l 257
 1062.56640625 62 l 257
76 0 m 257
 138 0 l 257
 702.154296875 1550 l 257
 640.154296875 1550 l 257
 76 0 l 257
661.952148438 1489 m 257
 2491.95214844 1489 l 257
 2514.15429688 1550 l 257
 684.154296875 1550 l 257
 661.952148438 1489 l 257
496.341796875 1023 m 257
 474.8671875 964 l 257
 2248.8671875 964 l 257
 2270.34179688 1023 l 257
 496.341796875 1023 l 257
1014 0 m 257
 1074 0 l 257
 1638.15429688 1550 l 257
 1578.15429688 1550 l 257
 1014 0 l 257
EndSplineSet
EndChar

StartChar: B
Encoding: 66 66 12
GlifName: B_
Width: 2048
VWidth: 0
GlyphClass: 2
Flags: W
LayerCount: 2
Fore
SplineSet
114 0 m 257
 171 0 l 257
 736.24609375 1553 l 257
 679.24609375 1553 l 257
 114 0 l 257
1603.77148438 1494 m 257
 2347.41113281 1232 l 257
 2367.79394531 1288 l 257
 1624.15429688 1550 l 257
 1603.77148438 1494 l 257
1391.64648438 848 m 257
 2347.41113281 1232 l 257
 2367.06542969 1286 l 257
 1413.48535156 908 l 257
 1391.64648438 848 l 257
1087.56640625 62 m 257
 1065 0 l 257
 2090.96289062 434 l 257
 2114.98535156 500 l 257
 1087.56640625 62 l 257
1330.69433594 719 m 257
 2090.50683594 430 l 257
 2116.34863281 501 l 257
 1353.26074219 781 l 257
 1330.69433594 719 l 257
498.12109375 907 m 257
 476.283203125 847 l 257
 1391.28320312 847 l 257
 1413.12109375 907 l 257
 498.12109375 907 l 257
443.260742188 781 m 257
 421.422851562 721 l 257
 1331.42285156 721 l 257
 1353.26074219 781 l 257
 443.260742188 781 l 257
177.56640625 62 m 257
 155 0 l 257
 1065 0 l 257
 1087.56640625 62 l 257
 177.56640625 62 l 257
715.24609375 1553 m 257
 693.771484375 1494 l 257
 1603.77148438 1494 l 257
 1625.24609375 1553 l 257
 715.24609375 1553 l 257
EndSplineSet
EndChar

StartChar: C
Encoding: 67 67 13
GlifName: C_
Width: 2048
VWidth: 0
GlyphClass: 2
Flags: W
AnchorPoint: "top" 470 1637 basechar 0
AnchorPoint: "top" 470 1637 basechar 0
LayerCount: 2
Fore
SplineSet
636.24609375 1553 m 257
 71 0 l 257
 131 0 l 257
 696.24609375 1553 l 257
 636.24609375 1553 l 257
665.24609375 1553 m 257
 644.135742188 1495 l 257
 2521.13574219 1495 l 257
 2542.24609375 1553 l 257
 665.24609375 1553 l 257
126.110351562 58 m 257
 105 0 l 257
 1975 0 l 257
 1996.11035156 58 l 257
 126.110351562 58 l 257
EndSplineSet
EndChar

StartChar: D
Encoding: 68 68 19
GlifName: D_
Width: 2048
VWidth: 0
GlyphClass: 2
Flags: W
AnchorPoint: "top" 294 1641 basechar 0
AnchorPoint: "top" 294 1641 basechar 0
LayerCount: 2
Fore
SplineSet
673.24609375 1553 m 257
 108 0 l 257
 168 0 l 257
 733.24609375 1553 l 257
 673.24609375 1553 l 257
1812.15429688 1550 m 257
 1791.40722656 1493 l 257
 2287.77539062 961 l 257
 2310.34179688 1023 l 257
 1812.15429688 1550 l 257
1269.11035156 58 m 257
 1248 0 l 257
 2289.41113281 960 l 257
 2312.34179688 1023 l 257
 1269.11035156 58 l 257
733.24609375 1553 m 257
 711.407226562 1493 l 257
 1791.40722656 1493 l 257
 1813.24609375 1553 l 257
 733.24609375 1553 l 257
191.110351562 58 m 257
 170 0 l 257
 1248 0 l 257
 1269.11035156 58 l 257
 191.110351562 58 l 257
EndSplineSet
EndChar

StartChar: Dcroat
Encoding: 272 272 21
GlifName: D_croat
Width: 2048
VWidth: 0
GlyphClass: 2
Flags: W
LayerCount: 2
Fore
SplineSet
396.3125 935 m 257
 374.837890625 876 l 257
 786.837890625 876 l 257
 808.3125 935 l 257
 396.3125 935 l 257
726.154296875 1550 m 257
 162 0 l 257
 224 0 l 257
 788.154296875 1550 l 257
 726.154296875 1550 l 257
2076.15429688 1550 m 257
 2053.58789062 1488 l 257
 2321.75683594 906 l 257
 2362.88574219 1019 l 257
 2076.15429688 1550 l 257
1542.20214844 61 m 257
 1520 0 l 257
 2325.03320312 915 l 257
 2364.34179688 1023 l 257
 1542.20214844 61 l 257
772.154296875 1550 m 257
 749.587890625 1488 l 257
 2053.58789062 1488 l 257
 2076.15429688 1550 l 257
 772.154296875 1550 l 257
226.202148438 61 m 257
 204 0 l 257
 1520 0 l 257
 1542.20214844 61 l 257
 226.202148438 61 l 257
EndSplineSet
EndChar

StartChar: E
Encoding: 69 69 22
GlifName: E_
Width: 2048
VWidth: 0
GlyphClass: 2
Flags: W
AnchorPoint: "base" 784 -54 basechar 0
AnchorPoint: "top" 470 1641 basechar 0
AnchorPoint: "top" 470 1641 basechar 0
LayerCount: 2
Fore
SplineSet
680.154296875 1550 m 257
 116 0 l 257
 174 0 l 257
 738.154296875 1550 l 257
 680.154296875 1550 l 257
717.24609375 1553 m 257
 694.315429688 1490 l 257
 2454.31542969 1490 l 257
 2477.24609375 1553 l 257
 717.24609375 1553 l 257
179.837890625 60 m 257
 158 0 l 257
 1928 0 l 257
 1949.83789062 60 l 257
 179.837890625 60 l 257
470.650390625 859 m 257
 448.448242188 798 l 257
 1972.44824219 798 l 257
 1994.65039062 859 l 257
 470.650390625 859 l 257
EndSplineSet
EndChar

StartChar: Eng
Encoding: 330 330 31
GlifName: E_ng
Width: 1024
VWidth: 0
GlyphClass: 2
Flags: W
LayerCount: 2
Fore
SplineSet
395 -348 m 257
 375.5 -408 l 257
 762.5 -408 l 257
 782 -348 l 257
 395 -348 l 257
654.315429688 1490 m 257
 112 0 l 257
 177 0 l 257
 719 1490 l 257
 654.315429688 1490 l 257
1412 1550 m 257
 700 -408 l 257
 763.5 -408 l 257
 1476 1550 l 257
 1412 1550 l 257
676.154296875 1550 m 257
 604 1490 l 257
 1403 1490 l 257
 1475.15429688 1550 l 257
 676.154296875 1550 l 257
EndSplineSet
EndChar

StartChar: Eth
Encoding: 208 208 33
AltUni2: 000189.ffffffff.0
GlifName: E_th
Width: 2048
VWidth: 0
GlyphClass: 2
Flags: W
LayerCount: 2
Fore
SplineSet
735.625 935 m 257
 690.4921875 873 l 257
 997.4921875 873 l 257
 1042.625 935 l 257
 735.625 935 l 257
1292.4921875 1553 m 257
 162 0 l 257
 223 0 l 257
 1353.4921875 1553 l 257
 1292.4921875 1553 l 257
2642.4921875 1553 m 257
 2592.26367188 1484 l 257
 2694.734375 964 l 257
 2737.68359375 1023 l 257
 2642.4921875 1553 l 257
1563.67578125 60 m 257
 1520 0 l 257
 2694.734375 964 l 257
 2737.68359375 1023 l 257
 1563.67578125 60 l 257
1332.4921875 1553 m 257
 1282.26367188 1484 l 257
 2592.26367188 1484 l 257
 2642.4921875 1553 l 257
 1332.4921875 1553 l 257
253.67578125 60 m 257
 210 0 l 257
 1520 0 l 257
 1563.67578125 60 l 257
 253.67578125 60 l 257
EndSplineSet
EndChar

StartChar: Euro
Encoding: 8364 8364 34
GlifName: E_uro
Width: 2048
VWidth: 0
GlyphClass: 2
Flags: W
LayerCount: 2
Fore
SplineSet
877.264648438 520 m 257
 852.150390625 451 l 257
 1489.15039062 451 l 257
 1514.26464844 520 l 257
 877.264648438 520 l 257
1011.55859375 856 m 257
 986.80859375 788 l 257
 1595.80859375 788 l 257
 1620.55859375 856 l 257
 1011.55859375 856 l 257
1329.43359375 1026 m 257
 1021.15039062 179 l 257
 1101.15039062 179 l 257
 1409.43359375 1026 l 257
 1329.43359375 1026 l 257
1868.36328125 1633 m 257
 1329.43359375 1026 l 257
 1409.43359375 1026 l 257
 1883.90039062 1607 l 257
 1868.36328125 1633 l 257
1021.15039062 179 m 257
 1152.22851562 -406 l 257
 1212.22851562 -406 l 257
 1101.15039062 179 l 257
 1021.15039062 179 l 257
EndSplineSet
EndChar

StartChar: F
Encoding: 70 70 35
GlifName: F_
Width: 2048
VWidth: 0
GlyphClass: 2
Flags: W
LayerCount: 2
Fore
SplineSet
682.24609375 1553 m 257
 118.091796875 3 l 257
 177.091796875 3 l 257
 741.24609375 1553 l 257
 682.24609375 1553 l 257
741.24609375 1553 m 257
 720.86328125 1497 l 257
 2474.86328125 1497 l 257
 2495.24609375 1553 l 257
 741.24609375 1553 l 257
481.470703125 864 m 257
 460.360351562 806 l 257
 2050.36035156 806 l 257
 2071.47070312 864 l 257
 481.470703125 864 l 257
EndSplineSet
EndChar

StartChar: G
Encoding: 71 71 36
GlifName: G_
Width: 2048
VWidth: 0
GlyphClass: 2
Flags: W
AnchorPoint: "base" 540 -42 basechar 0
AnchorPoint: "top" 502 1649 basechar 0
AnchorPoint: "top" 502 1649 basechar 0
LayerCount: 2
Fore
SplineSet
683.510742188 1529 m 257
 125.543945312 -4 l 257
 184.543945312 -4 l 257
 742.510742188 1529 l 257
 683.510742188 1529 l 257
736.510742188 1529 m 257
 714.671875 1469 l 257
 2419.671875 1469 l 257
 2441.51074219 1529 l 257
 736.510742188 1529 l 257
179.837890625 60 m 257
 158 0 l 257
 1921 0 l 257
 1942.83789062 60 l 257
 179.837890625 60 l 257
2064.1875 561 m 257
 1866.55175781 18 l 257
 1927.55175781 18 l 257
 2125.1875 561 l 257
 2064.1875 561 l 257
EndSplineSet
EndChar

StartChar: H
Encoding: 72 72 40
GlifName: H_
Width: 2048
VWidth: 0
GlyphClass: 2
Flags: W
AnchorPoint: "base" 744 -30 basechar 0
AnchorPoint: "top" 496 1638 basechar 0
LayerCount: 2
Fore
SplineSet
679.24609375 1553 m 257
 114 0 l 257
 173 0 l 257
 738.24609375 1553 l 257
 679.24609375 1553 l 257
2438.24609375 1553 m 257
 1873 0 l 257
 1934 0 l 257
 2499.24609375 1553 l 257
 2438.24609375 1553 l 257
491.944335938 923 m 257
 470.470703125 864 l 257
 2211.47070312 864 l 257
 2232.94433594 923 l 257
 491.944335938 923 l 257
EndSplineSet
EndChar

StartChar: Hbar
Encoding: 294 294 41
GlifName: H_bar
Width: 2048
VWidth: 0
GlyphClass: 2
Flags: W
LayerCount: 2
Fore
SplineSet
670.514648438 1540 m 257
 110 0 l 257
 170 0 l 257
 730.514648438 1540 l 257
 670.514648438 1540 l 257
2430.51464844 1540 m 257
 1870 0 l 257
 1930 0 l 257
 2490.51464844 1540 l 257
 2430.51464844 1540 l 257
521.25 1020 m 257
 499.047851562 959 l 257
 2235.04785156 959 l 257
 2257.25 1020 l 257
 521.25 1020 l 257
571.93359375 1434 m 257
 550.094726562 1374 l 257
 2498.09472656 1374 l 257
 2519.93359375 1434 l 257
 571.93359375 1434 l 257
EndSplineSet
EndChar

StartChar: I
Encoding: 73 73 43
GlifName: I_
Width: 2048
VWidth: 0
GlyphClass: 2
Flags: W
AnchorPoint: "base" 736 -26 basechar 0
AnchorPoint: "top" 470 1641 basechar 0
AnchorPoint: "top" 470 1641 basechar 0
LayerCount: 2
Fore
SplineSet
718.154296875 1550 m 257
 695.952148438 1489 l 257
 2420.95214844 1489 l 257
 2443.15429688 1550 l 257
 718.154296875 1550 l 257
1609.41503906 1515 m 257
 1070.375 34 l 257
 1129.375 34 l 257
 1668.41503906 1515 l 257
 1609.41503906 1515 l 257
158.022460938 66 m 257
 136.18359375 6 l 257
 1916.18359375 6 l 257
 1938.02246094 66 l 257
 158.022460938 66 l 257
EndSplineSet
EndChar

StartChar: J
Encoding: 74 74 54
GlifName: J_
Width: 2048
VWidth: 0
GlyphClass: 2
Flags: W
AnchorPoint: "top" 798 1649 basechar 0
AnchorPoint: "top" 798 1649 basechar 0
LayerCount: 2
Fore
SplineSet
2419.78222656 1527 m 257
 1864 0 l 257
 1924 0 l 257
 2479.78222656 1527 l 257
 2419.78222656 1527 l 257
145.837890625 60 m 257
 124 0 l 257
 1890 0 l 257
 1911.83789062 60 l 257
 145.837890625 60 l 257
307.077148438 503 m 257
 133.827148438 27 l 257
 193.827148438 27 l 257
 367.077148438 503 l 257
 307.077148438 503 l 257
EndSplineSet
EndChar

StartChar: K
Encoding: 75 75 56
GlifName: K_
Width: 2048
VWidth: 0
GlyphClass: 2
Flags: W
AnchorPoint: "top" 524 1642 basechar 0
LayerCount: 2
Fore
SplineSet
737.24609375 1553 m 257
 173.8203125 5 l 257
 233.8203125 5 l 257
 797.24609375 1553 l 257
 737.24609375 1553 l 257
599.4296875 1015 m 257
 573.587890625 944 l 257
 2406.15429688 1550 l 257
 2336.15429688 1550 l 257
 599.4296875 1015 l 257
569.948242188 934 m 257
 517.190429688 844 l 257
 1826 0 l 257
 1876 0 l 257
 569.948242188 934 l 257
EndSplineSet
EndChar

StartChar: L
Encoding: 76 76 57
GlifName: L_
Width: 2048
VWidth: 0
GlyphClass: 2
Flags: W
AnchorPoint: "top" 140 1650 basechar 0
LayerCount: 2
Fore
SplineSet
695.24609375 1553 m 257
 130 0 l 257
 190 0 l 257
 755.24609375 1553 l 257
 695.24609375 1553 l 257
166.202148438 61 m 257
 144 0 l 257
 1914 0 l 257
 1936.20214844 61 l 257
 166.202148438 61 l 257
EndSplineSet
EndChar

StartChar: Lcaron
Encoding: 317 317 59
GlifName: L_caron
Width: 2048
VWidth: 0
GlyphClass: 2
Flags: W
LayerCount: 2
Fore
SplineSet
655.2421875 1542 m 257
 95.091796875 3 l 257
 157.091796875 3 l 257
 717.2421875 1542 l 257
 655.2421875 1542 l 257
144.56640625 62 m 257
 123.091796875 3 l 257
 1955.09179688 3 l 257
 1976.56640625 62 l 257
 144.56640625 62 l 257
1032.49902344 1496 m 257
 948.05859375 1264 l 257
 988.05859375 1264 l 257
 1072.49902344 1496 l 257
 1032.49902344 1496 l 257
EndSplineSet
EndChar

StartChar: Lslash
Encoding: 321 321 61
GlifName: L_slash
Width: 2048
VWidth: 0
GlyphClass: 2
Flags: W
LayerCount: 2
Fore
SplineSet
733.2421875 1542 m 257
 173.091796875 3 l 257
 233.091796875 3 l 257
 793.2421875 1542 l 257
 733.2421875 1542 l 257
219.293945312 64 m 257
 197.091796875 3 l 257
 2032.09179688 3 l 257
 2054.29394531 64 l 257
 219.293945312 64 l 257
345.30078125 902 m 257
 412.198242188 866 l 257
 919.719726562 1068 l 257
 852.823242188 1104 l 257
 345.30078125 902 l 257
EndSplineSet
EndChar

StartChar: M
Encoding: 77 77 62
GlifName: M_
Width: 2048
VWidth: 0
GlyphClass: 2
Flags: W
AnchorPoint: "top" 532 1642 basechar 0
LayerCount: 2
Fore
SplineSet
665.24609375 1553 m 257
 100 0 l 257
 160 0 l 257
 725.24609375 1553 l 257
 665.24609375 1553 l 257
2451.24609375 1553 m 257
 1884.90820312 -3 l 257
 1946.90820312 -3 l 257
 2513.24609375 1553 l 257
 2451.24609375 1553 l 257
665.24609375 1553 m 257
 1421.98144531 1033 l 257
 1491.98144531 1033 l 257
 725.24609375 1553 l 257
 665.24609375 1553 l 257
2451.24609375 1553 m 257
 1423.98144531 1033 l 257
 1491.98144531 1033 l 257
 2513.24609375 1553 l 257
 2451.24609375 1553 l 257
EndSplineSet
EndChar

StartChar: N
Encoding: 78 78 63
GlifName: N_
Width: 2048
VWidth: 0
GlyphClass: 2
Flags: W
AnchorPoint: "base" 820 -14 basechar 0
AnchorPoint: "top" 488 1642 basechar 0
LayerCount: 2
Fore
SplineSet
663.24609375 1553 m 257
 98 0 l 257
 158 0 l 257
 723.24609375 1553 l 257
 663.24609375 1553 l 257
2455.24609375 1553 m 257
 1890 0 l 257
 1950 0 l 257
 2515.24609375 1553 l 257
 2455.24609375 1553 l 257
663.24609375 1553 m 257
 1890 0 l 257
 1950 0 l 257
 723.24609375 1553 l 257
 663.24609375 1553 l 257
EndSplineSet
EndChar

StartChar: O
Encoding: 79 79 67
GlifName: O_
Width: 2048
VWidth: 0
GlyphClass: 2
Flags: W
AnchorPoint: "base" 832 -34 basechar 0
AnchorPoint: "top" 456 1646 basechar 0
LayerCount: 2
Fore
SplineSet
677.24609375 1553 m 257
 112 0 l 257
 171 0 l 257
 736.24609375 1553 l 257
 677.24609375 1553 l 257
2442.24609375 1553 m 257
 1877 0 l 257
 1936 0 l 257
 2501.24609375 1553 l 257
 2442.24609375 1553 l 257
715.24609375 1553 m 257
 693.407226562 1493 l 257
 2449.40722656 1493 l 257
 2471.24609375 1553 l 257
 715.24609375 1553 l 257
174.202148438 61 m 257
 152 0 l 257
 1914 0 l 257
 1936.20214844 61 l 257
 174.202148438 61 l 257
EndSplineSet
EndChar

StartChar: OE
Encoding: 338 338 68
GlifName: O_E_
Width: 2048
VWidth: 0
GlyphClass: 2
Flags: W
LayerCount: 2
Fore
SplineSet
688.24609375 1553 m 257
 123 0 l 257
 182 0 l 257
 747.24609375 1553 l 257
 688.24609375 1553 l 257
1664.24609375 1553 m 257
 1099 0 l 257
 1158 0 l 257
 1723.24609375 1553 l 257
 1664.24609375 1553 l 257
726.24609375 1553 m 257
 704.407226562 1493 l 257
 2460.40722656 1493 l 257
 2482.24609375 1553 l 257
 726.24609375 1553 l 257
185.202148438 61 m 257
 163 0 l 257
 1925 0 l 257
 1947.20214844 61 l 257
 185.202148438 61 l 257
1443.65039062 859 m 257
 1421.44824219 798 l 257
 2156.44824219 798 l 257
 2178.65039062 859 l 257
 1443.65039062 859 l 257
EndSplineSet
EndChar

StartChar: Oslash
Encoding: 216 216 76
GlifName: O_slash
Width: 2048
VWidth: 0
GlyphClass: 2
Flags: W
LayerCount: 2
Fore
SplineSet
2516.27148438 1630 m 257
 51.529296875 -48 l 257
 81.7021484375 -75 l 257
 2556.984375 1588 l 257
 2516.27148438 1630 l 257
667.514648438 1540 m 257
 107 0 l 257
 167 0 l 257
 727.514648438 1540 l 257
 667.514648438 1540 l 257
2431.421875 1537 m 257
 1872 0 l 257
 1931 0 l 257
 2490.421875 1537 l 257
 2431.421875 1537 l 257
696.786132812 1538 m 257
 674.948242188 1478 l 257
 2438.94824219 1478 l 257
 2460.78613281 1538 l 257
 696.786132812 1538 l 257
174.297851562 75 m 257
 147 0 l 257
 1872 0 l 257
 1899.29785156 75 l 257
 174.297851562 75 l 257
EndSplineSet
EndChar

StartChar: P
Encoding: 80 80 78
GlifName: P_
Width: 2048
VWidth: 0
GlyphClass: 2
Flags: W
AnchorPoint: "top" 448 1642 basechar 0
LayerCount: 2
Fore
SplineSet
691.694335938 1535 m 257
 133 0 l 257
 192 0 l 257
 750.694335938 1535 l 257
 691.694335938 1535 l 257
697.154296875 1550 m 257
 668.764648438 1472 l 257
 2452.76464844 1472 l 257
 2481.15429688 1550 l 257
 697.154296875 1550 l 257
2415.05859375 1536 m 257
 2173.38183594 872 l 257
 2234.38183594 872 l 257
 2476.05859375 1536 l 257
 2415.05859375 1536 l 257
516.856445312 931 m 257
 495.018554688 871 l 257
 2206.01855469 871 l 257
 2227.85644531 931 l 257
 516.856445312 931 l 257
EndSplineSet
EndChar

StartChar: Q
Encoding: 81 81 79
GlifName: Q_
Width: 2048
VWidth: 0
GlyphClass: 2
Flags: W
LayerCount: 2
Fore
SplineSet
677.24609375 1553 m 257
 112 0 l 257
 170 0 l 257
 735.24609375 1553 l 257
 677.24609375 1553 l 257
2443.24609375 1553 m 257
 1878 0 l 257
 1936 0 l 257
 2501.24609375 1553 l 257
 2443.24609375 1553 l 257
717.24609375 1553 m 257
 696.499023438 1496 l 257
 2430.49902344 1496 l 257
 2451.24609375 1553 l 257
 717.24609375 1553 l 257
174.56640625 62 m 257
 152 0 l 257
 1888 0 l 257
 1910.56640625 62 l 257
 174.56640625 62 l 257
1420.73144531 13 m 257
 1447.75 -204 l 257
 1523.9453125 -165 l 257
 1482.92675781 52 l 257
 1420.73144531 13 l 257
EndSplineSet
EndChar

StartChar: R
Encoding: 82 82 80
GlifName: R_
Width: 2048
VWidth: 0
GlyphClass: 2
Flags: W
AnchorPoint: "top" 480 1642 basechar 0
LayerCount: 2
Fore
SplineSet
686.154296875 1550 m 257
 122 0 l 257
 182 0 l 257
 746.154296875 1550 l 257
 686.154296875 1550 l 257
728.154296875 1550 m 257
 706.6796875 1491 l 257
 2422.6796875 1491 l 257
 2444.15429688 1550 l 257
 728.154296875 1550 l 257
2384.15429688 1550 m 257
 2137.38183594 872 l 257
 2225.38183594 872 l 257
 2472.15429688 1550 l 257
 2384.15429688 1550 l 257
490.127929688 929 m 257
 467.92578125 868 l 257
 2211.92578125 868 l 257
 2234.12792969 929 l 257
 490.127929688 929 l 257
732.473632812 875 m 257
 1870 0 l 257
 1926 0 l 257
 790.473632812 875 l 257
 732.473632812 875 l 257
EndSplineSet
EndChar

StartChar: S
Encoding: 83 83 83
GlifName: S_
Width: 2048
VWidth: 0
GlyphClass: 2
Flags: W
AnchorPoint: "base" 528 -58 basechar 0
AnchorPoint: "top" 508 1650 basechar 0
LayerCount: 2
Fore
SplineSet
691.24609375 1553 m 257
 669.771484375 1494 l 257
 2291.77148438 1494 l 257
 2313.24609375 1553 l 257
 691.24609375 1553 l 257
687.2421875 1542 m 257
 500.161132812 1028 l 257
 559.161132812 1028 l 257
 746.2421875 1542 l 257
 687.2421875 1542 l 257
175.837890625 60 m 257
 154 0 l 257
 1886 0 l 257
 1907.83789062 60 l 257
 175.837890625 60 l 257
1863 0 m 257
 1922 0 l 257
 2051.20898438 355 l 257
 1992.20898438 355 l 257
 1863 0 l 257
500.161132812 1028 m 257
 1992.20898438 355 l 257
 2051.20898438 355 l 257
 559.161132812 1028 l 257
 500.161132812 1028 l 257
EndSplineSet
EndChar

StartChar: T
Encoding: 84 84 88
GlifName: T_
Width: 2048
VWidth: 0
GlyphClass: 2
Flags: W
AnchorPoint: "base" 492 -54 basechar 0
AnchorPoint: "top" 516 1638 basechar 0
LayerCount: 2
Fore
SplineSet
685.24609375 1553 m 257
 663.771484375 1494 l 257
 2471.77148438 1494 l 257
 2493.24609375 1553 l 257
 685.24609375 1553 l 257
1616.32324219 1512 m 257
 1070.3671875 12 l 257
 1130.3671875 12 l 257
 1676.32324219 1512 l 257
 1616.32324219 1512 l 257
EndSplineSet
EndChar

StartChar: Thorn
Encoding: 222 222 90
GlifName: T_horn
Width: 2048
VWidth: 0
GlyphClass: 2
Flags: W
LayerCount: 2
Fore
SplineSet
1207.2421875 1542 m 257
 649.275390625 9 l 257
 709.275390625 9 l 257
 1267.2421875 1542 l 257
 1207.2421875 1542 l 257
1145.32324219 1240 m 257
 1126.03222656 1187 l 257
 1814.03222656 1187 l 257
 1833.32324219 1240 l 257
 1145.32324219 1240 l 257
1794.05078125 1242 m 257
 1535.26855469 531 l 257
 1595.26855469 531 l 257
 1854.05078125 1242 l 257
 1794.05078125 1242 l 257
912 544 m 257
 890.161132812 484 l 257
 1576.16113281 484 l 257
 1598 544 l 257
 912 544 l 257
EndSplineSet
EndChar

StartChar: U
Encoding: 85 85 91
GlifName: U_
Width: 2048
VWidth: 0
GlyphClass: 2
Flags: W
AnchorPoint: "base" 812 -66 basechar 0
AnchorPoint: "top" 508 1642 basechar 0
LayerCount: 2
Fore
SplineSet
721.24609375 1553 m 257
 156 0 l 257
 218 0 l 257
 783.24609375 1553 l 257
 721.24609375 1553 l 257
2395.24609375 1553 m 257
 1830 0 l 257
 1890 0 l 257
 2455.24609375 1553 l 257
 2395.24609375 1553 l 257
226.202148438 61 m 257
 204 0 l 257
 1848 0 l 257
 1870.20214844 61 l 257
 226.202148438 61 l 257
EndSplineSet
EndChar

StartChar: V
Encoding: 86 86 102
GlifName: V_
Width: 2048
VWidth: 0
GlyphClass: 2
Flags: W
AnchorPoint: "base" 564 -54 basechar 0
AnchorPoint: "top" 496 1642 basechar 0
LayerCount: 2
Fore
SplineSet
671.24609375 1553 m 257
 1062 0 l 257
 1122 0 l 257
 735.24609375 1553 l 257
 671.24609375 1553 l 257
2437.24609375 1553 m 257
 1062 0 l 257
 1122 0 l 257
 2507.24609375 1553 l 257
 2437.24609375 1553 l 257
EndSplineSet
EndChar

StartChar: W
Encoding: 87 87 103
GlifName: W_
Width: 2048
VWidth: 0
GlyphClass: 2
Flags: W
AnchorPoint: "top" 508 1646 basechar 0
LayerCount: 2
Fore
SplineSet
665.698242188 1546 m 257
 103 0 l 257
 163 0 l 257
 725.698242188 1546 l 257
 665.698242188 1546 l 257
2442.96679688 1533 m 257
 1889.3671875 12 l 257
 1949.3671875 12 l 257
 2502.96679688 1533 l 257
 2442.96679688 1533 l 257
1443.16113281 1028 m 257
 1069 0 l 257
 1129 0 l 257
 1503.16113281 1028 l 257
 1443.16113281 1028 l 257
132.837890625 60 m 257
 111 0 l 257
 1945 0 l 257
 1966.83789062 60 l 257
 132.837890625 60 l 257
EndSplineSet
EndChar

StartChar: X
Encoding: 88 88 108
GlifName: X_
Width: 2048
VWidth: 0
GlyphClass: 2
Flags: W
LayerCount: 2
Fore
SplineSet
667.24609375 1553 m 257
 1872 0 l 257
 1946 0 l 257
 739.24609375 1553 l 257
 667.24609375 1553 l 257
102 0 m 257
 172 0 l 257
 2511.24609375 1553 l 257
 2435.24609375 1553 l 257
 102 0 l 257
EndSplineSet
EndChar

StartChar: Y
Encoding: 89 89 109
GlifName: Y_
Width: 2048
VWidth: 0
GlyphClass: 2
Flags: W
AnchorPoint: "base" 508 -70 basechar 0
AnchorPoint: "top" 524 1638 basechar 0
LayerCount: 2
Fore
SplineSet
1385.75292969 895 m 257
 1060 0 l 257
 1119 0 l 257
 1444.75292969 895 l 257
 1385.75292969 895 l 257
734.061523438 1547 m 257
 483.650390625 859 l 257
 544.650390625 859 l 257
 795.061523438 1547 l 257
 734.061523438 1547 l 257
2376.05859375 1536 m 257
 2129.65039062 859 l 257
 2189.65039062 859 l 257
 2436.05859375 1536 l 257
 2376.05859375 1536 l 257
551.48828125 919 m 257
 529.650390625 859 l 257
 2162.65039062 859 l 257
 2184.48828125 919 l 257
 551.48828125 919 l 257
EndSplineSet
EndChar

StartChar: Z
Encoding: 90 90 114
GlifName: Z_
Width: 2048
VWidth: 0
GlyphClass: 2
Flags: W
AnchorPoint: "base" 560 -46 basechar 0
AnchorPoint: "top" 496 1646 basechar 0
LayerCount: 2
Fore
SplineSet
662.154296875 1550 m 257
 640.6796875 1491 l 257
 2492.6796875 1491 l 257
 2514.15429688 1550 l 257
 662.154296875 1550 l 257
120.837890625 60 m 257
 99 0 l 257
 1950 0 l 257
 1971.83789062 60 l 257
 120.837890625 60 l 257
2432.6796875 1491 m 257
 120.837890625 60 l 257
 180.837890625 60 l 257
 2492.6796875 1491 l 257
 2432.6796875 1491 l 257
EndSplineSet
EndChar

StartChar: a
Encoding: 97 97 118
GlifName: a
Width: 2048
VWidth: 0
GlyphClass: 2
Flags: W
AnchorPoint: "base" 752 -62 basechar 0
AnchorPoint: "top" 500 1134 basechar 0
LayerCount: 2
Fore
SplineSet
538.341796875 1023 m 257
 514.319335938 957 l 257
 2187.31933594 957 l 257
 2211.34179688 1023 l 257
 538.341796875 1023 l 257
2173.34179688 1023 m 257
 1801 0 l 257
 1878 0 l 257
 2250.34179688 1023 l 257
 2173.34179688 1023 l 257
387.381835938 600 m 257
 364.81640625 538 l 257
 2012.81640625 538 l 257
 2035.38183594 600 l 257
 387.381835938 600 l 257
380.010742188 577 m 257
 170 0 l 257
 241 0 l 257
 451.010742188 577 l 257
 380.010742188 577 l 257
205.93359375 74 m 257
 179 0 l 257
 1867 0 l 257
 1893.93359375 74 l 257
 205.93359375 74 l 257
EndSplineSet
EndChar

StartChar: acute
Encoding: 180 180 122
GlifName: acute
Width: 2048
VWidth: 0
GlyphClass: 2
Flags: W
LayerCount: 2
Fore
SplineSet
1088.33789062 1556 m 257
 865.889648438 1302 l 257
 937.146484375 1256 l 257
 1160.95898438 1511 l 257
 1088.33789062 1556 l 257
EndSplineSet
EndChar

StartChar: acutecomb
Encoding: 769 769 123
GlifName: acutecomb
Width: 0
VWidth: 0
GlyphClass: 2
Flags: HW
AnchorPoint: "top" 466 1888 mark 0
AnchorPoint: "top" 466 1888 mark 0
LayerCount: 2
Fore
SplineSet
1382.40820312 949 m 257
 1236.07324219 764 l 257
 1276.69824219 730 l 257
 1423.03320312 915 l 257
 1382.40820312 949 l 257
EndSplineSet
EndChar

StartChar: ae
Encoding: 230 230 125
GlifName: ae
Width: 2048
VWidth: 0
GlyphClass: 2
Flags: W
LayerCount: 2
Fore
SplineSet
476.341796875 1023 m 257
 453.775390625 961 l 257
 2243.77539062 961 l 257
 2266.34179688 1023 l 257
 476.341796875 1023 l 257
1396.34179688 1023 m 257
 1024 0 l 257
 1084 0 l 257
 1456.34179688 1023 l 257
 1396.34179688 1023 l 257
346.018554688 599 m 257
 323.81640625 538 l 257
 2063.81640625 538 l 257
 2086.01855469 599 l 257
 346.018554688 599 l 257
337.283203125 575 m 257
 128 0 l 257
 188 0 l 257
 397.283203125 575 l 257
 337.283203125 575 l 257
148.202148438 61 m 257
 126 0 l 257
 1946 0 l 257
 1968.20214844 61 l 257
 148.202148438 61 l 257
2234.34179688 1023 m 257
 2057.81640625 538 l 257
 2119.81640625 538 l 257
 2296.34179688 1023 l 257
 2234.34179688 1023 l 257
EndSplineSet
EndChar

StartChar: ampersand
Encoding: 38 38 128
GlifName: ampersand
Width: 2048
VWidth: 0
GlyphClass: 2
Flags: W
LayerCount: 2
Fore
SplineSet
1330.33007812 1534 m 257
 1305.65039062 43 l 257
 1386.3828125 56 l 257
 1408.33007812 1534 l 257
 1330.33007812 1534 l 257
1849.94433594 1467 m 257
 1875.05859375 1536 l 257
 1409.05859375 1536 l 257
 1383.94433594 1467 l 257
 1849.94433594 1467 l 257
1798.49609375 1485 m 257
 1624.15429688 1006 l 257
 1682.15429688 1006 l 257
 1856.49609375 1485 l 257
 1798.49609375 1485 l 257
1000.34863281 1045 m 257
 978.510742188 985 l 257
 1674.51074219 985 l 257
 1696.34863281 1045 l 257
 1000.34863281 1045 l 257
1000.34863281 1045 m 257
 628.735351562 24 l 257
 718.735351562 24 l 257
 1090.34863281 1045 l 257
 1000.34863281 1045 l 257
645.841796875 71 m 257
 622.18359375 6 l 257
 1430.18359375 6 l 257
 1453.84179688 71 l 257
 645.841796875 71 l 257
EndSplineSet
EndChar

StartChar: asciicircum
Encoding: 94 94 131
GlifName: asciicircum
Width: 2048
VWidth: 0
GlyphClass: 2
Flags: W
LayerCount: 2
Fore
SplineSet
1395.79785156 1027 m 257
 1323.79785156 1027 l 257
 834.135742188 407 l 257
 875.760742188 373 l 257
 1395.79785156 1027 l 257
1330.88964844 1030 m 257
 1412.48535156 364 l 257
 1507.58789062 400 l 257
 1404.88964844 1030 l 257
 1330.88964844 1030 l 257
EndSplineSet
EndChar

StartChar: asciitilde
Encoding: 126 126 132
GlifName: asciitilde
Width: 2048
VWidth: 0
GlyphClass: 2
Flags: W
LayerCount: 2
Fore
SplineSet
1156.80078125 766 m 257
 1138.60253906 716 l 257
 1462.76074219 645 l 257
 1480.95898438 695 l 257
 1156.80078125 766 l 257
896.418945312 710 m 257
 889.30859375 652 l 257
 1138.60253906 716 l 257
 1156.80078125 766 l 257
 896.418945312 710 l 257
1480.95898438 695 m 257
 1462.76074219 645 l 257
 1699.72070312 796 l 257
 1702.82714844 843 l 257
 1480.95898438 695 l 257
EndSplineSet
EndChar

StartChar: asterisk
Encoding: 42 42 133
GlifName: asterisk
Width: 2048
VWidth: 0
GlyphClass: 2
Flags: W
LayerCount: 2
Fore
SplineSet
1470.06933594 1297 m 257
 1103.1875 289 l 257
 1203.1875 289 l 257
 1570.06933594 1297 l 257
 1470.06933594 1297 l 257
1071.65722656 1153 m 257
 1530.32324219 424 l 257
 1624.52929688 496 l 257
 1156.77148438 1222 l 257
 1071.65722656 1153 l 257
1788.76464844 1200 m 257
 767.422851562 449 l 257
 805.224609375 399 l 257
 1816.7421875 1134 l 257
 1788.76464844 1200 l 257
EndSplineSet
EndChar

StartChar: at
Encoding: 64 64 134
GlifName: at
Width: 2048
VWidth: 0
GlyphClass: 2
Flags: W
LayerCount: 2
Fore
SplineSet
966.341796875 1023 m 257
 941.955078125 956 l 257
 1839.95507812 956 l 257
 1864.34179688 1023 l 257
 966.341796875 1023 l 257
1469.65429688 598 m 257
 1252 0 l 257
 1320 0 l 257
 1537.65429688 598 l 257
 1469.65429688 598 l 257
1050.74609375 601 m 257
 1032.54785156 551 l 257
 1456.54785156 551 l 257
 1474.74609375 601 l 257
 1050.74609375 601 l 257
1042.37890625 589 m 257
 832.3671875 12 l 257
 886.3671875 12 l 257
 1096.37890625 589 l 257
 1042.37890625 589 l 257
853.662109375 76 m 257
 826 0 l 257
 1320 0 l 257
 1347.66210938 76 l 257
 853.662109375 76 l 257
912.341796875 1023 m 257
 458.834960938 -223 l 257
 524.834960938 -223 l 257
 978.341796875 1023 l 257
 912.341796875 1023 l 257
472.849609375 -179 m 257
 444.095703125 -258 l 257
 1392.09570312 -258 l 257
 1420.84960938 -179 l 257
 472.849609375 -179 l 257
1799.98144531 1033 m 257
 1424 0 l 257
 1510 0 l 257
 1885.98144531 1033 l 257
 1799.98144531 1033 l 257
1293.66210938 76 m 257
 1266 0 l 257
 1456 0 l 257
 1483.66210938 76 l 257
 1293.66210938 76 l 257
EndSplineSet
EndChar

StartChar: b
Encoding: 98 98 136
GlifName: b
Width: 2048
VWidth: 0
GlyphClass: 2
Flags: W
AnchorPoint: "top" 220 1646 basechar 0
LayerCount: 2
Fore
SplineSet
694.05859375 1536 m 257
 135 0 l 257
 195 0 l 257
 754.05859375 1536 l 257
 694.05859375 1536 l 257
553.981445312 1033 m 257
 531.779296875 972 l 257
 2219.77929688 972 l 257
 2241.98144531 1033 l 257
 553.981445312 1033 l 257
2228.98144531 1033 m 257
 1853 0 l 257
 1913 0 l 257
 2288.98144531 1033 l 257
 2228.98144531 1033 l 257
191.837890625 60 m 257
 170 0 l 257
 1891 0 l 257
 1912.83789062 60 l 257
 191.837890625 60 l 257
EndSplineSet
EndChar

StartChar: backslash
Encoding: 92 92 137
GlifName: backslash
Width: 2048
VWidth: 0
GlyphClass: 2
Flags: W
LayerCount: 2
Fore
SplineSet
1271.15429688 1550 m 257
 1263 0 l 257
 1341 0 l 257
 1354.15429688 1550 l 257
 1271.15429688 1550 l 257
EndSplineSet
EndChar

StartChar: bar
Encoding: 124 124 138
GlifName: bar
Width: 2048
VWidth: 0
GlyphClass: 2
Flags: W
LayerCount: 2
Fore
SplineSet
1506.296875 1435 m 257
 951.243164062 -90 l 257
 1031.24316406 -90 l 257
 1586.296875 1435 l 257
 1506.296875 1435 l 257
EndSplineSet
EndChar

StartChar: braceleft
Encoding: 123 123 139
GlifName: braceleft
Width: 2048
VWidth: 0
GlyphClass: 2
Flags: W
LayerCount: 2
Fore
SplineSet
1606.35253906 1600 m 257
 1329.00683594 838 l 257
 1403.00683594 838 l 257
 1680.35253906 1600 l 257
 1606.35253906 1600 l 257
1190.32324219 424 m 257
 941.00390625 -261 l 257
 1027.00390625 -261 l 257
 1276.32324219 424 l 257
 1190.32324219 424 l 257
987.139648438 690 m 257
 965.30078125 630 l 257
 1404.27929688 836 l 257
 1328.27929688 836 l 257
 987.139648438 690 l 257
987.139648438 690 m 257
 965.30078125 630 l 257
 1188.6875 425 l 257
 1274.6875 425 l 257
 987.139648438 690 l 257
1626.35253906 1600 m 257
 1600.51074219 1529 l 257
 1871.796875 1571 l 257
 1886.35253906 1600 l 257
 1626.35253906 1600 l 257
976.849609375 -179 m 257
 946.275390625 -263 l 257
 1216.27539062 -263 l 257
 1221.0078125 -250 l 257
 976.849609375 -179 l 257
EndSplineSet
EndChar

StartChar: braceright
Encoding: 125 125 140
GlifName: braceright
Width: 2048
VWidth: 0
GlyphClass: 2
Flags: W
LayerCount: 2
Fore
SplineSet
1601.96972656 1544 m 257
 1542.96972656 1544 l 257
 1286.00683594 838 l 257
 1344.00683594 838 l 257
 1601.96972656 1544 l 257
1180.32324219 424 m 257
 1120.32324219 424 l 257
 861.904296875 -286 l 257
 921.904296875 -286 l 257
 1180.32324219 424 l 257
1564.13964844 690 m 257
 1340.00683594 838 l 257
 1285.00683594 838 l 257
 1542.30078125 630 l 257
 1564.13964844 690 l 257
1564.13964844 690 m 257
 1120.32324219 424 l 257
 1180.32324219 424 l 257
 1542.30078125 630 l 257
 1564.13964844 690 l 257
1624.44433594 1603 m 257
 1349.44433594 1603 l 257
 1342.88867188 1574 l 257
 1587.23144531 1509 l 257
 1624.44433594 1603 l 257
941.206054688 -200 m 257
 635.272460938 -274 l 257
 631.6328125 -284 l 257
 907.6328125 -284 l 257
 941.206054688 -200 l 257
EndSplineSet
EndChar

StartChar: bracketleft
Encoding: 91 91 141
GlifName: bracketleft
Width: 2048
VWidth: 0
GlyphClass: 2
Flags: W
LayerCount: 2
Fore
SplineSet
1451.2421875 1542 m 257
 801.918945312 -242 l 257
 858.918945312 -242 l 257
 1508.2421875 1542 l 257
 1451.2421875 1542 l 257
1505.60644531 1543 m 257
 1483.04003906 1481 l 257
 1692.04003906 1481 l 257
 1714.60644531 1543 l 257
 1505.60644531 1543 l 257
864.852539062 -168 m 257
 837.918945312 -242 l 257
 1069.91894531 -242 l 257
 1096.85253906 -168 l 257
 864.852539062 -168 l 257
EndSplineSet
EndChar

StartChar: bracketright
Encoding: 93 93 142
GlifName: bracketright
Width: 2048
VWidth: 0
GlyphClass: 2
Flags: W
LayerCount: 2
Fore
SplineSet
1659.2421875 1542 m 257
 1009.91894531 -242 l 257
 1071.91894531 -242 l 257
 1721.2421875 1542 l 257
 1659.2421875 1542 l 257
1447.60644531 1543 m 257
 1423.94824219 1478 l 257
 1651.94824219 1478 l 257
 1675.60644531 1543 l 257
 1447.60644531 1543 l 257
825.9453125 -165 m 257
 797.918945312 -242 l 257
 1035.91894531 -242 l 257
 1063.9453125 -165 l 257
 825.9453125 -165 l 257
EndSplineSet
EndChar

StartChar: breve
Encoding: 728 728 143
GlifName: breve
Width: 2048
VWidth: 0
GlyphClass: 2
Flags: W
LayerCount: 2
Fore
SplineSet
1753.15429688 1550 m 257
 1727.67578125 1480 l 257
 1918.15429688 1550 l 257
 1952.73144531 1645 l 257
 1753.15429688 1550 l 257
1429.15429688 1550 m 257
 1403.67578125 1480 l 257
 1727.67578125 1480 l 257
 1753.15429688 1550 l 257
 1429.15429688 1550 l 257
1287.27148438 1630 m 257
 1258.15429688 1550 l 257
 1403.67578125 1480 l 257
 1429.15429688 1550 l 257
 1287.27148438 1630 l 257
EndSplineSet
EndChar

StartChar: brokenbar
Encoding: 166 166 144
GlifName: brokenbar
Width: 2048
VWidth: 0
GlyphClass: 2
Flags: W
LayerCount: 2
Fore
SplineSet
881.162109375 -332 m 257
 925.162109375 -332 l 257
 1294.22753906 682 l 257
 1250.22753906 682 l 257
 881.162109375 -332 l 257
1296.53613281 790 m 257
 1333.53613281 790 l 257
 1641.45507812 1636 l 257
 1604.45507812 1636 l 257
 1296.53613281 790 l 257
EndSplineSet
EndChar

StartChar: bullet
Encoding: 8226 8226 145
GlifName: bullet
Width: 2048
VWidth: 0
GlyphClass: 2
Flags: W
LayerCount: 2
Fore
SplineSet
1314.24609375 1009 m 257
 1254.19042969 844 l 257
 1408.19042969 844 l 257
 1468.24609375 1009 l 257
 1314.24609375 1009 l 257
EndSplineSet
EndChar

StartChar: c
Encoding: 99 99 146
GlifName: c
Width: 2048
VWidth: 0
GlyphClass: 2
Flags: W
AnchorPoint: "top" 492 1162 basechar 0
LayerCount: 2
Fore
SplineSet
537.797851562 1027 m 257
 515.958984375 967 l 257
 2235.95898438 967 l 257
 2257.79785156 1027 l 257
 537.797851562 1027 l 257
524.146484375 984 m 257
 166 0 l 257
 226 0 l 257
 584.146484375 984 l 257
 524.146484375 984 l 257
235.837890625 60 m 257
 214 0 l 257
 1878 0 l 257
 1899.83789062 60 l 257
 235.837890625 60 l 257
EndSplineSet
EndChar

StartChar: caron
Encoding: 711 711 148
GlifName: caron
Width: 2048
VWidth: 0
GlyphClass: 2
Flags: W
LayerCount: 2
Fore
SplineSet
1424.09472656 1102 m 257
 1402.11328125 1429 l 257
 1368.92578125 1412 l 257
 1388.09472656 1102 l 257
 1424.09472656 1102 l 257
1390.73144531 1101 m 257
 1427.73144531 1101 l 257
 1708.38183594 1416 l 257
 1673.93359375 1434 l 257
 1390.73144531 1101 l 257
EndSplineSet
EndChar

StartChar: cedilla
Encoding: 184 184 153
GlifName: cedilla
Width: 2048
VWidth: 0
GlyphClass: 2
Flags: W
LayerCount: 2
Fore
SplineSet
873.0625 187 m 257
 785.709960938 -53 l 257
 843.709960938 -53 l 257
 931.0625 187 l 257
 873.0625 187 l 257
687.25 -340 m 257
 665.047851562 -401 l 257
 1111.04785156 -401 l 257
 1133.25 -340 l 257
 687.25 -340 l 257
1200.54785156 7 m 257
 1065.15039062 -365 l 257
 1124.15039062 -365 l 257
 1259.54785156 7 l 257
 1200.54785156 7 l 257
813.547851562 7 m 257
 791.709960938 -53 l 257
 1237.70996094 -53 l 257
 1259.54785156 7 l 257
 813.547851562 7 l 257
EndSplineSet
EndChar

StartChar: cent
Encoding: 162 162 154
GlifName: cent
Width: 2048
VWidth: 0
GlyphClass: 2
Flags: W
LayerCount: 2
Fore
SplineSet
1546.57714844 1183 m 257
 1486.57714844 1183 l 257
 1024.69824219 -86 l 257
 1084.69824219 -86 l 257
 1546.57714844 1183 l 257
1049.79785156 1027 m 257
 1027.59570312 966 l 257
 1723.59570312 966 l 257
 1745.79785156 1027 l 257
 1049.79785156 1027 l 257
1036.14648438 984 m 257
 678 0 l 257
 743 0 l 257
 1101.14648438 984 l 257
 1036.14648438 984 l 257
749.202148438 61 m 257
 727 0 l 257
 1366 0 l 257
 1388.20214844 61 l 257
 749.202148438 61 l 257
EndSplineSet
EndChar

StartChar: circumflex
Encoding: 710 710 155
GlifName: circumflex
Width: 2048
VWidth: 0
GlyphClass: 2
Flags: W
LayerCount: 2
Fore
SplineSet
1863.04296875 2308 m 257
 1827.04296875 2308 l 257
 1582.21289062 1998 l 257
 1603.02539062 1981 l 257
 1863.04296875 2308 l 257
1830.77148438 2310 m 257
 1871.20507812 1976 l 257
 1918.75683594 1994 l 257
 1867.77148438 2310 l 257
 1830.77148438 2310 l 257
EndSplineSet
EndChar

StartChar: colon
Encoding: 58 58 156
GlifName: colon
Width: 2048
VWidth: 0
GlyphClass: 2
Flags: W
LayerCount: 2
Fore
SplineSet
1015.69140625 164 m 257
 958.547851562 7 l 257
 1094.54785156 7 l 257
 1151.69140625 164 l 257
 1015.69140625 164 l 257
1157.27539062 553 m 257
 1100.13183594 396 l 257
 1236.13183594 396 l 257
 1293.27539062 553 l 257
 1157.27539062 553 l 257
EndSplineSet
EndChar

StartChar: comma
Encoding: 44 44 157
GlifName: comma
Width: 2048
VWidth: 0
GlyphClass: 2
Flags: W
LayerCount: 2
Fore
SplineSet
1016.0546875 165 m 257
 958.912109375 8 l 257
 1094.91210938 8 l 257
 1152.0546875 165 l 257
 1016.0546875 165 l 257
1089.13574219 135 m 257
 961.966796875 -99 l 257
 994.1328125 -148 l 257
 1099.46289062 26 l 257
 1089.13574219 135 l 257
EndSplineSet
EndChar

StartChar: copyright
Encoding: 169 169 158
GlifName: copyright
Width: 2048
VWidth: 0
GlyphClass: 2
Flags: W
LayerCount: 2
Fore
SplineSet
1084.51464844 1540 m 257
 524 0 l 257
 584 0 l 257
 1144.51464844 1540 l 257
 1084.51464844 1540 l 257
2023.421875 1537 m 257
 1464 0 l 257
 1524 0 l 257
 2083.421875 1537 l 257
 2023.421875 1537 l 257
1135.78613281 1538 m 257
 1113.21972656 1476 l 257
 2057.21972656 1476 l 257
 2079.78613281 1538 l 257
 1135.78613281 1538 l 257
557.837890625 60 m 257
 536 0 l 257
 1506 0 l 257
 1527.83789062 60 l 257
 557.837890625 60 l 257
1205.67285156 1197 m 257
 1183.10644531 1135 l 257
 1617.10644531 1135 l 257
 1639.67285156 1197 l 257
 1205.67285156 1197 l 257
1190.02148438 1154 m 257
 893.75 340 l 257
 953.75 340 l 257
 1250.02148438 1154 l 257
 1190.02148438 1154 l 257
899.573242188 356 m 257
 877.006835938 294 l 257
 1317.00683594 294 l 257
 1339.57324219 356 l 257
 899.573242188 356 l 257
EndSplineSet
EndChar

StartChar: currency
Encoding: 164 164 159
GlifName: currency
Width: 2048
VWidth: 0
GlyphClass: 2
Flags: W
LayerCount: 2
Fore
SplineSet
1040.21289062 1182 m 257
 668.235351562 160 l 257
 728.235351562 160 l 257
 1100.21289062 1182 l 257
 1040.21289062 1182 l 257
1798.94042969 1184 m 257
 1426.23535156 160 l 257
 1486.23535156 160 l 257
 1858.94042969 1184 l 257
 1798.94042969 1184 l 257
1104.03222656 1187 m 257
 1082.19433594 1127 l 257
 1782.19433594 1127 l 257
 1804.03222656 1187 l 257
 1104.03222656 1187 l 257
736.801757812 222 m 257
 714.235351562 160 l 257
 1434.23535156 160 l 257
 1456.80175781 222 l 257
 736.801757812 222 l 257
991.327148438 1251 m 257
 949.833984375 1137 l 257
 1093.83398438 1137 l 257
 1135.32714844 1251 l 257
 991.327148438 1251 l 257
1823.6875 1241 m 257
 1782.19433594 1127 l 257
 1924.19433594 1127 l 257
 1965.6875 1241 l 257
 1823.6875 1241 l 257
611.165039062 223 m 257
 569.672851562 109 l 257
 713.672851562 109 l 257
 755.165039062 223 l 257
 611.165039062 223 l 257
1454.07324219 220 m 257
 1412.58105469 106 l 257
 1556.58105469 106 l 257
 1598.07324219 220 l 257
 1454.07324219 220 l 257
EndSplineSet
EndChar

StartChar: d
Encoding: 100 100 160
GlifName: d
Width: 2048
VWidth: 0
GlyphClass: 2
Flags: W
AnchorPoint: "top" 824 1642 basechar 0
LayerCount: 2
Fore
SplineSet
2368.15429688 1550 m 257
 1804 0 l 257
 1864 0 l 257
 2428.15429688 1550 l 257
 2368.15429688 1550 l 257
601.43359375 1026 m 257
 579.595703125 966 l 257
 2189.59570312 966 l 257
 2211.43359375 1026 l 257
 601.43359375 1026 l 257
556.341796875 1023 m 257
 184 0 l 257
 244 0 l 257
 616.341796875 1023 l 257
 556.341796875 1023 l 257
245.474609375 59 m 257
 222.543945312 -4 l 257
 1814.54394531 -4 l 257
 1837.47460938 59 l 257
 245.474609375 59 l 257
EndSplineSet
EndChar

StartChar: dagger
Encoding: 8224 8224 161
GlifName: dagger
Width: 2048
VWidth: 0
GlyphClass: 2
Flags: W
LayerCount: 2
Fore
SplineSet
664.327148438 1251 m 257
 645.764648438 1200 l 257
 1251.76464844 1200 l 257
 1270.32714844 1251 l 257
 664.327148438 1251 l 257
1045.15429688 1550 m 257
 481 0 l 257
 547 0 l 257
 1111.15429688 1550 l 257
 1045.15429688 1550 l 257
EndSplineSet
EndChar

StartChar: daggerdbl
Encoding: 8225 8225 162
GlifName: daggerdbl
Width: 2048
VWidth: 0
GlyphClass: 2
Flags: W
LayerCount: 2
Fore
SplineSet
508.547851562 823 m 257
 489.985351562 772 l 257
 1095.98535156 772 l 257
 1114.54785156 823 l 257
 508.547851562 823 l 257
664.327148438 1251 m 257
 645.764648438 1200 l 257
 1251.76464844 1200 l 257
 1270.32714844 1251 l 257
 664.327148438 1251 l 257
1054.15429688 1550 m 257
 490 0 l 257
 552 0 l 257
 1116.15429688 1550 l 257
 1054.15429688 1550 l 257
EndSplineSet
EndChar

StartChar: dcaron
Encoding: 271 271 163
GlifName: dcaron
Width: 2048
VWidth: 0
GlyphClass: 2
Flags: W
LayerCount: 2
Fore
SplineSet
2325.78222656 1527 m 257
 1770 0 l 257
 1830 0 l 257
 2385.78222656 1527 l 257
 2325.78222656 1527 l 257
486.341796875 1023 m 257
 464.139648438 962 l 257
 2140.13964844 962 l 257
 2162.34179688 1023 l 257
 486.341796875 1023 l 257
442.341796875 1023 m 257
 70 0 l 257
 128 0 l 257
 500.341796875 1023 l 257
 442.341796875 1023 l 257
107.837890625 60 m 257
 86 0 l 257
 1782 0 l 257
 1803.83789062 60 l 257
 107.837890625 60 l 257
2472.49902344 1496 m 257
 2388.05859375 1264 l 257
 2438.05859375 1264 l 257
 2522.49902344 1496 l 257
 2472.49902344 1496 l 257
EndSplineSet
EndChar

StartChar: dcroat
Encoding: 273 273 164
GlifName: dcroat
Width: 2048
VWidth: 0
GlyphClass: 2
Flags: W
LayerCount: 2
Fore
SplineSet
2347.78222656 1527 m 257
 1792 0 l 257
 1852 0 l 257
 2407.78222656 1527 l 257
 2347.78222656 1527 l 257
494.341796875 1023 m 257
 472.139648438 962 l 257
 2164.13964844 962 l 257
 2186.34179688 1023 l 257
 494.341796875 1023 l 257
462.341796875 1023 m 257
 90 0 l 257
 150 0 l 257
 522.341796875 1023 l 257
 462.341796875 1023 l 257
160.202148438 61 m 257
 138 0 l 257
 1804 0 l 257
 1826.20214844 61 l 257
 160.202148438 61 l 257
2108.60253906 1260 m 257
 2087.4921875 1202 l 257
 2395.4921875 1202 l 257
 2416.60253906 1260 l 257
 2108.60253906 1260 l 257
EndSplineSet
EndChar

StartChar: degree
Encoding: 176 176 165
GlifName: degree
Width: 2048
VWidth: 0
GlyphClass: 2
Flags: W
LayerCount: 2
Fore
SplineSet
1426.75292969 1439 m 257
 1676.75292969 1439 l 257
 1601.046875 1231 l 257
 1351.046875 1231 l 257
 1426.75292969 1439 l 257
1385.58789062 1488 m 257
 1273.12109375 1179 l 257
 1633.12109375 1179 l 257
 1745.58789062 1488 l 257
 1385.58789062 1488 l 257
EndSplineSet
EndChar

StartChar: dieresis
Encoding: 168 168 166
GlifName: dieresis
Width: 2048
VWidth: 0
GlyphClass: 2
Flags: W
LayerCount: 2
Fore
SplineSet
1237.34179688 1023 m 257
 1200.94433594 923 l 257
 1312.94433594 923 l 257
 1349.34179688 1023 l 257
 1237.34179688 1023 l 257
1479.34179688 1023 m 257
 1442.94433594 923 l 257
 1554.94433594 923 l 257
 1591.34179688 1023 l 257
 1479.34179688 1023 l 257
EndSplineSet
EndChar

StartChar: divide
Encoding: 247 247 167
GlifName: divide
Width: 2048
VWidth: 0
GlyphClass: 2
Flags: W
LayerCount: 2
Fore
SplineSet
1131.91210938 280 m 257
 1097.33496094 185 l 257
 1249.33496094 185 l 257
 1283.91210938 280 l 257
 1131.91210938 280 l 257
1431.19433594 1127 m 257
 1396.25292969 1031 l 257
 1533.25292969 1031 l 257
 1568.19433594 1127 l 257
 1431.19433594 1127 l 257
351.948242188 662 m 257
 329.381835938 600 l 257
 2155.38183594 600 l 257
 2177.94824219 662 l 257
 351.948242188 662 l 257
EndSplineSet
EndChar

StartChar: dollar
Encoding: 36 36 168
GlifName: dollar
Width: 2048
VWidth: 0
GlyphClass: 2
Flags: W
LayerCount: 2
Fore
SplineSet
1198.15039062 1539 m 257
 1168.3046875 1457 l 257
 1766.3046875 1457 l 257
 1796.15039062 1539 l 257
 1198.15039062 1539 l 257
1199.2421875 1542 m 257
 1012.16113281 1028 l 257
 1096.16113281 1028 l 257
 1283.2421875 1542 l 257
 1199.2421875 1542 l 257
691.114257812 69 m 257
 666 0 l 257
 1374 0 l 257
 1399.11425781 69 l 257
 691.114257812 69 l 257
1330 0 m 257
 1410 0 l 257
 1539.20898438 355 l 257
 1459.20898438 355 l 257
 1330 0 l 257
1012.16113281 1028 m 257
 1458.20898438 355 l 257
 1539.20898438 355 l 257
 1096.16113281 1028 l 257
 1012.16113281 1028 l 257
1528.45507812 1636 m 257
 854.74609375 -215 l 257
 924.74609375 -215 l 257
 1598.45507812 1636 l 257
 1528.45507812 1636 l 257
EndSplineSet
EndChar

StartChar: dotaccent
Encoding: 729 729 169
GlifName: dotaccent
Width: 2048
VWidth: 0
GlyphClass: 2
Flags: W
LayerCount: 2
Fore
SplineSet
1360.36035156 1078 m 257
 1323.59863281 977 l 257
 1435.59863281 977 l 257
 1472.36035156 1078 l 257
 1360.36035156 1078 l 257
EndSplineSet
EndChar

StartChar: dotbelowcomb
Encoding: 803 803 170
GlifName: dotbelowcomb
Width: 0
VWidth: 0
GlyphClass: 2
AnchorPoint: "base" 498 -187 mark 0
AnchorPoint: "base" 498 -187 mark 0
LayerCount: 2
Fore
SplineSet
878.448242188 -290 m 257
 851.150390625 -365 l 257
 931.150390625 -365 l 257
 958.448242188 -290 l 257
 878.448242188 -290 l 257
EndSplineSet
EndChar

StartChar: dotlessi
Encoding: 305 305 171
GlifName: dotlessi
Width: 2048
VWidth: 0
GlyphClass: 2
Flags: W
AnchorPoint: "base" 1182 -9 basechar 0
AnchorPoint: "top" 999 1200 basechar 0
AnchorPoint: "base" 1182 -9 basechar 0
AnchorPoint: "top" 999 1200 basechar 0
LayerCount: 2
Fore
SplineSet
1394.34179688 1023 m 257
 1040.92675781 52 l 257
 1100.92675781 52 l 257
 1454.34179688 1023 l 257
 1394.34179688 1023 l 257
162.837890625 60 m 257
 141 0 l 257
 1907 0 l 257
 1928.83789062 60 l 257
 162.837890625 60 l 257
563.341796875 1023 m 257
 541.139648438 962 l 257
 1389.13964844 962 l 257
 1411.34179688 1023 l 257
 563.341796875 1023 l 257
EndSplineSet
EndChar

StartChar: e
Encoding: 101 101 172
GlifName: e
Width: 2048
VWidth: 0
GlyphClass: 2
Flags: W
AnchorPoint: "base" 792 -18 basechar 0
AnchorPoint: "top" 512 1166 basechar 0
LayerCount: 2
Fore
SplineSet
590.341796875 1023 m 257
 570.323242188 968 l 257
 2232.32324219 968 l 257
 2252.34179688 1023 l 257
 590.341796875 1023 l 257
538.341796875 1023 m 257
 166 0 l 257
 224 0 l 257
 596.341796875 1023 l 257
 538.341796875 1023 l 257
230.202148438 61 m 257
 208 0 l 257
 1876 0 l 257
 1898.20214844 61 l 257
 230.202148438 61 l 257
370.168945312 506 m 257
 356.331054688 446 l 257
 2010.33105469 446 l 257
 2032.16894531 506 l 257
 370.168945312 506 l 257
2183.42285156 993 m 257
 1983.96679688 445 l 257
 2043.96679688 445 l 257
 2243.42285156 993 l 257
 2183.42285156 993 l 257
EndSplineSet
EndChar

StartChar: eight
Encoding: 56 56 180
GlifName: eight
Width: 2048
VWidth: 0
GlyphClass: 2
Flags: W
LayerCount: 2
Fore
SplineSet
620.154296875 1550 m 257
 56 0 l 257
 1991.90820312 -3 l 257
 2557.15429688 1550 l 257
 620.154296875 1550 l 257
2258.20898438 899 m 257
 1951.74609375 57 l 257
 139.74609375 57 l 257
 446.208984375 899 l 257
 2258.20898438 899 l 257
2281.04785156 959 m 257
 467.047851562 959 l 257
 659.952148438 1489 l 257
 2473.95214844 1489 l 257
 2281.04785156 959 l 257
EndSplineSet
EndChar

StartChar: ellipsis
Encoding: 8230 8230 181
GlifName: ellipsis
Width: 2048
VWidth: 0
GlyphClass: 2
Flags: W
LayerCount: 2
Fore
SplineSet
733.4921875 114 m 257
 692 0 l 257
 834 0 l 257
 875.4921875 114 l 257
 733.4921875 114 l 257
989.4921875 114 m 257
 948 0 l 257
 1092 0 l 257
 1133.4921875 114 l 257
 989.4921875 114 l 257
1255.4921875 114 m 257
 1214 0 l 257
 1356 0 l 257
 1397.4921875 114 l 257
 1255.4921875 114 l 257
EndSplineSet
EndChar

StartChar: emdash
Encoding: 8212 8212 183
GlifName: emdash
Width: 2048
VWidth: 0
GlyphClass: 2
Flags: W
LayerCount: 2
Fore
SplineSet
218.381835938 600 m 257
 2232.38183594 600 l 257
 2264.41113281 688 l 257
 250.411132812 688 l 257
 218.381835938 600 l 257
EndSplineSet
EndChar

StartChar: endash
Encoding: 8211 8211 184
GlifName: endash
Width: 2048
VWidth: 0
GlyphClass: 2
Flags: W
LayerCount: 2
Fore
SplineSet
829.381835938 600 m 257
 1655.38183594 600 l 257
 1683.77148438 678 l 257
 857.771484375 678 l 257
 829.381835938 600 l 257
EndSplineSet
EndChar

StartChar: eng
Encoding: 331 331 185
GlifName: eng
Width: 1024
VWidth: 0
GlyphClass: 2
Flags: W
LayerCount: 2
Fore
SplineSet
343 -348 m 257
 307.5 -408 l 257
 694.5 -408 l 257
 716 -348 l 257
 343 -348 l 257
604.330078125 990 m 257
 244 0 l 257
 308 0 l 257
 668 990 l 257
 604.330078125 990 l 257
1135 976 m 257
 632 -408 l 257
 695.5 -408 l 257
 1199.23535156 976 l 257
 1135 976 l 257
437.341796875 1023 m 257
 417 963 l 257
 1195 963 l 257
 1215.34179688 1023 l 257
 437.341796875 1023 l 257
EndSplineSet
EndChar

StartChar: equal
Encoding: 61 61 187
GlifName: equal
Width: 2048
VWidth: 0
GlyphClass: 2
Flags: W
LayerCount: 2
Fore
SplineSet
915.911132812 824 m 257
 879.514648438 724 l 257
 1695.51464844 724 l 257
 1731.91113281 824 l 257
 915.911132812 824 l 257
812.543945312 540 m 257
 779.786132812 450 l 257
 1595.78613281 450 l 257
 1628.54394531 540 l 257
 812.543945312 540 l 257
EndSplineSet
EndChar

StartChar: eth
Encoding: 240 240 188
GlifName: eth
Width: 2048
VWidth: 0
GlyphClass: 2
Flags: W
LayerCount: 2
Fore
SplineSet
1316.15429688 1550 m 257
 1856 0 l 257
 1904 0 l 257
 1372.15429688 1550 l 257
 1316.15429688 1550 l 257
556.341796875 1023 m 257
 534.8671875 964 l 257
 1526.8671875 964 l 257
 1548.34179688 1023 l 257
 556.341796875 1023 l 257
516.341796875 1023 m 257
 144 0 l 257
 204 0 l 257
 576.341796875 1023 l 257
 516.341796875 1023 l 257
211.474609375 59 m 257
 190 0 l 257
 1856 0 l 257
 1877.47460938 59 l 257
 211.474609375 59 l 257
1187.38183594 1416 m 257
 1163.72363281 1351 l 257
 1507.72363281 1351 l 257
 1531.38183594 1416 l 257
 1187.38183594 1416 l 257
EndSplineSet
EndChar

StartChar: exclam
Encoding: 33 33 189
GlifName: exclam
Width: 2048
VWidth: 0
GlyphClass: 2
Flags: W
LayerCount: 2
Fore
SplineSet
1017.66210938 76 m 257
 1084.66210938 76 l 257
 1120.33105469 174 l 257
 1053.33105469 174 l 257
 1017.66210938 76 l 257
1137.59179688 411 m 257
 1209.59179688 411 l 257
 1580.11328125 1429 l 257
 1508.11328125 1429 l 257
 1137.59179688 411 l 257
EndSplineSet
EndChar

StartChar: exclamdown
Encoding: 161 161 190
GlifName: exclamdown
Width: 2048
VWidth: 0
GlyphClass: 2
Flags: W
LayerCount: 2
Fore
SplineSet
1607.234375 1520 m 257
 1547.234375 1520 l 257
 1456.96972656 1272 l 257
 1516.96972656 1272 l 257
 1607.234375 1520 l 257
1426.70898438 1035 m 257
 1372.70898438 1035 l 257
 1002.1875 17 l 257
 1060.1875 17 l 257
 1426.70898438 1035 l 257
EndSplineSet
EndChar

StartChar: f
Encoding: 102 102 191
GlifName: f
Width: 2048
VWidth: 0
GlyphClass: 2
Flags: W
LayerCount: 2
Fore
SplineSet
1301.34179688 1023 m 257
 779.772460938 -410 l 257
 839.772460938 -410 l 257
 1361.34179688 1023 l 257
 1301.34179688 1023 l 257
1302.34179688 1023 m 257
 1280.50292969 963 l 257
 2190.50292969 963 l 257
 2212.34179688 1023 l 257
 1302.34179688 1023 l 257
375.154296875 462 m 257
 353.31640625 402 l 257
 1856.31640625 402 l 257
 1878.15429688 462 l 257
 375.154296875 462 l 257
EndSplineSet
EndChar

StartChar: five
Encoding: 53 53 192
GlifName: five
Width: 2048
VWidth: 0
GlyphClass: 2
Flags: W
LayerCount: 2
Fore
SplineSet
2268.20898438 899 m 257
 1962.11035156 58 l 257
 80.1103515625 58 l 257
 59 0 l 257
 2001 0 l 257
 2350.04785156 959 l 257
 469.047851562 959 l 257
 663.043945312 1492 l 257
 2554.04394531 1492 l 257
 2575.15429688 1550 l 257
 624.154296875 1550 l 257
 387.208984375 899 l 257
 2268.20898438 899 l 257
EndSplineSet
EndChar

StartChar: four
Encoding: 52 52 193
GlifName: four
Width: 2048
VWidth: 0
GlyphClass: 2
Flags: W
LayerCount: 2
Fore
SplineSet
367.981445312 761 m 257
 2172.98144531 761 l 257
 1898.54785156 7 l 257
 1955.54785156 7 l 257
 2517.15429688 1550 l 257
 2457.15429688 1550 l 257
 2191.81933594 821 l 257
 449.819335938 821 l 257
 715.154296875 1550 l 257
 655.154296875 1550 l 257
 367.981445312 761 l 257
EndSplineSet
EndChar

StartChar: g
Encoding: 103 103 194
GlifName: g
Width: 2048
VWidth: 0
GlyphClass: 2
Flags: W
LayerCount: 2
Fore
SplineSet
595.341796875 1023 m 257
 223 0 l 257
 283 0 l 257
 655.341796875 1023 l 257
 595.341796875 1023 l 257
635.341796875 1023 m 257
 613.139648438 962 l 257
 2153.13964844 962 l 257
 2175.34179688 1023 l 257
 635.341796875 1023 l 257
2137.34179688 1023 m 257
 1615.40820312 -411 l 257
 1675.40820312 -411 l 257
 2197.34179688 1023 l 257
 2137.34179688 1023 l 257
307.110351562 58 m 257
 286 0 l 257
 1767 0 l 257
 1788.11035156 58 l 257
 307.110351562 58 l 257
134.154296875 -354 m 257
 112.680664062 -413 l 257
 1625.68066406 -413 l 257
 1647.15429688 -354 l 257
 134.154296875 -354 l 257
EndSplineSet
EndChar

StartChar: germandbls
Encoding: 223 223 198
GlifName: germandbls
Width: 2048
VWidth: 0
GlyphClass: 2
Flags: W
LayerCount: 2
Fore
SplineSet
982.543945312 1084 m 257
 960.341796875 1023 l 257
 1211.34179688 1023 l 257
 1233.54394531 1084 l 257
 982.543945312 1084 l 257
1336.06152344 1547 m 257
 771.543945312 -4 l 257
 835.543945312 -4 l 257
 1400.06152344 1547 l 257
 1336.06152344 1547 l 257
1389.15429688 1550 m 257
 1366.58789062 1488 l 257
 1973.58789062 1488 l 257
 1996.15429688 1550 l 257
 1389.15429688 1550 l 257
1962.15429688 1550 m 257
 1770.34179688 1023 l 257
 1831.34179688 1023 l 257
 2023.15429688 1550 l 257
 1962.15429688 1550 l 257
1788.53613281 1062 m 257
 1550.53613281 1062 l 257
 1464.63964844 826 l 257
 1702.63964844 826 l 257
 1788.53613281 1062 l 257
1708.64648438 848 m 257
 1463.69433594 175 l 257
 1521.69433594 175 l 257
 1766.64648438 848 l 257
 1708.64648438 848 l 257
1185.0625 187 m 257
 1164.6796875 131 l 257
 1507.6796875 131 l 257
 1528.0625 187 l 257
 1185.0625 187 l 257
EndSplineSet
EndChar

StartChar: glyph094D
Encoding: 65536 -1 199
GlifName: glyph094D_
Width: 2048
VWidth: 0
GlyphClass: 2
Flags: W
LayerCount: 2
Fore
SplineSet
229.176757812 -16 m 257
 206.974609375 -77 l 257
 550.974609375 -77 l 257
 573.176757812 -16 l 257
 229.176757812 -16 l 257
524.158203125 -71 m 257
 888.860351562 -418 l 257
 937.787109375 -366 l 257
 573.540039062 -15 l 257
 524.158203125 -71 l 257
EndSplineSet
EndChar

StartChar: grave
Encoding: 96 96 200
GlifName: grave
Width: 2048
VWidth: 0
GlyphClass: 2
Flags: W
LayerCount: 2
Fore
SplineSet
1406.06542969 1286 m 257
 1406.71679688 1057 l 257
 1514.73535156 1112 l 257
 1505.71972656 1340 l 257
 1406.06542969 1286 l 257
EndSplineSet
EndChar

StartChar: gravecomb
Encoding: 768 768 201
GlifName: gravecomb
Width: 0
VWidth: 0
GlyphClass: 2
Flags: HW
AnchorPoint: "top" 592 1881 mark 0
AnchorPoint: "top" 592 1881 mark 0
LayerCount: 2
Fore
SplineSet
1251.20214844 877 m 257
 1300.95214844 673 l 257
 1380.60644531 727 l 257
 1331.22070312 932 l 257
 1251.20214844 877 l 257
EndSplineSet
EndChar

StartChar: greater
Encoding: 62 62 202
GlifName: greater
Width: 2048
VWidth: 0
GlyphClass: 2
Flags: W
LayerCount: 2
Fore
SplineSet
1663.02929688 632 m 257
 985.702148438 1013 l 257
 963.5 952 l 257
 1640.09863281 569 l 257
 1663.02929688 632 l 257
1663.02929688 632 m 257
 682.698242188 186 l 257
 659.404296875 122 l 257
 1640.09863281 569 l 257
 1663.02929688 632 l 257
EndSplineSet
EndChar

StartChar: guillemotleft
Encoding: 171 171 203
GlifName: guillemotleft
Width: 2048
VWidth: 0
GlyphClass: 2
Flags: W
LayerCount: 2
Fore
SplineSet
795.260742188 509 m 257
 781.793945312 472 l 257
 1322.52539062 757 l 257
 1332.35253906 784 l 257
 795.260742188 509 l 257
795.260742188 509 m 257
 781.793945312 472 l 257
 1022.40429688 122 l 257
 1044.23535156 160 l 257
 795.260742188 509 l 257
1219.8125 527 m 257
 1209.25683594 498 l 257
 1722.98828125 783 l 257
 1737.54785156 823 l 257
 1219.8125 527 l 257
1218.8125 527 m 257
 1207.89355469 497 l 257
 1437.40429688 122 l 257
 1464.23144531 149 l 257
 1218.8125 527 l 257
EndSplineSet
EndChar

StartChar: guillemotright
Encoding: 187 187 204
GlifName: guillemotright
Width: 2048
VWidth: 0
GlyphClass: 2
Flags: W
LayerCount: 2
Fore
SplineSet
1623.26074219 509 m 257
 1286.35253906 784 l 257
 1276.52539062 757 l 257
 1608.79394531 472 l 257
 1623.26074219 509 l 257
1623.26074219 509 m 257
 1120.23535156 160 l 257
 1114.40429688 122 l 257
 1608.79394531 472 l 257
 1623.26074219 509 l 257
1211.8125 527 m 257
 909.547851562 823 l 257
 894.98828125 783 l 257
 1202.25683594 498 l 257
 1211.8125 527 l 257
1212.8125 527 m 257
 692.231445312 149 l 257
 699.404296875 122 l 257
 1201.89355469 497 l 257
 1212.8125 527 l 257
EndSplineSet
EndChar

StartChar: guilsinglleft
Encoding: 8249 8249 205
GlifName: guilsinglleft
Width: 2048
VWidth: 0
GlyphClass: 2
Flags: W
LayerCount: 2
Fore
SplineSet
340.30859375 652 m 257
 310.098632812 569 l 257
 1265.31542969 946 l 257
 1289.70214844 1013 l 257
 340.30859375 652 l 257
340.30859375 652 m 257
 310.098632812 569 l 257
 959.404296875 122 l 257
 987.4296875 199 l 257
 340.30859375 652 l 257
EndSplineSet
EndChar

StartChar: guilsinglright
Encoding: 8250 8250 206
GlifName: guilsinglright
Width: 2048
VWidth: 0
GlyphClass: 2
Flags: W
LayerCount: 2
Fore
SplineSet
1151.02929688 632 m 257
 473.702148438 1013 l 257
 451.5 952 l 257
 1128.09863281 569 l 257
 1151.02929688 632 l 257
1151.02929688 632 m 257
 170.698242188 186 l 257
 147.404296875 122 l 257
 1128.09863281 569 l 257
 1151.02929688 632 l 257
EndSplineSet
EndChar

StartChar: h
Encoding: 104 104 207
GlifName: h
Width: 2048
VWidth: 0
GlyphClass: 2
Flags: W
AnchorPoint: "base" 800 -54 basechar 0
AnchorPoint: "top" 248 1646 basechar 0
LayerCount: 2
Fore
SplineSet
729.0546875 1525 m 257
 176.18359375 6 l 257
 235.18359375 6 l 257
 788.0546875 1525 l 257
 729.0546875 1525 l 257
588.161132812 1028 m 257
 566.323242188 968 l 257
 2179.32324219 968 l 257
 2201.16113281 1028 l 257
 588.161132812 1028 l 257
2189.16113281 1028 m 257
 1815 0 l 257
 1874 0 l 257
 2248.16113281 1028 l 257
 2189.16113281 1028 l 257
EndSplineSet
EndChar

StartChar: hbar
Encoding: 295 295 208
GlifName: hbar
Width: 2048
VWidth: 0
GlyphClass: 2
Flags: W
LayerCount: 2
Fore
SplineSet
802.877929688 1541 m 257
 244.18359375 6 l 257
 304.18359375 6 l 257
 862.877929688 1541 l 257
 802.877929688 1541 l 257
648.341796875 1023 m 257
 627.595703125 966 l 257
 2285.59570312 966 l 257
 2306.34179688 1023 l 257
 648.341796875 1023 l 257
2255.34179688 1023 m 257
 1883 0 l 257
 1942 0 l 257
 2314.34179688 1023 l 257
 2255.34179688 1023 l 257
626.11328125 1429 m 257
 604.275390625 1369 l 257
 1060.27539062 1369 l 257
 1082.11328125 1429 l 257
 626.11328125 1429 l 257
EndSplineSet
EndChar

StartChar: hungarumlaut
Encoding: 733 733 210
GlifName: hungarumlaut
Width: 2048
VWidth: 0
GlyphClass: 2
Flags: W
LayerCount: 2
Fore
SplineSet
836.404296875 122 m 257
 902.404296875 122 l 257
 992.668945312 370 l 257
 926.668945312 370 l 257
 836.404296875 122 l 257
1240.40429688 122 m 257
 1300.40429688 122 l 257
 1390.66894531 370 l 257
 1330.66894531 370 l 257
 1240.40429688 122 l 257
EndSplineSet
EndChar

StartChar: hyphen
Encoding: 45 45 211
GlifName: hyphen
Width: 2048
VWidth: 0
GlyphClass: 2
Flags: W
LayerCount: 2
Fore
SplineSet
899.627929688 793 m 257
 863.958984375 695 l 257
 1689.95898438 695 l 257
 1725.62792969 793 l 257
 899.627929688 793 l 257
EndSplineSet
EndChar

StartChar: i
Encoding: 105 105 212
GlifName: i
Width: 2048
VWidth: 0
GlyphClass: 2
Flags: W
AnchorPoint: "base" 788 -38 basechar 0
LayerCount: 2
Fore
SplineSet
1394.34179688 1023 m 257
 1040.92675781 52 l 257
 1100.92675781 52 l 257
 1454.34179688 1023 l 257
 1394.34179688 1023 l 257
162.837890625 60 m 257
 141 0 l 257
 1907 0 l 257
 1928.83789062 60 l 257
 162.837890625 60 l 257
1306.25 1292 m 257
 1263.30078125 1174 l 257
 1376.30078125 1174 l 257
 1419.25 1292 l 257
 1306.25 1292 l 257
563.341796875 1023 m 257
 541.139648438 962 l 257
 1389.13964844 962 l 257
 1411.34179688 1023 l 257
 563.341796875 1023 l 257
EndSplineSet
EndChar

StartChar: j
Encoding: 106 106 222
GlifName: j
Width: 2048
VWidth: 0
GlyphClass: 2
Flags: W
LayerCount: 2
Fore
SplineSet
2164.34179688 1023 m 257
 1642.40820312 -411 l 257
 1700.40820312 -411 l 257
 2222.34179688 1023 l 257
 2164.34179688 1023 l 257
71.337890625 -348 m 257
 49.1357421875 -409 l 257
 1663.13574219 -409 l 257
 1685.33789062 -348 l 257
 71.337890625 -348 l 257
195.81640625 -6 m 257
 60.4189453125 -378 l 257
 120.418945312 -378 l 257
 255.81640625 -6 l 257
 195.81640625 -6 l 257
2227.12792969 1201 m 257
 2205.65429688 1142 l 257
 2265.65429688 1142 l 257
 2287.12792969 1201 l 257
 2227.12792969 1201 l 257
EndSplineSet
EndChar

StartChar: k
Encoding: 107 107 224
GlifName: k
Width: 2048
VWidth: 0
GlyphClass: 2
Flags: W
AnchorPoint: "top" 220 1638 basechar 0
LayerCount: 2
Fore
SplineSet
646.694335938 1535 m 257
 89.8203125 5 l 257
 149.8203125 5 l 257
 706.694335938 1535 l 257
 646.694335938 1535 l 257
290.231445312 421 m 257
 265.1171875 352 l 257
 2166.34179688 1023 l 257
 2106.34179688 1023 l 257
 290.231445312 421 l 257
689.547851562 551 m 257
 631.896484375 508 l 257
 1899 0 l 257
 1960 0 l 257
 689.547851562 551 l 257
EndSplineSet
EndChar

StartChar: l
Encoding: 108 108 225
GlifName: l
Width: 2048
VWidth: 0
GlyphClass: 2
Flags: W
AnchorPoint: "top" 520 1654 basechar 0
LayerCount: 2
Fore
SplineSet
233.206054688 72 m 257
 207 0 l 257
 1841 0 l 257
 1867.20605469 72 l 257
 233.206054688 72 l 257
1571.24609375 1553 m 257
 1026.74609375 57 l 257
 1086.74609375 57 l 257
 1631.24609375 1553 l 257
 1571.24609375 1553 l 257
833.24609375 1553 m 257
 811.771484375 1494 l 257
 1558.77148438 1494 l 257
 1580.24609375 1553 l 257
 833.24609375 1553 l 257
EndSplineSet
EndChar

StartChar: lcaron
Encoding: 318 318 227
GlifName: lcaron
Width: 2048
VWidth: 0
GlyphClass: 2
Flags: W
LayerCount: 2
Fore
SplineSet
218.56640625 62 m 257
 196 0 l 257
 1854 0 l 257
 1876.56640625 62 l 257
 218.56640625 62 l 257
1567.06152344 1547 m 257
 1020.7421875 46 l 257
 1078.7421875 46 l 257
 1625.06152344 1547 l 257
 1567.06152344 1547 l 257
758.154296875 1550 m 257
 735.952148438 1489 l 257
 1559.95214844 1489 l 257
 1582.15429688 1550 l 257
 758.154296875 1550 l 257
1686.49902344 1496 m 257
 1602.05859375 1264 l 257
 1654.05859375 1264 l 257
 1738.49902344 1496 l 257
 1686.49902344 1496 l 257
EndSplineSet
EndChar

StartChar: less
Encoding: 60 60 229
GlifName: less
Width: 2048
VWidth: 0
GlyphClass: 2
Flags: W
LayerCount: 2
Fore
SplineSet
852.30859375 652 m 257
 822.098632812 569 l 257
 1777.31542969 946 l 257
 1801.70214844 1013 l 257
 852.30859375 652 l 257
852.30859375 652 m 257
 822.098632812 569 l 257
 1471.40429688 122 l 257
 1499.4296875 199 l 257
 852.30859375 652 l 257
EndSplineSet
EndChar

StartChar: logicalnot
Encoding: 172 172 230
GlifName: logicalnot
Width: 2048
VWidth: 0
GlyphClass: 2
Flags: W
LayerCount: 2
Fore
SplineSet
1581.3125 935 m 257
 1473.94140625 640 l 257
 1526.94140625 640 l 257
 1634.3125 935 l 257
 1581.3125 935 l 257
1094.3125 935 m 257
 1072.47363281 875 l 257
 1606.47363281 875 l 257
 1628.3125 935 l 257
 1094.3125 935 l 257
EndSplineSet
EndChar

StartChar: lslash
Encoding: 322 322 231
GlifName: lslash
Width: 2048
VWidth: 0
GlyphClass: 2
Flags: W
LayerCount: 2
Fore
SplineSet
216.837890625 60 m 257
 195 0 l 257
 1853 0 l 257
 1874.83789062 60 l 257
 216.837890625 60 l 257
1629.24609375 1553 m 257
 1072.0078125 22 l 257
 1132.0078125 22 l 257
 1689.24609375 1553 l 257
 1629.24609375 1553 l 257
821.24609375 1553 m 257
 799.407226562 1493 l 257
 1633.40722656 1493 l 257
 1655.24609375 1553 l 257
 821.24609375 1553 l 257
1705.16503906 1039 m 257
 1003.50683594 702 l 257
 1105.50683594 702 l 257
 1807.16503906 1039 l 257
 1705.16503906 1039 l 257
EndSplineSet
EndChar

StartChar: m
Encoding: 109 109 232
GlifName: m
Width: 2048
VWidth: 0
GlyphClass: 2
Flags: W
AnchorPoint: "top" 508 1110 basechar 0
LayerCount: 2
Fore
SplineSet
695.422851562 993 m 257
 334 0 l 257
 394 0 l 257
 755.422851562 993 l 257
 695.422851562 993 l 257
1383.77929688 972 m 257
 1030 0 l 257
 1090 0 l 257
 1443.77929688 972 l 257
 1383.77929688 972 l 257
2283.23535156 976 m 257
 1928 0 l 257
 1988 0 l 257
 2343.23535156 976 l 257
 2283.23535156 976 l 257
432.341796875 1023 m 257
 411.595703125 966 l 257
 2339.59570312 966 l 257
 2360.34179688 1023 l 257
 432.341796875 1023 l 257
EndSplineSet
EndChar

StartChar: macron
Encoding: 175 175 233
GlifName: macron
Width: 2048
VWidth: 0
GlyphClass: 2
Flags: W
LayerCount: 2
Fore
SplineSet
1107.88574219 1019 m 257
 1092.59863281 977 l 257
 1652.59863281 977 l 257
 1667.88574219 1019 l 257
 1107.88574219 1019 l 257
EndSplineSet
EndChar

StartChar: mu
Encoding: 181 181 235
GlifName: mu
Width: 2048
VWidth: 0
GlyphClass: 2
Flags: W
LayerCount: 2
Fore
SplineSet
1878.3125 935 m 257
 1538 0 l 257
 1663 0 l 257
 2003.3125 935 l 257
 1878.3125 935 l 257
451.837890625 60 m 257
 430 0 l 257
 1600 0 l 257
 1621.83789062 60 l 257
 451.837890625 60 l 257
673.3125 935 m 257
 176.493164062 -430 l 257
 305.493164062 -430 l 257
 802.3125 935 l 257
 673.3125 935 l 257
EndSplineSet
EndChar

StartChar: multiply
Encoding: 215 215 236
GlifName: multiply
Width: 2048
VWidth: 0
GlyphClass: 2
Flags: W
LayerCount: 2
Fore
SplineSet
199.37109375 295 m 257
 295.37109375 295 l 257
 2429.53222656 1323 l 257
 2347.53222656 1323 l 257
 199.37109375 295 l 257
571.168945312 1322 m 257
 1974.82324219 288 l 257
 2062.82324219 288 l 257
 655.168945312 1322 l 257
 571.168945312 1322 l 257
EndSplineSet
EndChar

StartChar: n
Encoding: 110 110 237
GlifName: n
Width: 2048
VWidth: 0
GlyphClass: 2
Flags: W
AnchorPoint: "top" 492 1158 basechar 0
LayerCount: 2
Fore
SplineSet
862.330078125 990 m 257
 502 0 l 257
 563 0 l 257
 923.330078125 990 l 257
 862.330078125 990 l 257
2221.23535156 976 m 257
 1866 0 l 257
 1926 0 l 257
 2281.23535156 976 l 257
 2221.23535156 976 l 257
495.797851562 1027 m 257
 473.958984375 967 l 257
 2275.95898438 967 l 257
 2297.79785156 1027 l 257
 495.797851562 1027 l 257
EndSplineSet
EndChar

StartChar: nine
Encoding: 57 57 240
GlifName: nine
Width: 2048
VWidth: 0
GlyphClass: 2
Flags: W
LayerCount: 2
Fore
SplineSet
2221.25292969 759 m 257
 1966.47460938 59 l 257
 100.474609375 59 l 257
 79 0 l 257
 2001 0 l 257
 2566.24609375 1553 l 257
 622.24609375 1553 l 257
 617.877929688 1541 l 257
 333.252929688 759 l 257
 2221.25292969 759 l 257
2239.72753906 818 m 257
 414.727539062 818 l 257
 661.135742188 1495 l 257
 2486.13574219 1495 l 257
 2239.72753906 818 l 257
EndSplineSet
EndChar

StartChar: numbersign
Encoding: 35 35 242
GlifName: numbersign
Width: 2048
VWidth: 0
GlyphClass: 2
Flags: W
LayerCount: 2
Fore
SplineSet
1171.94042969 1184 m 257
 777.033203125 99 l 257
 836.033203125 99 l 257
 1230.94042969 1184 l 257
 1171.94042969 1184 l 257
1669.85253906 1192 m 257
 1270.57714844 95 l 257
 1341.57714844 95 l 257
 1740.85253906 1192 l 257
 1669.85253906 1192 l 257
979.150390625 995 m 257
 958.040039062 937 l 257
 1759.04003906 937 l 257
 1780.15039062 995 l 257
 979.150390625 995 l 257
800.4375 493 m 257
 772.775390625 417 l 257
 1582.77539062 417 l 257
 1610.4375 493 l 257
 800.4375 493 l 257
EndSplineSet
EndChar

StartChar: o
Encoding: 111 111 243
GlifName: o
Width: 2048
VWidth: 0
GlyphClass: 2
Flags: W
AnchorPoint: "base" 536 -38 basechar 0
AnchorPoint: "top" 504 1158 basechar 0
LayerCount: 2
Fore
SplineSet
476.341796875 1023 m 257
 104 0 l 257
 160 0 l 257
 532.341796875 1023 l 257
 476.341796875 1023 l 257
2256.34179688 1023 m 257
 1884 0 l 257
 1946 0 l 257
 2318.34179688 1023 l 257
 2256.34179688 1023 l 257
524.341796875 1023 m 257
 503.958984375 967 l 257
 2240.95898438 967 l 257
 2261.34179688 1023 l 257
 524.341796875 1023 l 257
172.56640625 62 m 257
 150 0 l 257
 1892 0 l 257
 1914.56640625 62 l 257
 172.56640625 62 l 257
EndSplineSet
EndChar

StartChar: oe
Encoding: 339 339 248
GlifName: oe
Width: 2048
VWidth: 0
GlyphClass: 2
Flags: W
LayerCount: 2
Fore
SplineSet
1283.16894531 506 m 257
 1261.33105469 446 l 257
 2073.33105469 446 l 257
 2095.16894531 506 l 257
 1283.16894531 506 l 257
2258.34179688 1023 m 257
 2047.96679688 445 l 257
 2106.96679688 445 l 257
 2317.34179688 1023 l 257
 2258.34179688 1023 l 257
465.341796875 1023 m 257
 93 0 l 257
 152 0 l 257
 524.341796875 1023 l 257
 465.341796875 1023 l 257
1432.34179688 1023 m 257
 1060 0 l 257
 1121 0 l 257
 1493.34179688 1023 l 257
 1432.34179688 1023 l 257
520.341796875 1023 m 257
 498.8671875 964 l 257
 2296.8671875 964 l 257
 2318.34179688 1023 l 257
 520.341796875 1023 l 257
161.56640625 62 m 257
 139 0 l 257
 1955 0 l 257
 1977.56640625 62 l 257
 161.56640625 62 l 257
EndSplineSet
EndChar

StartChar: ogonek
Encoding: 731 731 249
GlifName: ogonek
Width: 2048
VWidth: 0
GlyphClass: 2
Flags: W
LayerCount: 2
Fore
SplineSet
643.80859375 -300 m 257
 621.970703125 -360 l 257
 1162.97070312 -360 l 257
 1184.80859375 -300 l 257
 643.80859375 -300 l 257
771.5625 51 m 257
 621.970703125 -360 l 257
 681.970703125 -360 l 257
 831.5625 51 l 257
 771.5625 51 l 257
771.5625 51 m 257
 750.087890625 -8 l 257
 1292.08789062 -8 l 257
 1313.5625 51 l 257
 771.5625 51 l 257
EndSplineSet
EndChar

StartChar: one
Encoding: 49 49 253
GlifName: one
Width: 2048
VWidth: 0
GlyphClass: 2
Flags: W
LayerCount: 2
Fore
SplineSet
1054 0 m 257
 1114 0 l 257
 1678.15429688 1550 l 257
 1618.15429688 1550 l 257
 1054 0 l 257
1618.15429688 1550 m 257
 1453.02148438 1426 l 257
 1494.83007812 1398 l 257
 1678.15429688 1550 l 257
 1618.15429688 1550 l 257
EndSplineSet
EndChar

StartChar: onehalf
Encoding: 189 189 254
GlifName: onehalf
Width: 2048
VWidth: 0
GlyphClass: 2
Flags: W
LayerCount: 2
Fore
SplineSet
1931.67578125 1480 m 257
 100.639648438 10 l 257
 203.639648438 10 l 257
 2034.67578125 1480 l 257
 1931.67578125 1480 l 257
667.158203125 1017 m 257
 731.158203125 1017 l 257
 925.154296875 1550 l 257
 861.154296875 1550 l 257
 667.158203125 1017 l 257
861.154296875 1550 m 257
 718.8671875 1508 l 257
 769.227539062 1498 l 257
 925.154296875 1550 l 257
 861.154296875 1550 l 257
1540.75390625 623 m 257
 1830.75390625 623 l 257
 1742.67285156 381 l 257
 1455.67285156 381 l 257
 1317 0 l 257
 1622 0 l 257
 1631.09960938 25 l 257
 1349.09960938 25 l 257
 1469.57324219 356 l 257
 1756.57324219 356 l 257
 1862.85253906 648 l 257
 1549.85253906 648 l 257
 1540.75390625 623 l 257
EndSplineSet
EndChar

StartChar: onequarter
Encoding: 188 188 255
GlifName: onequarter
Width: 2048
VWidth: 0
GlyphClass: 2
Flags: W
LayerCount: 2
Fore
SplineSet
2100.67578125 1480 m 257
 82.6396484375 10 l 257
 185.639648438 10 l 257
 2203.67578125 1480 l 257
 2100.67578125 1480 l 257
766.348632812 1045 m 257
 800.348632812 1045 l 257
 984.154296875 1550 l 257
 950.154296875 1550 l 257
 766.348632812 1045 l 257
950.154296875 1550 m 257
 805.940429688 1456 l 257
 807.844726562 1442 l 257
 983.154296875 1550 l 257
 950.154296875 1550 l 257
1601.94433594 379 m 257
 1940.94433594 379 l 257
 1805.54785156 7 l 257
 1830.54785156 7 l 257
 2107.52929688 768 l 257
 2081.52929688 768 l 257
 1950.86425781 409 l 257
 1638.86425781 409 l 257
 1770.25683594 770 l 257
 1744.25683594 770 l 257
 1601.94433594 379 l 257
EndSplineSet
EndChar

StartChar: ordfeminine
Encoding: 170 170 256
GlifName: ordfeminine
Width: 2048
VWidth: 0
GlyphClass: 2
Flags: W
LayerCount: 2
Fore
SplineSet
1173.07714844 1319 m 257
 1148.69042969 1252 l 257
 1797.69042969 1252 l 257
 1822.07714844 1319 l 257
 1173.07714844 1319 l 257
1784.44042969 1320 m 257
 1411.73535156 296 l 257
 1488.73535156 296 l 257
 1861.44042969 1320 l 257
 1784.44042969 1320 l 257
1021.75292969 895 m 257
 999.1875 833 l 257
 1623.1875 833 l 257
 1645.75292969 895 l 257
 1021.75292969 895 l 257
1014.38183594 872 m 257
 804.006835938 294 l 257
 875.006835938 294 l 257
 1085.38183594 872 l 257
 1014.38183594 872 l 257
840.3046875 369 m 257
 813.006835938 294 l 257
 1477.00683594 294 l 257
 1504.3046875 369 l 257
 840.3046875 369 l 257
614.385742188 67 m 257
 591.456054688 4 l 257
 1459.45605469 4 l 257
 1482.38574219 67 l 257
 614.385742188 67 l 257
EndSplineSet
EndChar

StartChar: ordmasculine
Encoding: 186 186 257
GlifName: ordmasculine
Width: 2048
VWidth: 0
GlyphClass: 2
Flags: W
LayerCount: 2
Fore
SplineSet
992.341796875 1023 m 257
 620 0 l 257
 679 0 l 257
 1051.34179688 1023 l 257
 992.341796875 1023 l 257
1749.34179688 1023 m 257
 1377 0 l 257
 1438 0 l 257
 1810.34179688 1023 l 257
 1749.34179688 1023 l 257
1054.79785156 1027 m 257
 1032.95898438 967 l 257
 1733.95898438 967 l 257
 1755.79785156 1027 l 257
 1054.79785156 1027 l 257
688.56640625 62 m 257
 666 0 l 257
 1385 0 l 257
 1407.56640625 62 l 257
 688.56640625 62 l 257
486.522460938 -70 m 257
 462.5 -136 l 257
 1486.5 -136 l 257
 1510.52246094 -70 l 257
 486.522460938 -70 l 257
EndSplineSet
EndChar

StartChar: oslash
Encoding: 248 248 258
GlifName: oslash
Width: 2048
VWidth: 0
GlyphClass: 2
Flags: W
LayerCount: 2
Fore
SplineSet
2337.46679688 1125 m 257
 64.8974609375 -36 l 257
 92.5224609375 -70 l 257
 2360.54003906 1073 l 257
 2337.46679688 1125 l 257
484.341796875 1023 m 257
 112 0 l 257
 172 0 l 257
 544.341796875 1023 l 257
 484.341796875 1023 l 257
2240.34179688 1023 m 257
 1868 0 l 257
 1928 0 l 257
 2300.34179688 1023 l 257
 2240.34179688 1023 l 257
526.341796875 1023 m 257
 504.502929688 963 l 257
 2250.50292969 963 l 257
 2272.34179688 1023 l 257
 526.341796875 1023 l 257
178.9296875 63 m 257
 156 0 l 257
 1904 0 l 257
 1926.9296875 63 l 257
 178.9296875 63 l 257
EndSplineSet
EndChar

StartChar: p
Encoding: 112 112 260
GlifName: p
Width: 2048
VWidth: 0
GlyphClass: 2
Flags: W
AnchorPoint: "top" 268 1322 basechar 0
LayerCount: 2
Fore
SplineSet
619.848632812 1181 m 257
 42.228515625 -406 l 257
 102.228515625 -406 l 257
 679.848632812 1181 l 257
 619.848632812 1181 l 257
606.341796875 1023 m 257
 584.8671875 964 l 257
 2194.8671875 964 l 257
 2216.34179688 1023 l 257
 606.341796875 1023 l 257
258.202148438 61 m 257
 236 0 l 257
 1856 0 l 257
 1878.20214844 61 l 257
 258.202148438 61 l 257
2168.34179688 1023 m 257
 1796 0 l 257
 1854 0 l 257
 2226.34179688 1023 l 257
 2168.34179688 1023 l 257
EndSplineSet
EndChar

StartChar: paragraph
Encoding: 182 182 261
GlifName: paragraph
Width: 2048
VWidth: 0
GlyphClass: 2
Flags: W
LayerCount: 2
Fore
SplineSet
981.985351562 1044 m 257
 960.510742188 985 l 257
 1524.51074219 985 l 257
 1545.98535156 1044 l 257
 981.985351562 1044 l 257
1166.15429688 1550 m 257
 965.970703125 1000 l 257
 1027.97070312 1000 l 257
 1228.15429688 1550 l 257
 1166.15429688 1550 l 257
1166.15429688 1550 m 257
 1145.40722656 1493 l 257
 1965.40722656 1493 l 257
 1986.15429688 1550 l 257
 1166.15429688 1550 l 257
1716.15429688 1550 m 257
 1152 0 l 257
 1216 0 l 257
 1780.15429688 1550 l 257
 1716.15429688 1550 l 257
1948.15429688 1550 m 257
 1384 0 l 257
 1446 0 l 257
 2010.15429688 1550 l 257
 1948.15429688 1550 l 257
EndSplineSet
EndChar

StartChar: parenleft
Encoding: 40 40 262
GlifName: parenleft
Width: 2048
VWidth: 0
GlyphClass: 2
Flags: W
LayerCount: 2
Fore
SplineSet
1201.43359375 1026 m 257
 893.150390625 179 l 257
 1021.15039062 179 l 257
 1329.43359375 1026 l 257
 1201.43359375 1026 l 257
1787.45507812 1636 m 257
 1201.43359375 1026 l 257
 1329.43359375 1026 l 257
 1814.36328125 1633 l 257
 1787.45507812 1636 l 257
893.150390625 179 m 257
 1053.53320312 -309 l 257
 1081.53320312 -309 l 257
 1021.15039062 179 l 257
 893.150390625 179 l 257
EndSplineSet
EndChar

StartChar: parenright
Encoding: 41 41 263
GlifName: parenright
Width: 2048
VWidth: 0
GlyphClass: 2
Flags: W
LayerCount: 2
Fore
SplineSet
1435.43359375 1026 m 257
 1127.15039062 179 l 257
 1255.15039062 179 l 257
 1563.43359375 1026 l 257
 1435.43359375 1026 l 257
1453.09179688 1635 m 257
 1435.43359375 1026 l 257
 1563.43359375 1026 l 257
 1491.09179688 1635 l 257
 1453.09179688 1635 l 257
1127.15039062 179 m 257
 745.533203125 -309 l 257
 773.533203125 -309 l 257
 1255.15039062 179 l 257
 1127.15039062 179 l 257
EndSplineSet
EndChar

StartChar: percent
Encoding: 37 37 264
GlifName: percent
Width: 2048
VWidth: 0
GlyphClass: 2
Flags: W
LayerCount: 2
Fore
SplineSet
795.602539062 444 m 257
 814.775390625 417 l 257
 1692.07714844 775 l 257
 1682.54003906 801 l 257
 795.602539062 444 l 257
1157.83789062 1148 m 257
 1032.26855469 803 l 257
 1063.26855469 803 l 257
 1188.83789062 1148 l 257
 1157.83789062 1148 l 257
1159.29394531 1152 m 257
 1149.83007812 1126 l 257
 1496.83007812 1126 l 257
 1506.29394531 1152 l 257
 1159.29394531 1152 l 257
1040.63964844 826 m 257
 1027.17285156 789 l 257
 1371.17285156 789 l 257
 1384.63964844 826 l 257
 1040.63964844 826 l 257
1470.29394531 1152 m 257
 1338.90039062 791 l 257
 1374.90039062 791 l 257
 1506.29394531 1152 l 257
 1470.29394531 1152 l 257
1225.69140625 436 m 257
 1101.21289062 94 l 257
 1144.21289062 94 l 257
 1268.69140625 436 l 257
 1225.69140625 436 l 257
1227.14648438 440 m 257
 1211.49609375 397 l 257
 1558.49609375 397 l 257
 1574.14648438 440 l 257
 1227.14648438 440 l 257
1106.67285156 109 m 257
 1095.02539062 77 l 257
 1439.02539062 77 l 257
 1450.67285156 109 l 257
 1106.67285156 109 l 257
1540.14648438 440 m 257
 1408.75390625 79 l 257
 1442.75390625 79 l 257
 1574.14648438 440 l 257
 1540.14648438 440 l 257
EndSplineSet
EndChar

StartChar: period
Encoding: 46 46 265
GlifName: period
Width: 2048
VWidth: 0
GlyphClass: 2
Flags: W
LayerCount: 2
Fore
SplineSet
993.12890625 113 m 257
 952 0 l 257
 1096 0 l 257
 1137.12890625 113 l 257
 993.12890625 113 l 257
EndSplineSet
EndChar

StartChar: periodcentered
Encoding: 183 183 266
GlifName: periodcentered
Width: 2048
VWidth: 0
GlyphClass: 2
Flags: W
LayerCount: 2
Fore
SplineSet
1360.35253906 1056 m 257
 1323.59179688 955 l 257
 1419.59179688 955 l 257
 1456.35253906 1056 l 257
 1360.35253906 1056 l 257
EndSplineSet
EndChar

StartChar: perthousand
Encoding: 8240 8240 267
GlifName: perthousand
Width: 2048
VWidth: 0
GlyphClass: 2
Flags: W
LayerCount: 2
Fore
SplineSet
1332.69140625 436 m 257
 1214.03710938 110 l 257
 1292.03710938 110 l 257
 1410.69140625 436 l 257
 1332.69140625 436 l 257
1334.14648438 440 m 257
 1299.56933594 345 l 257
 1645.56933594 345 l 257
 1680.14648438 440 l 257
 1334.14648438 440 l 257
1231.87109375 159 m 257
 1202.02539062 77 l 257
 1546.02539062 77 l 257
 1575.87109375 159 l 257
 1231.87109375 159 l 257
1588.14648438 440 m 257
 1456.75390625 79 l 257
 1548.75390625 79 l 257
 1680.14648438 440 l 257
 1588.14648438 440 l 257
717.9921875 522 m 257
 707.216796875 377 l 257
 1654.60253906 716 l 257
 1663.01464844 860 l 257
 717.9921875 522 l 257
1085.83789062 1148 m 257
 967.18359375 822 l 257
 1045.18359375 822 l 257
 1163.83789062 1148 l 257
 1085.83789062 1148 l 257
1087.29394531 1152 m 257
 1052.71679688 1057 l 257
 1398.71679688 1057 l 257
 1433.29394531 1152 l 257
 1087.29394531 1152 l 257
985.018554688 871 m 257
 955.172851562 789 l 257
 1299.17285156 789 l 257
 1329.01855469 871 l 257
 985.018554688 871 l 257
1341.29394531 1152 m 257
 1209.90039062 791 l 257
 1301.90039062 791 l 257
 1433.29394531 1152 l 257
 1341.29394531 1152 l 257
930.69140625 436 m 257
 812.037109375 110 l 257
 890.037109375 110 l 257
 1008.69140625 436 l 257
 930.69140625 436 l 257
932.146484375 440 m 257
 897.569335938 345 l 257
 1245.56933594 345 l 257
 1280.14648438 440 l 257
 932.146484375 440 l 257
829.87109375 159 m 257
 800.025390625 77 l 257
 1144.02539062 77 l 257
 1173.87109375 159 l 257
 829.87109375 159 l 257
1188.14648438 440 m 257
 1056.75390625 79 l 257
 1148.75390625 79 l 257
 1280.14648438 440 l 257
 1188.14648438 440 l 257
EndSplineSet
EndChar

StartChar: plus
Encoding: 43 43 268
GlifName: plus
Width: 2048
VWidth: 0
GlyphClass: 2
Flags: W
LayerCount: 2
Fore
SplineSet
1390.40722656 1221 m 257
 1006.0546875 165 l 257
 1116.0546875 165 l 257
 1500.40722656 1221 l 257
 1390.40722656 1221 l 257
862.720703125 796 m 257
 825.231445312 693 l 257
 1727.23144531 693 l 257
 1764.72070312 796 l 257
 862.720703125 796 l 257
EndSplineSet
EndChar

StartChar: plusminus
Encoding: 177 177 269
GlifName: plusminus
Width: 2048
VWidth: 0
GlyphClass: 2
Flags: W
LayerCount: 2
Fore
SplineSet
651.037109375 110 m 257
 628.470703125 48 l 257
 1454.47070312 48 l 257
 1477.03710938 110 l 257
 651.037109375 110 l 257
1422.40722656 1221 m 257
 1060.98535156 228 l 257
 1121.98535156 228 l 257
 1483.40722656 1221 l 257
 1422.40722656 1221 l 257
843.793945312 744 m 257
 822.68359375 686 l 257
 1724.68359375 686 l 257
 1745.79394531 744 l 257
 843.793945312 744 l 257
EndSplineSet
EndChar

StartChar: q
Encoding: 113 113 270
GlifName: q
Width: 2048
VWidth: 0
GlyphClass: 2
Flags: W
LayerCount: 2
Fore
SplineSet
1982.39648438 1188 m 257
 1400.77246094 -410 l 257
 1460.77246094 -410 l 257
 2042.39648438 1188 l 257
 1982.39648438 1188 l 257
518.341796875 1023 m 257
 495.775390625 961 l 257
 1943.77539062 961 l 257
 1966.34179688 1023 l 257
 518.341796875 1023 l 257
172.74609375 57 m 257
 152 0 l 257
 1568 0 l 257
 1588.74609375 57 l 257
 172.74609375 57 l 257
510.341796875 1023 m 257
 138 0 l 257
 196 0 l 257
 568.341796875 1023 l 257
 510.341796875 1023 l 257
1428.79394531 -344 m 257
 1404.77246094 -410 l 257
 1760.77246094 -410 l 257
 1784.79394531 -344 l 257
 1428.79394531 -344 l 257
EndSplineSet
EndChar

StartChar: question
Encoding: 63 63 271
GlifName: question
Width: 2048
VWidth: 0
GlyphClass: 2
Flags: W
LayerCount: 2
Fore
SplineSet
928.772460938 134 m 257
 880 0 l 257
 992 0 l 257
 1040.77246094 134 l 257
 928.772460938 134 l 257
1256.87109375 1519 m 257
 1223.02148438 1426 l 257
 1859.02148438 1426 l 257
 1892.87109375 1519 l 257
 1256.87109375 1519 l 257
1809.05078125 1514 m 257
 1609.59570312 966 l 257
 1695.59570312 966 l 257
 1895.05078125 1514 l 257
 1809.05078125 1514 l 257
1249.4296875 1015 m 257
 1225.04394531 948 l 257
 1689.04394531 948 l 257
 1713.4296875 1015 l 257
 1249.4296875 1015 l 257
1247.97363281 1011 m 257
 1022.67675781 392 l 257
 1118.67675781 392 l 257
 1343.97363281 1011 l 257
 1247.97363281 1011 l 257
EndSplineSet
EndChar

StartChar: questiondown
Encoding: 191 191 272
GlifName: questiondown
Width: 2048
VWidth: 0
GlyphClass: 2
Flags: W
LayerCount: 2
Fore
SplineSet
1631.33398438 1273 m 257
 1720.87109375 1519 l 257
 1662.87109375 1519 l 257
 1572.96972656 1272 l 257
 1631.33398438 1273 l 257
1344 0 m 257
 1366.20214844 61 l 257
 730.202148438 61 l 257
 708 0 l 257
 1344 0 l 257
765.8203125 5 m 257
 965.275390625 553 l 257
 905.275390625 553 l 257
 705.8203125 5 l 257
 765.8203125 5 l 257
1351.44140625 504 m 257
 1374.00683594 566 l 257
 910.006835938 566 l 257
 887.44140625 504 l 257
 1351.44140625 504 l 257
1352.89648438 508 m 257
 1578.19433594 1127 l 257
 1520.19433594 1127 l 257
 1294.89648438 508 l 257
 1352.89648438 508 l 257
EndSplineSet
EndChar

StartChar: quotedbl
Encoding: 34 34 273
GlifName: quotedbl
Width: 2048
VWidth: 0
GlyphClass: 2
Flags: W
LayerCount: 2
Fore
SplineSet
1274.625 1326 m 257
 1340.625 1326 l 257
 1430.88867188 1574 l 257
 1364.88867188 1574 l 257
 1274.625 1326 l 257
1678.625 1326 m 257
 1738.625 1326 l 257
 1828.88867188 1574 l 257
 1768.88867188 1574 l 257
 1678.625 1326 l 257
EndSplineSet
EndChar

StartChar: quotedblbase
Encoding: 8222 8222 274
GlifName: quotedblbase
Width: 2048
VWidth: 0
GlyphClass: 2
Flags: W
LayerCount: 2
Fore
SplineSet
937.860351562 126 m 257
 894.912109375 8 l 257
 1003.91210938 8 l 257
 1046.86035156 126 l 257
 937.860351562 126 l 257
894.912109375 8 m 257
 779.051757812 -118 l 257
 829.047851562 -129 l 257
 1003.91210938 8 l 257
 894.912109375 8 l 257
1162.86035156 126 m 257
 1119.91210938 8 l 257
 1228.91210938 8 l 257
 1271.86035156 126 l 257
 1162.86035156 126 l 257
1119.91210938 8 m 257
 1004.05175781 -118 l 257
 1054.04785156 -129 l 257
 1228.91210938 8 l 257
 1119.91210938 8 l 257
EndSplineSet
EndChar

StartChar: quotedblleft
Encoding: 8220 8220 275
GlifName: quotedblleft
Width: 2048
VWidth: 0
GlyphClass: 2
Flags: W
LayerCount: 2
Fore
SplineSet
1707.83398438 1953 m 257
 1749.32617188 2067 l 257
 1625.32617188 2067 l 257
 1583.83398438 1953 l 257
 1707.83398438 1953 l 257
1677.39648438 2004 m 257
 1787.35253906 2144 l 257
 1726.27148438 2174 l 257
 1627.0546875 2069 l 257
 1677.39648438 2004 l 257
1875.83398438 1953 m 257
 1917.32617188 2067 l 257
 1793.32617188 2067 l 257
 1751.83398438 1953 l 257
 1875.83398438 1953 l 257
1845.39648438 2004 m 257
 1955.35253906 2144 l 257
 1894.27148438 2174 l 257
 1795.0546875 2069 l 257
 1845.39648438 2004 l 257
EndSplineSet
EndChar

StartChar: quotedblright
Encoding: 8221 8221 276
GlifName: quotedblright
Width: 2048
VWidth: 0
GlyphClass: 2
Flags: W
LayerCount: 2
Fore
SplineSet
1837.27148438 2174 m 257
 1795.77832031 2060 l 257
 1919.77832031 2060 l 257
 1961.27148438 2174 l 257
 1837.27148438 2174 l 257
1868.70898438 2123 m 257
 1758.75292969 1983 l 257
 1818.83398438 1953 l 257
 1918.05078125 2058 l 257
 1868.70898438 2123 l 257
1678.27148438 2174 m 257
 1636.77832031 2060 l 257
 1760.77832031 2060 l 257
 1802.27148438 2174 l 257
 1678.27148438 2174 l 257
1709.70898438 2123 m 257
 1599.75292969 1983 l 257
 1659.83398438 1953 l 257
 1759.05078125 2058 l 257
 1709.70898438 2123 l 257
EndSplineSet
EndChar

StartChar: quoteleft
Encoding: 8216 8216 277
GlifName: quoteleft
Width: 2048
VWidth: 0
GlyphClass: 2
Flags: W
LayerCount: 2
Fore
SplineSet
1770.27539062 1913 m 257
 1830.33007812 2078 l 257
 1699.33007812 2078 l 257
 1640.73046875 1917 l 257
 1770.27539062 1913 l 257
1790.96289062 2066 m 257
 1933.03222656 2275 l 257
 1866.671875 2285 l 257
 1696.59472656 2054 l 257
 1790.96289062 2066 l 257
EndSplineSet
EndChar

StartChar: quoteright
Encoding: 8217 8217 278
GlifName: quoteright
Width: 2048
VWidth: 0
GlyphClass: 2
Flags: W
LayerCount: 2
Fore
SplineSet
1755.08789062 2168 m 257
 1714.32324219 2056 l 257
 1830.32324219 2056 l 257
 1871.08789062 2168 l 257
 1755.08789062 2168 l 257
1803.89648438 2140 m 257
 1681.37109375 1927 l 257
 1718.9921875 1882 l 257
 1830.32324219 2056 l 257
 1803.89648438 2140 l 257
EndSplineSet
EndChar

StartChar: quotesinglbase
Encoding: 8218 8218 279
GlifName: quotesinglbase
Width: 2048
VWidth: 0
GlyphClass: 2
Flags: W
LayerCount: 2
Fore
SplineSet
1049.86035156 126 m 257
 1006.91210938 8 l 257
 1116.91210938 8 l 257
 1159.86035156 126 l 257
 1049.86035156 126 l 257
1006.91210938 8 m 257
 891.051757812 -118 l 257
 941.047851562 -129 l 257
 1116.91210938 8 l 257
 1006.91210938 8 l 257
EndSplineSet
EndChar

StartChar: quotesingle
Encoding: 39 39 280
GlifName: quotesingle
Width: 2048
VWidth: 0
GlyphClass: 2
Flags: W
LayerCount: 2
Fore
SplineSet
1536.49902344 1496 m 257
 1471.34863281 1317 l 257
 1535.34863281 1317 l 257
 1600.49902344 1496 l 257
 1536.49902344 1496 l 257
EndSplineSet
EndChar

StartChar: r
Encoding: 114 114 281
GlifName: r
Width: 2048
VWidth: 0
GlyphClass: 2
Flags: W
AnchorPoint: "base" 500 -70 basechar 0
AnchorPoint: "top" 504 1174 basechar 0
LayerCount: 2
Fore
SplineSet
518.341796875 1023 m 257
 495.775390625 961 l 257
 2251.77539062 961 l 257
 2274.34179688 1023 l 257
 518.341796875 1023 l 257
1231.96679688 989 m 257
 872 0 l 257
 932 0 l 257
 1291.96679688 989 l 257
 1231.96679688 989 l 257
2197.23535156 976 m 257
 2078.58105469 650 l 257
 2138.58105469 650 l 257
 2257.23535156 976 l 257
 2197.23535156 976 l 257
EndSplineSet
EndChar

StartChar: registered
Encoding: 174 174 284
GlifName: registered
Width: 2048
VWidth: 0
GlyphClass: 2
Flags: W
LayerCount: 2
Fore
SplineSet
1284.6171875 1032 m 257
 1091.34863281 501 l 257
 1128.34863281 501 l 257
 1321.6171875 1032 l 257
 1284.6171875 1032 l 257
1309.6171875 1032 m 257
 1295.78613281 994 l 257
 1524.78613281 994 l 257
 1538.6171875 1032 l 257
 1309.6171875 1032 l 257
1509.6171875 1032 m 257
 1425.90429688 802 l 257
 1463.90429688 802 l 257
 1547.6171875 1032 l 257
 1509.6171875 1032 l 257
1238.64648438 848 m 257
 1221.54003906 801 l 257
 1459.54003906 801 l 257
 1476.64648438 848 l 257
 1238.64648438 848 l 257
1271.45214844 809 m 257
 1357.98535156 500 l 257
 1400.98535156 500 l 257
 1306.45214844 809 l 257
 1271.45214844 809 l 257
1113.51464844 1540 m 257
 553 0 l 257
 615 0 l 257
 1175.51464844 1540 l 257
 1113.51464844 1540 l 257
1992.421875 1537 m 257
 1433 0 l 257
 1495 0 l 257
 2054.421875 1537 l 257
 1992.421875 1537 l 257
1151.78613281 1538 m 257
 1129.94824219 1478 l 257
 2001.94824219 1478 l 257
 2023.78613281 1538 l 257
 1151.78613281 1538 l 257
610.202148438 61 m 257
 588 0 l 257
 1480 0 l 257
 1502.20214844 61 l 257
 610.202148438 61 l 257
EndSplineSet
EndChar

StartChar: ring
Encoding: 730 730 285
GlifName: ring
Width: 2048
VWidth: 0
GlyphClass: 2
Flags: W
LayerCount: 2
Fore
SplineSet
1351.88964844 1302 m 257
 1641.88964844 1302 l 257
 1549.8046875 1049 l 257
 1259.8046875 1049 l 257
 1351.88964844 1302 l 257
1328.44433594 1331 m 257
 1216.34179688 1023 l 257
 1576.34179688 1023 l 257
 1688.44433594 1331 l 257
 1328.44433594 1331 l 257
EndSplineSet
EndChar

StartChar: s
Encoding: 115 115 286
GlifName: s
Width: 2048
VWidth: 0
GlyphClass: 2
Flags: W
AnchorPoint: "base" 512 -66 basechar 0
AnchorPoint: "top" 472 1134 basechar 0
LayerCount: 2
Fore
SplineSet
579.341796875 1023 m 257
 557.8671875 964 l 257
 2190.8671875 964 l 257
 2212.34179688 1023 l 257
 579.341796875 1023 l 257
579.341796875 1023 m 257
 474.881835938 736 l 257
 535.881835938 736 l 257
 640.341796875 1023 l 257
 579.341796875 1023 l 257
229.474609375 59 m 257
 208 0 l 257
 1837 0 l 257
 1858.47460938 59 l 257
 229.474609375 59 l 257
1883.82714844 299 m 257
 1779.3671875 12 l 257
 1842.3671875 12 l 257
 1946.82714844 299 l 257
 1883.82714844 299 l 257
474.881835938 736 m 257
 1883.82714844 299 l 257
 1946.82714844 299 l 257
 535.881835938 736 l 257
 474.881835938 736 l 257
EndSplineSet
EndChar

StartChar: section
Encoding: 167 167 291
GlifName: section
Width: 2048
VWidth: 0
GlyphClass: 2
Flags: W
LayerCount: 2
Fore
SplineSet
1088.23144531 1237 m 257
 1066.75683594 1178 l 257
 1664.75683594 1178 l 257
 1686.23144531 1237 l 257
 1088.23144531 1237 l 257
1088.23144531 1237 m 257
 858.202148438 605 l 257
 921.202148438 605 l 257
 1151.23144531 1237 l 257
 1088.23144531 1237 l 257
602.206054688 -200 m 257
 580.368164062 -260 l 257
 1288.36816406 -260 l 257
 1310.20605469 -200 l 257
 602.206054688 -200 l 257
1255.73144531 -259 m 257
 1315.73144531 -259 l 257
 1444.57714844 95 l 257
 1384.57714844 95 l 257
 1255.73144531 -259 l 257
858.56640625 606 m 257
 1381.02929688 88 l 257
 1442.02929688 88 l 257
 916.56640625 606 l 257
 858.56640625 606 l 257
1229.81542969 1626 m 257
 1207.97753906 1566 l 257
 1805.97753906 1566 l 257
 1827.81542969 1626 l 257
 1229.81542969 1626 l 257
1230.90722656 1629 m 257
 1088.23144531 1237 l 257
 1151.23144531 1237 l 257
 1293.90722656 1629 l 257
 1230.90722656 1629 l 257
698.029296875 88 m 257
 680.1953125 39 l 257
 1388.1953125 39 l 257
 1406.02929688 88 l 257
 698.029296875 88 l 257
1381.02929688 88 m 257
 1442.02929688 88 l 257
 1570.875 442 l 257
 1509.875 442 l 257
 1381.02929688 88 l 257
1088.23144531 1237 m 257
 1510.875 442 l 257
 1570.875 442 l 257
 1151.23144531 1237 l 257
 1088.23144531 1237 l 257
EndSplineSet
EndChar

StartChar: semicolon
Encoding: 59 59 292
GlifName: semicolon
Width: 2048
VWidth: 0
GlyphClass: 2
Flags: W
LayerCount: 2
Fore
SplineSet
1015.69140625 164 m 257
 958.547851562 7 l 257
 1094.54785156 7 l 257
 1151.69140625 164 l 257
 1015.69140625 164 l 257
1089.13574219 135 m 257
 961.966796875 -99 l 257
 994.1328125 -148 l 257
 1099.46289062 26 l 257
 1089.13574219 135 l 257
1139.07714844 503 m 257
 1081.93359375 346 l 257
 1217.93359375 346 l 257
 1275.07714844 503 l 257
 1139.07714844 503 l 257
EndSplineSet
EndChar

StartChar: seven
Encoding: 55 55 293
GlifName: seven
Width: 2048
VWidth: 0
GlyphClass: 2
Flags: W
LayerCount: 2
Fore
SplineSet
598.135742188 1495 m 257
 2473.13574219 1495 l 257
 1929 0 l 257
 1991 0 l 257
 2557.70117188 1557 l 257
 620.701171875 1557 l 257
 598.135742188 1495 l 257
EndSplineSet
EndChar

StartChar: six
Encoding: 54 54 294
GlifName: six
Width: 2048
VWidth: 0
GlyphClass: 2
Flags: W
LayerCount: 2
Fore
SplineSet
605.154296875 1550 m 257
 114.158203125 201 l 257
 42.4560546875 4 l 257
 2005.45605469 4 l 257
 2302.09179688 819 l 257
 401.091796875 819 l 257
 644.587890625 1488 l 257
 2550.58789062 1488 l 257
 2573.15429688 1550 l 257
 605.154296875 1550 l 257
2218.25292969 759 m 257
 1964.9296875 63 l 257
 131.9296875 63 l 257
 385.252929688 759 l 257
 2218.25292969 759 l 257
EndSplineSet
EndChar

StartChar: slash
Encoding: 47 47 295
GlifName: slash
Width: 2048
VWidth: 0
GlyphClass: 2
Flags: W
LayerCount: 2
Fore
SplineSet
1804.67578125 1480 m 257
 682.639648438 10 l 257
 785.639648438 10 l 257
 1907.67578125 1480 l 257
 1804.67578125 1480 l 257
EndSplineSet
EndChar

StartChar: sterling
Encoding: 163 163 297
GlifName: sterling
Width: 2048
VWidth: 0
GlyphClass: 2
Flags: W
LayerCount: 2
Fore
SplineSet
1508.60644531 1543 m 257
 1486.40429688 1482 l 257
 1675.40429688 1482 l 257
 1697.60644531 1543 l 257
 1508.60644531 1543 l 257
889.256835938 770 m 257
 865.598632812 705 l 257
 1591.59863281 705 l 257
 1615.25683594 770 l 257
 889.256835938 770 l 257
1484.2421875 1542 m 257
 924.091796875 3 l 257
 1000.09179688 3 l 257
 1560.2421875 1542 l 257
 1484.2421875 1542 l 257
739.206054688 72 m 257
 714.091796875 3 l 257
 1440.09179688 3 l 257
 1465.20605469 72 l 257
 739.206054688 72 l 257
EndSplineSet
EndChar

StartChar: t
Encoding: 116 116 298
GlifName: t
Width: 2048
VWidth: 0
GlyphClass: 2
Flags: W
AnchorPoint: "base" 500 -82 basechar 0
AnchorPoint: "top" 500 1642 basechar 0
LayerCount: 2
Fore
SplineSet
1532.51074219 1529 m 257
 976 0 l 257
 1036 0 l 257
 1592.51074219 1529 l 257
 1532.51074219 1529 l 257
1009.83789062 60 m 257
 988 0 l 257
 1892 0 l 257
 1913.83789062 60 l 257
 1009.83789062 60 l 257
528.341796875 1023 m 257
 507.231445312 965 l 257
 2205.23144531 965 l 257
 2226.34179688 1023 l 257
 528.341796875 1023 l 257
EndSplineSet
EndChar

StartChar: tcaron
Encoding: 357 357 299
GlifName: tcaron
Width: 2048
VWidth: 0
GlyphClass: 2
Flags: W
LayerCount: 2
Fore
SplineSet
1532.51074219 1529 m 257
 976 0 l 257
 1036 0 l 257
 1592.51074219 1529 l 257
 1532.51074219 1529 l 257
1009.83789062 60 m 257
 988 0 l 257
 1892 0 l 257
 1913.83789062 60 l 257
 1009.83789062 60 l 257
528.341796875 1023 m 257
 507.231445312 965 l 257
 2205.23144531 965 l 257
 2226.34179688 1023 l 257
 528.341796875 1023 l 257
1710.49902344 1496 m 257
 1645.34863281 1317 l 257
 1707.34863281 1317 l 257
 1772.49902344 1496 l 257
 1710.49902344 1496 l 257
EndSplineSet
EndChar

StartChar: thorn
Encoding: 254 254 300
GlifName: thorn
Width: 2048
VWidth: 0
GlyphClass: 2
Flags: W
LayerCount: 2
Fore
SplineSet
530.345703125 1034 m 257
 6.228515625 -406 l 257
 64.228515625 -406 l 257
 588.345703125 1034 l 257
 530.345703125 1034 l 257
448.768554688 667 m 257
 426.202148438 605 l 257
 2114.20214844 605 l 257
 2136.76855469 667 l 257
 448.768554688 667 l 257
142.864257812 -135 m 257
 121.025390625 -195 l 257
 1823.02539062 -195 l 257
 1844.86425781 -135 l 257
 142.864257812 -135 l 257
2069.125 646 m 257
 1772.125 -170 l 257
 1832.125 -170 l 257
 2129.125 646 l 257
 2069.125 646 l 257
EndSplineSet
EndChar

StartChar: three
Encoding: 51 51 301
GlifName: three
Width: 2048
VWidth: 0
GlyphClass: 2
Flags: W
LayerCount: 2
Fore
SplineSet
368.881835938 736 m 257
 2194.88183594 736 l 257
 1945.92675781 52 l 257
 77.9267578125 52 l 257
 65.087890625 -8 l 257
 1984.08789062 -8 l 257
 2551.15429688 1550 l 257
 653.154296875 1550 l 257
 632.407226562 1493 l 257
 2468.40722656 1493 l 257
 2214.72070312 796 l 257
 390.720703125 796 l 257
 368.881835938 736 l 257
EndSplineSet
EndChar

StartChar: threequarters
Encoding: 190 190 302
GlifName: threequarters
Width: 2048
VWidth: 0
GlyphClass: 2
Flags: W
LayerCount: 2
Fore
SplineSet
1913.76757812 1483 m 257
 212.18359375 6 l 257
 235.614257812 -67 l 257
 1936.19824219 1410 l 257
 1913.76757812 1483 l 257
558.969726562 1272 m 257
 1125.96972656 1272 l 257
 1057.54394531 1084 l 257
 453.543945312 1084 l 257
 436.4296875 1015 l 257
 1100.4296875 1015 l 257
 1296.24609375 1553 l 257
 651.24609375 1553 l 257
 626.131835938 1484 l 257
 1201.13183594 1484 l 257
 1148.71972656 1340 l 257
 583.719726562 1340 l 257
 558.969726562 1272 l 257
1374.75 340 m 257
 2002.75 340 l 257
 1881.54785156 7 l 257
 1959.54785156 7 l 257
 2207.04785156 687 l 257
 2127.04785156 687 l 257
 2032.77929688 428 l 257
 1493.77929688 428 l 257
 1588.77539062 689 l 257
 1501.77539062 689 l 257
 1374.75 340 l 257
EndSplineSet
EndChar

StartChar: tilde
Encoding: 732 732 303
GlifName: tilde
Width: 2048
VWidth: 0
GlyphClass: 2
Flags: W
LayerCount: 2
Fore
SplineSet
979.547851562 279 m 257
 961.349609375 229 l 257
 1285.50683594 158 l 257
 1303.70605469 208 l 257
 979.547851562 279 l 257
719.165039062 223 m 257
 712.0546875 165 l 257
 961.349609375 229 l 257
 979.547851562 279 l 257
 719.165039062 223 l 257
1303.70605469 208 m 257
 1285.50683594 158 l 257
 1522.46679688 309 l 257
 1525.57324219 356 l 257
 1303.70605469 208 l 257
EndSplineSet
EndChar

StartChar: tildecomb
Encoding: 771 771 304
GlifName: tildecomb
Width: 0
VWidth: 0
GlyphClass: 2
Flags: HW
AnchorPoint: "top" 492 1855 mark 0
AnchorPoint: "top" 492 1855 mark 0
LayerCount: 2
Fore
SplineSet
1593.56542969 1966 m 257
 1575.3671875 1916 l 257
 1899.52539062 1845 l 257
 1917.72363281 1895 l 257
 1593.56542969 1966 l 257
1333.18359375 1910 m 257
 1326.07324219 1852 l 257
 1575.3671875 1916 l 257
 1593.56542969 1966 l 257
 1333.18359375 1910 l 257
1917.72363281 1895 m 257
 1899.52539062 1845 l 257
 2136.484375 1996 l 257
 2139.59082031 2043 l 257
 1917.72363281 1895 l 257
EndSplineSet
EndChar

StartChar: two
Encoding: 50 50 306
GlifName: two
Width: 2048
VWidth: 0
GlyphClass: 2
Flags: W
LayerCount: 2
Fore
SplineSet
649.131835938 1484 m 257
 2422.13183594 1484 l 257
 2212.48535156 908 l 257
 446.485351562 908 l 257
 116 0 l 257
 1928 0 l 257
 1949.47460938 59 l 257
 197.474609375 59 l 257
 485.010742188 849 l 257
 2251.01074219 849 l 257
 2503.96972656 1544 l 257
 670.969726562 1544 l 257
 649.131835938 1484 l 257
EndSplineSet
EndChar

StartChar: u
Encoding: 117 117 307
GlifName: u
Width: 2048
VWidth: 0
GlyphClass: 2
Flags: W
AnchorPoint: "base" 724 -50 basechar 0
AnchorPoint: "top" 440 1146 basechar 0
LayerCount: 2
Fore
SplineSet
514.345703125 1034 m 257
 138 0 l 257
 198 0 l 257
 574.345703125 1034 l 257
 514.345703125 1034 l 257
1887.98144531 1033 m 257
 1513.45605469 4 l 257
 1571.45605469 4 l 257
 1945.98144531 1033 l 257
 1887.98144531 1033 l 257
206.202148438 61 m 257
 184 0 l 257
 1910 0 l 257
 1932.20214844 61 l 257
 206.202148438 61 l 257
EndSplineSet
EndChar

StartChar: underscore
Encoding: 95 95 315
GlifName: underscore
Width: 2048
VWidth: 0
GlyphClass: 2
Flags: W
LayerCount: 2
Fore
SplineSet
0 0 m 257
 -14.55859375 -40 l 257
 2033.44140625 -40 l 257
 2048 0 l 257
 0 0 l 257
EndSplineSet
EndChar

StartChar: uni00B2
Encoding: 178 178 317
GlifName: uni00B_2
Width: 2048
VWidth: 0
GlyphClass: 2
Flags: W
LayerCount: 2
Fore
SplineSet
1224.87109375 1519 m 257
 2062.87109375 1519 l 257
 1974.79003906 1277 l 257
 1139.79003906 1277 l 257
 1000.75292969 895 l 257
 1856.75292969 895 l 257
 1865.85253906 920 l 257
 1037.85253906 920 l 257
 1158.69042969 1252 l 257
 1993.69042969 1252 l 257
 2099.96972656 1544 l 257
 1233.96972656 1544 l 257
 1224.87109375 1519 l 257
EndSplineSet
EndChar

StartChar: uni00B3
Encoding: 179 179 318
GlifName: uni00B_3
Width: 2048
VWidth: 0
GlyphClass: 2
Flags: W
LayerCount: 2
Fore
SplineSet
368.881835938 736 m 257
 2194.88183594 736 l 257
 1945.92675781 52 l 257
 77.9267578125 52 l 257
 65.087890625 -8 l 257
 1984.08789062 -8 l 257
 2551.15429688 1550 l 257
 653.154296875 1550 l 257
 632.407226562 1493 l 257
 2468.40722656 1493 l 257
 2214.72070312 796 l 257
 390.720703125 796 l 257
 368.881835938 736 l 257
EndSplineSet
EndChar

StartChar: uni00B9
Encoding: 185 185 319
GlifName: uni00B_9
Width: 2048
VWidth: 0
GlyphClass: 2
Flags: W
LayerCount: 2
Fore
SplineSet
1361.7734375 887.5 m 257
 1391.7734375 887.5 l 257
 1673.85058594 1662.5 l 257
 1643.85058594 1662.5 l 257
 1361.7734375 887.5 l 257
1643.85058594 1662.5 m 257
 1561.78417969 1600.5 l 257
 1582.18847656 1586.5 l 257
 1673.85058594 1662.5 l 257
 1643.85058594 1662.5 l 257
EndSplineSet
EndChar

StartChar: uni0123
Encoding: 291 291 321
GlifName: uni0123
Width: 2048
VWidth: 0
GlyphClass: 2
Flags: W
LayerCount: 2
Fore
SplineSet
598.341796875 1023 m 257
 226 0 l 257
 285 0 l 257
 657.341796875 1023 l 257
 598.341796875 1023 l 257
638.341796875 1023 m 257
 616.8671875 964 l 257
 2156.8671875 964 l 257
 2178.34179688 1023 l 257
 638.341796875 1023 l 257
2139.34179688 1023 m 257
 1617.40820312 -411 l 257
 1678.40820312 -411 l 257
 2200.34179688 1023 l 257
 2139.34179688 1023 l 257
311.202148438 61 m 257
 289 0 l 257
 1770 0 l 257
 1792.20214844 61 l 257
 311.202148438 61 l 257
91.154296875 -354 m 257
 69.6806640625 -413 l 257
 1628.68066406 -413 l 257
 1650.15429688 -354 l 257
 91.154296875 -354 l 257
1564.19433594 1399 m 257
 1491.03613281 1198 l 257
 1552.03613281 1198 l 257
 1625.19433594 1399 l 257
 1564.19433594 1399 l 257
EndSplineSet
EndChar

StartChar: uni0192
Encoding: 402 402 332
GlifName: uni0192
Width: 2048
VWidth: 0
GlyphClass: 2
Flags: W
LayerCount: 2
Fore
SplineSet
1346.34179688 1023 m 257
 826.228515625 -406 l 257
 888.228515625 -406 l 257
 1408.34179688 1023 l 257
 1346.34179688 1023 l 257
1374.34179688 1023 m 257
 1353.59570312 966 l 257
 2145.59570312 966 l 257
 2166.34179688 1023 l 257
 1374.34179688 1023 l 257
519.458984375 559 m 257
 497.985351562 500 l 257
 1715.98535156 500 l 257
 1737.45898438 559 l 257
 519.458984375 559 l 257
128.430664062 -345 m 257
 106.228515625 -406 l 257
 880.228515625 -406 l 257
 902.430664062 -345 l 257
 128.430664062 -345 l 257
EndSplineSet
EndChar

StartChar: uni0237
Encoding: 567 567 337
GlifName: uni0237
Width: 2048
VWidth: 0
GlyphClass: 2
Flags: W
AnchorPoint: "top" 720 1182 basechar 0
AnchorPoint: "top" 720 1182 basechar 0
LayerCount: 2
Fore
SplineSet
2164.34179688 1023 m 257
 1642.40820312 -411 l 257
 1700.40820312 -411 l 257
 2222.34179688 1023 l 257
 2164.34179688 1023 l 257
71.337890625 -348 m 257
 49.1357421875 -409 l 257
 1663.13574219 -409 l 257
 1685.33789062 -348 l 257
 71.337890625 -348 l 257
195.81640625 -6 m 257
 60.4189453125 -378 l 257
 120.418945312 -378 l 257
 255.81640625 -6 l 257
 195.81640625 -6 l 257
EndSplineSet
EndChar

StartChar: uni02C9
Encoding: 713 713 341
GlifName: uni02C_9
Width: 2048
VWidth: 0
GlyphClass: 2
Flags: W
LayerCount: 2
Fore
SplineSet
1337.27148438 1630 m 257
 1308.15429688 1550 l 257
 1868.15429688 1550 l 257
 1897.27148438 1630 l 257
 1337.27148438 1630 l 257
EndSplineSet
EndChar

StartChar: uni02CA
Encoding: 714 714 342
GlifName: uni02C_A_
Width: 2048
VWidth: 0
GlyphClass: 2
Flags: W
LayerCount: 2
Fore
SplineSet
1382.40820312 949 m 257
 1236.07324219 764 l 257
 1276.69824219 730 l 257
 1423.03320312 915 l 257
 1382.40820312 949 l 257
EndSplineSet
EndChar

StartChar: uni02CB
Encoding: 715 715 343
GlifName: uni02C_B_
Width: 2048
VWidth: 0
GlyphClass: 2
Flags: W
LayerCount: 2
Fore
SplineSet
1251.20214844 877 m 257
 1300.95214844 673 l 257
 1380.60644531 727 l 257
 1331.22070312 932 l 257
 1251.20214844 877 l 257
EndSplineSet
EndChar

StartChar: uni0302
Encoding: 770 770 344
GlifName: uni0302
Width: 0
VWidth: 0
GlyphClass: 2
Flags: HW
AnchorPoint: "top" 506 1427 mark 0
AnchorPoint: "top" 471 1881 mark 0
LayerCount: 2
Fore
SplineSet
1715.87252078 1555 m 257
 1679.87252078 1555 l 257
 1322.21076609 1245 l 257
 1336.83577609 1228 l 257
 1715.87252078 1555 l 257
1683.96437422 1556.5 m 257
 1603.56021578 1223.5 l 257
 1657.66294531 1241.5 l 257
 1720.96437422 1556.5 l 257
 1683.96437422 1556.5 l 257
EndSplineSet
EndChar

StartChar: uni0304
Encoding: 772 772 345
GlifName: uni0304
Width: 0
VWidth: 0
GlyphClass: 2
Flags: HW
AnchorPoint: "top" 488 1532 mark 0
AnchorPoint: "top" 488 1532 mark 0
LayerCount: 2
Fore
SplineSet
1337.27148438 1630 m 257
 1308.15429688 1550 l 257
 1868.15429688 1550 l 257
 1897.27148438 1630 l 257
 1337.27148438 1630 l 257
EndSplineSet
EndChar

StartChar: uni0305
Encoding: 773 773 346
GlifName: uni0305
Width: 0
VWidth: 0
GlyphClass: 2
Flags: HW
LayerCount: 2
Fore
SplineSet
-901 1602 m 257
 -901 1542 l 257
 -147 1542 l 257
 -147 1602 l 257
 -901 1602 l 257
EndSplineSet
EndChar

StartChar: uni0306
Encoding: 774 774 347
GlifName: uni0306
Width: 0
VWidth: 0
GlyphClass: 2
Flags: HW
AnchorPoint: "top" 496 1440 mark 0
AnchorPoint: "top" 496 1440 mark 0
LayerCount: 2
Fore
SplineSet
1753.15429688 1550 m 257
 1727.67578125 1480 l 257
 1918.15429688 1550 l 257
 1952.73144531 1645 l 257
 1753.15429688 1550 l 257
1429.15429688 1550 m 257
 1403.67578125 1480 l 257
 1727.67578125 1480 l 257
 1753.15429688 1550 l 257
 1429.15429688 1550 l 257
1287.27148438 1630 m 257
 1258.15429688 1550 l 257
 1403.67578125 1480 l 257
 1429.15429688 1550 l 257
 1287.27148438 1630 l 257
EndSplineSet
EndChar

StartChar: uni0307
Encoding: 775 775 348
GlifName: uni0307
Width: 0
VWidth: 0
GlyphClass: 2
Flags: HW
AnchorPoint: "top" 508 1542 mark 0
AnchorPoint: "top" 508 1542 mark 0
LayerCount: 2
Fore
SplineSet
1600.58007812 1738 m 257
 1563.81933594 1637 l 257
 1675.81933594 1637 l 257
 1712.58007812 1738 l 257
 1600.58007812 1738 l 257
EndSplineSet
EndChar

StartChar: uni0308
Encoding: 776 776 349
GlifName: uni0308
Width: 0
VWidth: 0
GlyphClass: 2
Flags: HW
AnchorPoint: "top" 516 1592 mark 0
AnchorPoint: "top" 516 1592 mark 0
LayerCount: 2
Fore
SplineSet
1479.58007812 1738 m 257
 1442.81933594 1637 l 257
 1554.81933594 1637 l 257
 1591.58007812 1738 l 257
 1479.58007812 1738 l 257
1721.58007812 1738 m 257
 1684.81933594 1637 l 257
 1796.81933594 1637 l 257
 1833.58007812 1738 l 257
 1721.58007812 1738 l 257
EndSplineSet
EndChar

StartChar: uni030A
Encoding: 778 778 350
GlifName: uni030A_
Width: 0
VWidth: 0
GlyphClass: 2
Flags: HW
AnchorPoint: "top" 541 1536 mark 0
AnchorPoint: "top" 541 1536 mark 0
LayerCount: 2
Fore
SplineSet
1588.13183594 1756 m 257
 1736.13183594 1756 l 257
 1688.81542969 1626 l 257
 1540.81542969 1626 l 257
 1588.13183594 1756 l 257
1516.25292969 1847 m 257
 1403.78613281 1538 l 257
 1763.78613281 1538 l 257
 1876.25292969 1847 l 257
 1516.25292969 1847 l 257
EndSplineSet
EndChar

StartChar: uni030C
Encoding: 780 780 352
GlifName: uni030C_
Width: 0
VWidth: 0
GlyphClass: 2
Flags: HW
AnchorPoint: "top" 504 1315 mark 0
AnchorPoint: "top" 504 1315 mark 0
LayerCount: 2
Fore
SplineSet
1490.33789062 1284 m 257
 1468.35644531 1611 l 257
 1435.16894531 1594 l 257
 1454.70214844 1285 l 257
 1490.33789062 1284 l 257
1456.97363281 1283 m 257
 1493.97363281 1283 l 257
 1774.62402344 1598 l 257
 1740.17578125 1616 l 257
 1456.97363281 1283 l 257
EndSplineSet
EndChar

StartChar: uni0326
Encoding: 806 806 353
GlifName: uni0326
Width: 0
VWidth: 0
GlyphClass: 2
AnchorPoint: "base" 534 -5 mark 0
AnchorPoint: "base" 534 -5 mark 0
LayerCount: 2
Fore
SplineSet
990 0 m 257
 941.956054688 -132 l 257
 1053.95605469 -132 l 257
 1102 0 l 257
 990 0 l 257
941.956054688 -132 m 257
 856.462890625 -246 l 257
 910.635742188 -273 l 257
 1053.95605469 -132 l 257
 941.956054688 -132 l 257
EndSplineSet
EndChar

StartChar: uni0327
Encoding: 807 807 354
GlifName: uni0327
Width: 0
VWidth: 0
GlyphClass: 2
AnchorPoint: "base" 654 191 mark 0
AnchorPoint: "base" 654 191 mark 0
LayerCount: 2
Fore
SplineSet
863.514648438 180 m 257
 776.162109375 -60 l 257
 834.162109375 -60 l 257
 921.514648438 180 l 257
 863.514648438 180 l 257
677.702148438 -347 m 257
 656.228515625 -406 l 257
 1102.22851562 -406 l 257
 1123.70214844 -347 l 257
 677.702148438 -347 l 257
1191 0 m 257
 1055.60351562 -372 l 257
 1114.60351562 -372 l 257
 1250 0 l 257
 1191 0 l 257
804 0 m 257
 782.162109375 -60 l 257
 1228.16210938 -60 l 257
 1250 0 l 257
 804 0 l 257
EndSplineSet
EndChar

StartChar: uni0328
Encoding: 808 808 355
GlifName: uni0328
Width: 0
VWidth: 0
GlyphClass: 2
AnchorPoint: "base" 990 23 mark 0
AnchorPoint: "base" 990 23 mark 0
LayerCount: 2
Fore
SplineSet
625.24609375 -351 m 257
 603.408203125 -411 l 257
 1144.40820312 -411 l 257
 1166.24609375 -351 l 257
 625.24609375 -351 l 257
753 0 m 257
 603.408203125 -411 l 257
 663.408203125 -411 l 257
 813 0 l 257
 753 0 l 257
753 0 m 257
 731.525390625 -59 l 257
 1273.52539062 -59 l 257
 1295 0 l 257
 753 0 l 257
EndSplineSet
EndChar

StartChar: uni0331
Encoding: 817 817 356
GlifName: uni0331
Width: 2048
VWidth: 0
GlyphClass: 2
Flags: W
AnchorPoint: "base" 510 -163 mark 0
AnchorPoint: "base" 510 -163 mark 0
LayerCount: 2
Fore
SplineSet
669.75 -204 m 257
 653.735351562 -248 l 257
 1213.73535156 -248 l 257
 1229.75 -204 l 257
 669.75 -204 l 257
EndSplineSet
EndChar

StartChar: uni0900
Encoding: 2304 2304 357
GlifName: uni0900
Width: 0
VWidth: 0
GlyphClass: 4
Flags: HW
AnchorPoint: "abvm" 1625 1632 mark 0
LayerCount: 2
Fore
SplineSet
955.98046875 2121 m 257
 777.999023438 1632 l 257
 836.999023438 1632 l 257
 1014.98046875 2121 l 257
 955.98046875 2121 l 257
969.98046875 2121 m 257
 948.142578125 2061 l 257
 2361.14257812 2061 l 257
 2382.98046875 2121 l 257
 969.98046875 2121 l 257
1595.46289062 1930 m 257
 1550.69433594 1807 l 257
 1667.69433594 1807 l 257
 1712.46289062 1930 l 257
 1595.46289062 1930 l 257
2359.98046875 2121 m 257
 2182.36328125 1633 l 257
 2242.36328125 1633 l 257
 2419.98046875 2121 l 257
 2359.98046875 2121 l 257
EndSplineSet
EndChar

StartChar: uni0901
Encoding: 2305 2305 358
GlifName: uni0901
Width: 0
VWidth: 0
GlyphClass: 2
Flags: HW
AnchorPoint: "abvm" 1590 1556 mark 0
LayerCount: 2
Fore
SplineSet
909.073242188 2124 m 257
 732.546875 1639 l 257
 792.546875 1639 l 257
 969.073242188 2124 l 257
 909.073242188 2124 l 257
789.385742188 1699 m 257
 767.546875 1639 l 257
 2201.546875 1639 l 257
 2223.38574219 1699 l 257
 789.385742188 1699 l 257
1587.109375 1962 m 257
 1542.34082031 1839 l 257
 1659.34082031 1839 l 257
 1704.109375 1962 l 257
 1587.109375 1962 l 257
2349.984375 2132 m 257
 2171.27539062 1641 l 257
 2231.27539062 1641 l 257
 2409.984375 2132 l 257
 2349.984375 2132 l 257
EndSplineSet
EndChar

StartChar: uni0902
Encoding: 2306 2306 359
GlifName: uni0902
Width: 0
VWidth: 0
GlyphClass: 2
Flags: HW
AnchorPoint: "abvm" 1105 1561 mark 0
LayerCount: 2
Fore
SplineSet
1093.76757812 1755 m 257
 1050.09179688 1635 l 257
 1170.09179688 1635 l 257
 1213.76757812 1755 l 257
 1093.76757812 1755 l 257
EndSplineSet
EndChar

StartChar: uni0903
Encoding: 2307 2307 360
GlifName: uni0903
Width: 2048
VWidth: 0
GlyphClass: 2
Flags: W
LayerCount: 2
Fore
SplineSet
1077.99609375 261 m 257
 1034.31933594 141 l 257
 1154.31933594 141 l 257
 1197.99609375 261 l 257
 1077.99609375 261 l 257
1367.93359375 1162 m 257
 1323.16503906 1039 l 257
 1440.16503906 1039 l 257
 1484.93359375 1162 l 257
 1367.93359375 1162 l 257
EndSplineSet
EndChar

StartChar: uni0904
Encoding: 2308 2308 361
GlifName: uni0904
Width: 2048
VWidth: 0
GlyphClass: 2
Flags: W
LayerCount: 2
Fore
SplineSet
1521.50683594 2062 m 257
 1434.51757812 1823 l 257
 1495.51757812 1823 l 257
 1582.50683594 2062 l 257
 1521.50683594 2062 l 257
1449.16894531 1866 m 257
 1428.421875 1809 l 257
 2423.421875 1809 l 257
 2444.16894531 1866 l 257
 1449.16894531 1866 l 257
2383.07617188 1863 m 257
 2267.33398438 1545 l 257
 2327.33398438 1545 l 257
 2443.07617188 1863 l 257
 2383.07617188 1863 l 257
1805.15429688 1550 m 257
 1782.58789062 1488 l 257
 2591.58789062 1488 l 257
 2614.15429688 1550 l 257
 1805.15429688 1550 l 257
2284.50683594 1518 m 257
 1732 0 l 257
 1793 0 l 257
 2345.50683594 1518 l 257
 2284.50683594 1518 l 257
606.061523438 1547 m 257
 584.223632812 1487 l 257
 1619.22363281 1487 l 257
 1641.06152344 1547 l 257
 606.061523438 1547 l 257
1609.15429688 1550 m 257
 1057.375 34 l 257
 1116.375 34 l 257
 1668.15429688 1550 l 257
 1609.15429688 1550 l 257
452.389648438 894 m 257
 430.915039062 835 l 257
 2062.91503906 835 l 257
 2084.38964844 894 l 257
 452.389648438 894 l 257
41.658203125 65 m 257
 18 0 l 257
 1104 0 l 257
 1127.65820312 65 l 257
 41.658203125 65 l 257
EndSplineSet
EndChar

StartChar: uni0905
Encoding: 2309 2309 362
GlifName: uni0905
Width: 2048
VWidth: 0
GlyphClass: 2
Flags: W
LayerCount: 2
Fore
SplineSet
1782.15429688 1550 m 257
 1760.31542969 1490 l 257
 2592.31542969 1490 l 257
 2614.15429688 1550 l 257
 1782.15429688 1550 l 257
2254.50683594 1518 m 257
 1702 0 l 257
 1764 0 l 257
 2316.50683594 1518 l 257
 2254.50683594 1518 l 257
601.061523438 1547 m 257
 579.223632812 1487 l 257
 1601.22363281 1487 l 257
 1623.06152344 1547 l 257
 601.061523438 1547 l 257
1592.15429688 1550 m 257
 1040.375 34 l 257
 1098.375 34 l 257
 1650.15429688 1550 l 257
 1592.15429688 1550 l 257
447.389648438 894 m 257
 425.915039062 835 l 257
 2033.91503906 835 l 257
 2055.38964844 894 l 257
 447.389648438 894 l 257
35.658203125 65 m 257
 12 0 l 257
 1086 0 l 257
 1109.65820312 65 l 257
 35.658203125 65 l 257
EndSplineSet
EndChar

StartChar: uni0906
Encoding: 2310 2310 363
GlifName: uni0906
Width: 2048
VWidth: 0
GlyphClass: 2
Flags: W
LayerCount: 2
Fore
SplineSet
1613.15429688 1550 m 257
 1590.95214844 1489 l 257
 2591.95214844 1489 l 257
 2614.15429688 1550 l 257
 1613.15429688 1550 l 257
2072.50683594 1518 m 257
 1520 0 l 257
 1581 0 l 257
 2133.50683594 1518 l 257
 2072.50683594 1518 l 257
616.061523438 1547 m 257
 594.223632812 1487 l 257
 1417.22363281 1487 l 257
 1439.06152344 1547 l 257
 616.061523438 1547 l 257
1407.15429688 1550 m 257
 855.375 34 l 257
 914.375 34 l 257
 1466.15429688 1550 l 257
 1407.15429688 1550 l 257
462.389648438 894 m 257
 440.915039062 835 l 257
 1848.91503906 835 l 257
 1870.38964844 894 l 257
 462.389648438 894 l 257
51.658203125 65 m 257
 28 0 l 257
 902 0 l 257
 925.658203125 65 l 257
 51.658203125 65 l 257
2455.50683594 1518 m 257
 1903 0 l 257
 1964 0 l 257
 2516.50683594 1518 l 257
 2455.50683594 1518 l 257
EndSplineSet
EndChar

StartChar: uni0907
Encoding: 2311 2311 364
GlifName: uni0907
Width: 2048
VWidth: 0
GlyphClass: 2
Flags: W
LayerCount: 2
Fore
SplineSet
558.154296875 1550 m 257
 535.952148438 1489 l 257
 2596.95214844 1489 l 257
 2619.15429688 1550 l 257
 558.154296875 1550 l 257
1946.51074219 1529 m 257
 1816.9375 1173 l 257
 1875.9375 1173 l 257
 2005.51074219 1529 l 257
 1946.51074219 1529 l 257
606.583984375 1205 m 257
 584.381835938 1144 l 257
 1864.38183594 1144 l 257
 1886.58398438 1205 l 257
 606.583984375 1205 l 257
597.848632812 1181 m 257
 475.5546875 845 l 257
 533.5546875 845 l 257
 655.848632812 1181 l 257
 597.848632812 1181 l 257
488.658203125 881 m 257
 466.091796875 819 l 257
 1812.09179688 819 l 257
 1834.65820312 881 l 257
 488.658203125 881 l 257
1800.65820312 881 m 257
 1583.73144531 285 l 257
 1643.73144531 285 l 257
 1860.65820312 881 l 257
 1800.65820312 881 l 257
254.462890625 298 m 257
 232.260742188 237 l 257
 1628.26074219 237 l 257
 1650.46289062 298 l 257
 254.462890625 298 l 257
370.462890625 298 m 257
 173.19140625 -244 l 257
 233.19140625 -244 l 257
 430.462890625 298 l 257
 370.462890625 298 l 257
EndSplineSet
EndChar

StartChar: uni0908
Encoding: 2312 2312 365
GlifName: uni0908
Width: 2048
VWidth: 0
GlyphClass: 2
Flags: W
LayerCount: 2
Fore
SplineSet
558.154296875 1550 m 257
 535.587890625 1488 l 257
 2596.58789062 1488 l 257
 2619.15429688 1550 l 257
 558.154296875 1550 l 257
1957.24609375 1553 m 257
 1822.57714844 1183 l 257
 1882.57714844 1183 l 257
 2017.24609375 1553 l 257
 1957.24609375 1553 l 257
609.3125 1207 m 257
 587.110351562 1146 l 257
 1869.11035156 1146 l 257
 1891.3125 1207 l 257
 609.3125 1207 l 257
599.848632812 1181 m 257
 479.010742188 849 l 257
 539.010742188 849 l 257
 659.848632812 1181 l 257
 599.848632812 1181 l 257
490.658203125 881 m 257
 468.819335938 821 l 257
 1820.81933594 821 l 257
 1842.65820312 881 l 257
 490.658203125 881 l 257
1804.65820312 881 m 257
 1587.73144531 285 l 257
 1647.73144531 285 l 257
 1864.65820312 881 l 257
 1804.65820312 881 l 257
256.462890625 298 m 257
 234.260742188 237 l 257
 1632.26074219 237 l 257
 1654.46289062 298 l 257
 256.462890625 298 l 257
372.462890625 298 m 257
 175.19140625 -244 l 257
 235.19140625 -244 l 257
 432.462890625 298 l 257
 372.462890625 298 l 257
992.984375 1860 m 257
 1810.15429688 1550 l 257
 1914.15429688 1550 l 257
 1088.45507812 1908 l 257
 992.984375 1860 l 257
EndSplineSet
EndChar

StartChar: uni0909
Encoding: 2313 2313 366
GlifName: uni0909
Width: 2048
VWidth: 0
GlyphClass: 2
Flags: W
LayerCount: 2
Fore
SplineSet
564.154296875 1550 m 257
 541.587890625 1488 l 257
 2591.58789062 1488 l 257
 2614.15429688 1550 l 257
 564.154296875 1550 l 257
1691.87402344 1530 m 257
 1499.33398438 1001 l 257
 1558.33398438 1001 l 257
 1750.87402344 1530 l 257
 1691.87402344 1530 l 257
629.985351562 1044 m 257
 608.510742188 985 l 257
 2050.51074219 985 l 257
 2071.98535156 1044 l 257
 629.985351562 1044 l 257
1994.78613281 994 m 257
 1633 0 l 257
 1693 0 l 257
 2054.78613281 994 l 257
 1994.78613281 994 l 257
167.202148438 61 m 257
 145 0 l 257
 1682 0 l 257
 1704.20214844 61 l 257
 167.202148438 61 l 257
270.93359375 346 m 257
 151.915039062 19 l 257
 210.915039062 19 l 257
 329.93359375 346 l 257
 270.93359375 346 l 257
EndSplineSet
EndChar

StartChar: uni090A
Encoding: 2314 2314 367
GlifName: uni090A_
Width: 2048
VWidth: 0
GlyphClass: 2
Flags: W
LayerCount: 2
Fore
SplineSet
560.154296875 1550 m 257
 537.952148438 1489 l 257
 2591.95214844 1489 l 257
 2614.15429688 1550 l 257
 560.154296875 1550 l 257
1502.87402344 1530 m 257
 1310.33398438 1001 l 257
 1371.33398438 1001 l 257
 1563.87402344 1530 l 257
 1502.87402344 1530 l 257
545.985351562 1044 m 257
 523.783203125 983 l 257
 2128.78320312 983 l 257
 2150.98535156 1044 l 257
 545.985351562 1044 l 257
1602.78613281 994 m 257
 1241 0 l 257
 1302 0 l 257
 1663.78613281 994 l 257
 1602.78613281 994 l 257
83.2021484375 61 m 257
 61 0 l 257
 1299 0 l 257
 1321.20214844 61 l 257
 83.2021484375 61 l 257
186.93359375 346 m 257
 67.9150390625 19 l 257
 128.915039062 19 l 257
 247.93359375 346 l 257
 186.93359375 346 l 257
2083.34179688 1023 m 257
 1782.70214844 197 l 257
 1842.70214844 197 l 257
 2143.34179688 1023 l 257
 2083.34179688 1023 l 257
EndSplineSet
EndChar

StartChar: uni090B
Encoding: 2315 2315 368
GlifName: uni090B_
Width: 2048
VWidth: 0
GlyphClass: 2
Flags: W
LayerCount: 2
Fore
SplineSet
564.154296875 1550 m 257
 541.587890625 1488 l 257
 2588.58789062 1488 l 257
 2611.15429688 1550 l 257
 564.154296875 1550 l 257
1579.96679688 1533 m 257
 1022 0 l 257
 1081 0 l 257
 1638.96679688 1533 l 257
 1579.96679688 1533 l 257
399.62109375 1043 m 257
 377.783203125 983 l 257
 680.783203125 983 l 257
 702.62109375 1043 l 257
 399.62109375 1043 l 257
1214.4296875 471 m 257
 255.4296875 471 l 257
 320.775390625 417 l 257
 1229.77539062 417 l 257
 1214.4296875 471 l 257
702.62109375 1043 m 257
 680.783203125 983 l 257
 1397.30078125 902 l 257
 1417.68359375 958 l 257
 702.62109375 1043 l 257
1395.48144531 897 m 257
 1373.64355469 837 l 257
 2002.64355469 837 l 257
 2024.48144531 897 l 257
 1395.48144531 897 l 257
1982.48144531 897 m 257
 1752.45214844 265 l 257
 1813.45214844 265 l 257
 2043.48144531 897 l 257
 1982.48144531 897 l 257
1773.92675781 324 m 257
 1752.08789062 264 l 257
 2142.08789062 264 l 257
 2163.92675781 324 l 257
 1773.92675781 324 l 257
EndSplineSet
EndChar

StartChar: uni090C
Encoding: 2316 2316 369
GlifName: uni090C_
Width: 2048
VWidth: 0
GlyphClass: 2
Flags: W
LayerCount: 2
Fore
SplineSet
564.154296875 1550 m 257
 541.587890625 1488 l 257
 2589.58789062 1488 l 257
 2612.15429688 1550 l 257
 564.154296875 1550 l 257
1724.15429688 1550 m 257
 1436.25292969 759 l 257
 1496.25292969 759 l 257
 1784.15429688 1550 l 257
 1724.15429688 1550 l 257
2079.90039062 791 m 257
 343.900390625 791 l 257
 322.0625 731 l 257
 2058.0625 731 l 257
 2079.90039062 791 l 257
340.8046875 777 m 257
 149.720703125 252 l 257
 209.720703125 252 l 257
 400.8046875 777 l 257
 340.8046875 777 l 257
947.900390625 791 m 257
 817.598632812 433 l 257
 877.598632812 433 l 257
 1007.90039062 791 l 257
 947.900390625 791 l 257
2010.26464844 792 m 257
 1748.5703125 73 l 257
 1808.5703125 73 l 257
 2070.26464844 792 l 257
 2010.26464844 792 l 257
1814.04394531 132 m 257
 1791.84179688 71 l 257
 2071.84179688 71 l 257
 2094.04394531 132 l 257
 1814.04394531 132 l 257
EndSplineSet
EndChar

StartChar: uni090D
Encoding: 2317 2317 370
GlifName: uni090D_
Width: 2048
VWidth: 0
GlyphClass: 2
Flags: W
LayerCount: 2
Fore
SplineSet
564.154296875 1550 m 257
 541.587890625 1488 l 257
 2589.58789062 1488 l 257
 2612.15429688 1550 l 257
 564.154296875 1550 l 257
2449.33398438 1545 m 257
 2170.53320312 779 l 257
 2229.53320312 779 l 257
 2508.33398438 1545 l 257
 2449.33398438 1545 l 257
1372.37109375 839 m 257
 1350.53320312 779 l 257
 2229.53320312 779 l 257
 2251.37109375 839 l 257
 1372.37109375 839 l 257
708.2421875 1542 m 257
 270.021484375 338 l 257
 330.021484375 338 l 257
 768.2421875 1542 l 257
 708.2421875 1542 l 257
277.301757812 358 m 257
 255.099609375 297 l 257
 1282.09960938 297 l 257
 1304.30175781 358 l 257
 277.301757812 358 l 257
1251.30175781 358 m 257
 1085.33105469 -98 l 257
 1145.33105469 -98 l 257
 1311.30175781 358 l 257
 1251.30175781 358 l 257
378.168945312 -38 m 257
 356.331054688 -98 l 257
 1143.33105469 -98 l 257
 1165.16894531 -38 l 257
 378.168945312 -38 l 257
935.073242188 2124 m 257
 758.546875 1639 l 257
 817.546875 1639 l 257
 994.073242188 2124 l 257
 935.073242188 2124 l 257
827.11328125 1701 m 257
 805.275390625 1641 l 257
 2439.27539062 1641 l 257
 2461.11328125 1701 l 257
 827.11328125 1701 l 257
2558.984375 2132 m 257
 2380.27539062 1641 l 257
 2439.27539062 1641 l 257
 2617.984375 2132 l 257
 2558.984375 2132 l 257
EndSplineSet
EndChar

StartChar: uni090E
Encoding: 2318 2318 371
GlifName: uni090E_
Width: 2048
VWidth: 0
GlyphClass: 2
Flags: W
LayerCount: 2
Fore
SplineSet
564.154296875 1550 m 257
 541.587890625 1488 l 257
 2590.58789062 1488 l 257
 2613.15429688 1550 l 257
 564.154296875 1550 l 257
2444.33398438 1545 m 257
 2165.53320312 779 l 257
 2223.53320312 779 l 257
 2502.33398438 1545 l 257
 2444.33398438 1545 l 257
1355.37109375 839 m 257
 1333.53320312 779 l 257
 2223.53320312 779 l 257
 2245.37109375 839 l 257
 1355.37109375 839 l 257
713.2421875 1542 m 257
 275.021484375 338 l 257
 335.021484375 338 l 257
 773.2421875 1542 l 257
 713.2421875 1542 l 257
282.301757812 358 m 257
 260.099609375 297 l 257
 1264.09960938 297 l 257
 1286.30175781 358 l 257
 282.301757812 358 l 257
1234.30175781 358 m 257
 1068.33105469 -98 l 257
 1128.33105469 -98 l 257
 1294.30175781 358 l 257
 1234.30175781 358 l 257
384.168945312 -38 m 257
 362.331054688 -98 l 257
 1126.33105469 -98 l 257
 1148.16894531 -38 l 257
 384.168945312 -38 l 257
1280.50683594 2062 m 257
 1193.51757812 1823 l 257
 1255.51757812 1823 l 257
 1342.50683594 2062 l 257
 1280.50683594 2062 l 257
1209.16894531 1866 m 257
 1188.421875 1809 l 257
 2622.421875 1809 l 257
 2643.16894531 1866 l 257
 1209.16894531 1866 l 257
2577.70507812 1840 m 257
 2461.96289062 1522 l 257
 2521.96289062 1522 l 257
 2637.70507812 1840 l 257
 2577.70507812 1840 l 257
EndSplineSet
EndChar

StartChar: uni090F
Encoding: 2319 2319 372
GlifName: uni090F_
Width: 2048
VWidth: 0
GlyphClass: 2
Flags: W
LayerCount: 2
Fore
SplineSet
559.154296875 1550 m 257
 536.587890625 1488 l 257
 2595.58789062 1488 l 257
 2618.15429688 1550 l 257
 559.154296875 1550 l 257
2454.33398438 1545 m 257
 2175.53320312 779 l 257
 2235.53320312 779 l 257
 2514.33398438 1545 l 257
 2454.33398438 1545 l 257
1451.37109375 839 m 257
 1429.53320312 779 l 257
 2235.53320312 779 l 257
 2257.37109375 839 l 257
 1451.37109375 839 l 257
703.2421875 1542 m 257
 265.021484375 338 l 257
 325.021484375 338 l 257
 763.2421875 1542 l 257
 703.2421875 1542 l 257
272.301757812 358 m 257
 250.099609375 297 l 257
 1362.09960938 297 l 257
 1384.30175781 358 l 257
 272.301757812 358 l 257
1330.30175781 358 m 257
 1164.33105469 -98 l 257
 1224.33105469 -98 l 257
 1390.30175781 358 l 257
 1330.30175781 358 l 257
372.168945312 -38 m 257
 350.331054688 -98 l 257
 1222.33105469 -98 l 257
 1244.16894531 -38 l 257
 372.168945312 -38 l 257
EndSplineSet
EndChar

StartChar: uni0910
Encoding: 2320 2320 373
GlifName: uni0910
Width: 2048
VWidth: 0
GlyphClass: 2
Flags: W
LayerCount: 2
Fore
SplineSet
558.790039062 1549 m 257
 536.952148438 1489 l 257
 2595.95214844 1489 l 257
 2617.79003906 1549 l 257
 558.790039062 1549 l 257
2452.33398438 1545 m 257
 2173.53320312 779 l 257
 2235.53320312 779 l 257
 2514.33398438 1545 l 257
 2452.33398438 1545 l 257
1451.73535156 840 m 257
 1429.53320312 779 l 257
 2235.53320312 779 l 257
 2257.73535156 840 l 257
 1451.73535156 840 l 257
703.2421875 1542 m 257
 265.021484375 338 l 257
 325.021484375 338 l 257
 763.2421875 1542 l 257
 703.2421875 1542 l 257
272.665039062 359 m 257
 250.099609375 297 l 257
 1362.09960938 297 l 257
 1384.66503906 359 l 257
 272.665039062 359 l 257
1344.30175781 358 m 257
 1178.33105469 -98 l 257
 1236.33105469 -98 l 257
 1402.30175781 358 l 257
 1344.30175781 358 l 257
372.533203125 -37 m 257
 350.331054688 -98 l 257
 1222.33105469 -98 l 257
 1244.53320312 -37 l 257
 372.533203125 -37 l 257
1782.109375 1962 m 257
 2441.06152344 1547 l 257
 2513.06152344 1547 l 257
 1849.21289062 1998 l 257
 1782.109375 1962 l 257
EndSplineSet
EndChar

StartChar: uni0911
Encoding: 2321 2321 374
GlifName: uni0911
Width: 2048
VWidth: 0
GlyphClass: 2
Flags: W
LayerCount: 2
Fore
SplineSet
1893.42578125 1548 m 257
 1871.58789062 1488 l 257
 2589.58789062 1488 l 257
 2611.42578125 1548 l 257
 1893.42578125 1548 l 257
1892.13964844 1506 m 257
 1344 0 l 257
 1406 0 l 257
 1954.13964844 1506 l 257
 1892.13964844 1506 l 257
590.154296875 1550 m 257
 567.587890625 1488 l 257
 1439.58789062 1488 l 257
 1462.15429688 1550 l 257
 590.154296875 1550 l 257
1428.15429688 1550 m 257
 874.918945312 30 l 257
 934.918945312 30 l 257
 1488.15429688 1550 l 257
 1428.15429688 1550 l 257
435.389648438 894 m 257
 413.55078125 834 l 257
 1685.55078125 834 l 257
 1707.38964844 894 l 257
 435.389648438 894 l 257
22.2021484375 61 m 257
 0 0 l 257
 924 0 l 257
 946.202148438 61 l 257
 22.2021484375 61 l 257
2383.41113281 1504 m 257
 1836 0 l 257
 1896 0 l 257
 2443.41113281 1504 l 257
 2383.41113281 1504 l 257
2084.87792969 2085 m 257
 1922.546875 1639 l 257
 1984.546875 1639 l 257
 2146.87792969 2085 l 257
 2084.87792969 2085 l 257
1951.11328125 1701 m 257
 1929.27539062 1641 l 257
 2645.27539062 1641 l 257
 2667.11328125 1701 l 257
 1951.11328125 1701 l 257
2734.15039062 2083 m 257
 2573.27539062 1641 l 257
 2645.27539062 1641 l 257
 2806.15039062 2083 l 257
 2734.15039062 2083 l 257
EndSplineSet
EndChar

StartChar: uni0912
Encoding: 2322 2322 375
GlifName: uni0912
Width: 2048
VWidth: 0
GlyphClass: 2
Flags: W
LayerCount: 2
Fore
SplineSet
1619.42578125 1548 m 257
 1597.58789062 1488 l 257
 2589.58789062 1488 l 257
 2611.42578125 1548 l 257
 1619.42578125 1548 l 257
1977.50683594 1518 m 257
 1425 0 l 257
 1486 0 l 257
 2038.50683594 1518 l 257
 1977.50683594 1518 l 257
604.061523438 1547 m 257
 582.223632812 1487 l 257
 1438.22363281 1487 l 257
 1460.06152344 1547 l 257
 604.061523438 1547 l 257
1428.15429688 1550 m 257
 876.375 34 l 257
 935.375 34 l 257
 1487.15429688 1550 l 257
 1428.15429688 1550 l 257
450.389648438 894 m 257
 428.915039062 835 l 257
 1753.91503906 835 l 257
 1775.38964844 894 l 257
 450.389648438 894 l 257
39.658203125 65 m 257
 16 0 l 257
 923 0 l 257
 946.658203125 65 l 257
 39.658203125 65 l 257
2467.50683594 1518 m 257
 1915 0 l 257
 1976 0 l 257
 2528.50683594 1518 l 257
 2467.50683594 1518 l 257
1007.50683594 2062 m 257
 920.517578125 1823 l 257
 981.517578125 1823 l 257
 1068.50683594 2062 l 257
 1007.50683594 2062 l 257
935.168945312 1866 m 257
 914.421875 1809 l 257
 2621.421875 1809 l 257
 2642.16894531 1866 l 257
 935.168945312 1866 l 257
2585.16894531 1866 m 257
 2464.33007812 1534 l 257
 2524.33007812 1534 l 257
 2645.16894531 1866 l 257
 2585.16894531 1866 l 257
EndSplineSet
EndChar

StartChar: uni0913
Encoding: 2323 2323 376
GlifName: uni0913
Width: 2048
VWidth: 0
GlyphClass: 2
Flags: W
LayerCount: 2
Fore
SplineSet
1591.79003906 1549 m 257
 1569.95214844 1489 l 257
 2589.95214844 1489 l 257
 2611.79003906 1549 l 257
 1591.79003906 1549 l 257
2106.50683594 1518 m 257
 1554 0 l 257
 1616 0 l 257
 2168.50683594 1518 l 257
 2106.50683594 1518 l 257
601.061523438 1547 m 257
 579.223632812 1487 l 257
 1413.22363281 1487 l 257
 1435.06152344 1547 l 257
 601.061523438 1547 l 257
1404.15429688 1550 m 257
 852.375 34 l 257
 910.375 34 l 257
 1462.15429688 1550 l 257
 1404.15429688 1550 l 257
447.389648438 894 m 257
 425.915039062 835 l 257
 1883.91503906 835 l 257
 1905.38964844 894 l 257
 447.389648438 894 l 257
35.658203125 65 m 257
 12 0 l 257
 898 0 l 257
 921.658203125 65 l 257
 35.658203125 65 l 257
2470.50683594 1518 m 257
 1918 0 l 257
 1980 0 l 257
 2532.50683594 1518 l 257
 2470.50683594 1518 l 257
2087.69433594 1807 m 257
 2462.51074219 1529 l 257
 2546.15429688 1550 l 257
 2166.609375 1826 l 257
 2087.69433594 1807 l 257
EndSplineSet
EndChar

StartChar: uni0914
Encoding: 2324 2324 377
GlifName: uni0914
Width: 2048
VWidth: 0
GlyphClass: 2
Flags: W
LayerCount: 2
Fore
SplineSet
1919.24609375 1553 m 257
 1897.77148438 1494 l 257
 2579.77148438 1494 l 257
 2601.24609375 1553 l 257
 1919.24609375 1553 l 257
2106.50683594 1518 m 257
 1554 0 l 257
 1616 0 l 257
 2168.50683594 1518 l 257
 2106.50683594 1518 l 257
601.061523438 1547 m 257
 579.223632812 1487 l 257
 1413.22363281 1487 l 257
 1435.06152344 1547 l 257
 601.061523438 1547 l 257
1404.15429688 1550 m 257
 852.375 34 l 257
 910.375 34 l 257
 1462.15429688 1550 l 257
 1404.15429688 1550 l 257
447.389648438 894 m 257
 425.915039062 835 l 257
 1883.91503906 835 l 257
 1905.38964844 894 l 257
 447.389648438 894 l 257
35.658203125 65 m 257
 12 0 l 257
 898 0 l 257
 921.658203125 65 l 257
 35.658203125 65 l 257
2470.50683594 1518 m 257
 1918 0 l 257
 1980 0 l 257
 2532.50683594 1518 l 257
 2470.50683594 1518 l 257
1590.19824219 1682 m 257
 2105.0546875 1525 l 257
 2174.51464844 1540 l 257
 1650.03222656 1731 l 257
 1590.19824219 1682 l 257
1727.31152344 1751 m 257
 2188.15429688 1550 l 257
 2270.15429688 1550 l 257
 1792.95898438 1783 l 257
 1727.31152344 1751 l 257
EndSplineSet
EndChar

StartChar: uni0915
Encoding: 2325 2325 378
GlifName: uni0915
Width: 2048
VWidth: 0
GlyphClass: 2
Flags: W
LayerCount: 2
Fore
SplineSet
565.24609375 1553 m 257
 534.671875 1469 l 257
 2582.671875 1469 l 257
 2613.24609375 1553 l 257
 565.24609375 1553 l 257
1662.50683594 1518 m 257
 1128.5625 51 l 257
 1182.5625 51 l 257
 1716.50683594 1518 l 257
 1662.50683594 1518 l 257
570.083984375 1069 m 257
 548.610351562 1010 l 257
 1389.61035156 1010 l 257
 1411.08398438 1069 l 257
 570.083984375 1069 l 257
558.719726562 1068 m 257
 389.837890625 604 l 257
 449.837890625 604 l 257
 618.719726562 1068 l 257
 558.719726562 1068 l 257
430.6796875 675 m 257
 405.202148438 605 l 257
 1377.20214844 605 l 257
 1402.6796875 675 l 257
 430.6796875 675 l 257
1498.60644531 999 m 257
 1477.86035156 942 l 257
 2254.86035156 942 l 257
 2275.60644531 999 l 257
 1498.60644531 999 l 257
2225.97070312 1000 m 257
 2145.53320312 779 l 257
 2203.53320312 779 l 257
 2283.97070312 1000 l 257
 2225.97070312 1000 l 257
EndSplineSet
EndChar

StartChar: uni0915_uni0930_uni094D.vatu
Encoding: 65537 -1 379
GlifName: uni0915_uni0930_uni094D_.vatu
Width: 2048
VWidth: 0
GlyphClass: 2
Flags: W
LayerCount: 2
Fore
SplineSet
565.24609375 1553 m 257
 534.671875 1469 l 257
 2582.671875 1469 l 257
 2613.24609375 1553 l 257
 565.24609375 1553 l 257
1662.50683594 1518 m 257
 1128.5625 51 l 257
 1182.5625 51 l 257
 1716.50683594 1518 l 257
 1662.50683594 1518 l 257
570.083984375 1069 m 257
 548.610351562 1010 l 257
 1387.61035156 1010 l 257
 1409.08398438 1069 l 257
 570.083984375 1069 l 257
558.719726562 1068 m 257
 389.837890625 604 l 257
 449.837890625 604 l 257
 618.719726562 1068 l 257
 558.719726562 1068 l 257
430.6796875 675 m 257
 405.202148438 605 l 257
 1377.20214844 605 l 257
 1402.6796875 675 l 257
 430.6796875 675 l 257
1497.60644531 999 m 257
 1477.86035156 942 l 257
 2254.86035156 942 l 257
 2275.60644531 999 l 257
 1497.60644531 999 l 257
2225.97070312 1000 m 257
 2145.53320312 779 l 257
 2203.53320312 779 l 257
 2283.97070312 1000 l 257
 2225.97070312 1000 l 257
188.908203125 -3 m 257
 310.908203125 -3 l 257
 1266.82714844 299 l 257
 1288.30175781 358 l 257
 188.908203125 -3 l 257
EndSplineSet
Ligature2: "vatuVattuVariantsinDevanagarilookup0 subtable" uni0915 uni0930_uni094D.blwf
EndChar

StartChar: uni0915_uni094D.half
Encoding: 65538 -1 380
GlifName: uni0915_uni094D_.half
Width: 2048
VWidth: 0
GlyphClass: 2
Flags: W
LayerCount: 2
Fore
SplineSet
564.154296875 1550 m 257
 537.948242188 1478 l 257
 2585.94824219 1478 l 257
 2612.15429688 1550 l 257
 564.154296875 1550 l 257
1662.50683594 1518 m 257
 1128.5625 51 l 257
 1182.5625 51 l 257
 1716.50683594 1518 l 257
 1662.50683594 1518 l 257
570.083984375 1069 m 257
 548.610351562 1010 l 257
 1389.61035156 1010 l 257
 1411.08398438 1069 l 257
 570.083984375 1069 l 257
558.719726562 1068 m 257
 389.837890625 604 l 257
 449.837890625 604 l 257
 618.719726562 1068 l 257
 558.719726562 1068 l 257
430.6796875 675 m 257
 405.202148438 605 l 257
 1377.20214844 605 l 257
 1402.6796875 675 l 257
 430.6796875 675 l 257
1498.60644531 999 m 257
 1477.86035156 942 l 257
 2507.86035156 942 l 257
 2528.60644531 999 l 257
 1498.60644531 999 l 257
EndSplineSet
Ligature2: "halfHalfFormsinDevanagarilookup0 subtable" uni0915 uni094D
EndChar

StartChar: uni0915_uni094D.haln
Encoding: 65539 -1 381
GlifName: uni0915_uni094D_.haln
Width: 2048
VWidth: 0
GlyphClass: 2
Flags: HW
LayerCount: 2
Fore
SplineSet
1130.49121094 1553 m 257
 1069.34375 1469 l 257
 3117.34375 1469 l 257
 3178.49121094 1553 l 257
 1130.49121094 1553 l 257
2215.01367188 1518 m 257
 1147.125 51 l 257
 1201.125 51 l 257
 2269.01367188 1518 l 257
 2215.01367188 1518 l 257
959.16796875 1069 m 257
 916.219726562 1010 l 257
 1757.21972656 1010 l 257
 1800.16796875 1069 l 257
 959.16796875 1069 l 257
947.439453125 1068 m 257
 609.67578125 604 l 257
 669.67578125 604 l 257
 1007.43945312 1068 l 257
 947.439453125 1068 l 257
676.359375 675 m 257
 625.404296875 605 l 257
 1597.40429688 605 l 257
 1648.359375 675 l 257
 676.359375 675 l 257
1862.21289062 999 m 257
 1820.71972656 942 l 257
 2597.71972656 942 l 257
 2639.21289062 999 l 257
 1862.21289062 999 l 257
2589.94042969 1000 m 257
 2429.06542969 779 l 257
 2487.06542969 779 l 257
 2647.94042969 1000 l 257
 2589.94042969 1000 l 257
1123.35351562 -16 m 257
 1078.94921875 -77 l 257
 1422.94921875 -77 l 257
 1467.35351562 -16 l 257
 1123.35351562 -16 l 257
1398.31640625 -71 m 257
 1636.72070312 -418 l 257
 1704.57421875 -366 l 257
 1468.08007812 -15 l 257
 1398.31640625 -71 l 257
EndSplineSet
Ligature2: "halnHalantFormsinDevanagarilookup0 subtable" uni0915 uni094D
EndChar

StartChar: uni0915_uni094D_uni0937.akhn
Encoding: 65540 -1 382
GlifName: uni0915_uni094D__uni0937.akhn
Width: 2048
VWidth: 0
GlyphClass: 2
Flags: W
LayerCount: 2
Fore
SplineSet
2253.15429688 1550 m 257
 2231.6796875 1491 l 257
 2590.6796875 1491 l 257
 2612.15429688 1550 l 257
 2253.15429688 1550 l 257
2435.95898438 1511 m 257
 1887.45605469 4 l 257
 1946.45605469 4 l 257
 2494.95898438 1511 l 257
 2435.95898438 1511 l 257
518.360351562 1078 m 257
 496.521484375 1018 l 257
 2315.52148438 1018 l 257
 2337.36035156 1078 l 257
 518.360351562 1078 l 257
498.341796875 1023 m 257
 558.341796875 1023 l 257
 703.565429688 1422 l 257
 643.565429688 1422 l 257
 498.341796875 1023 l 257
649.296875 1435 m 257
 627.094726562 1374 l 257
 1579.09472656 1374 l 257
 1601.296875 1435 l 257
 649.296875 1435 l 257
1535.56542969 1422 m 257
 1392.88964844 1030 l 257
 1452.88964844 1030 l 257
 1595.56542969 1422 l 257
 1535.56542969 1422 l 257
393.48828125 647 m 257
 453.48828125 647 l 257
 1451.16113281 1028 l 257
 1393.16113281 1028 l 257
 393.48828125 647 l 257
393.48828125 647 m 257
 230.793945312 200 l 257
 290.793945312 200 l 257
 453.48828125 647 l 257
 393.48828125 647 l 257
240.256835938 226 m 257
 218.418945312 166 l 257
 1966.41894531 166 l 257
 1988.25683594 226 l 257
 240.256835938 226 l 257
EndSplineSet
Ligature2: "akhnAkhandinDevanagarilookup0 subtable" uni0915 uni094D uni0937
EndChar

StartChar: uni0915_uni094D_uni0937.half
Encoding: 65541 -1 383
GlifName: uni0915_uni094D__uni0937.half
Width: 2048
VWidth: 0
GlyphClass: 2
Flags: W
LayerCount: 2
Fore
SplineSet
2253.15429688 1550 m 257
 2231.6796875 1491 l 257
 2590.6796875 1491 l 257
 2612.15429688 1550 l 257
 2253.15429688 1550 l 257
518.360351562 1078 m 257
 496.521484375 1018 l 257
 2415.52148438 1018 l 257
 2437.36035156 1078 l 257
 518.360351562 1078 l 257
498.341796875 1023 m 257
 558.341796875 1023 l 257
 703.565429688 1422 l 257
 643.565429688 1422 l 257
 498.341796875 1023 l 257
649.296875 1435 m 257
 627.094726562 1374 l 257
 1579.09472656 1374 l 257
 1601.296875 1435 l 257
 649.296875 1435 l 257
1535.56542969 1422 m 257
 1392.88964844 1030 l 257
 1452.88964844 1030 l 257
 1595.56542969 1422 l 257
 1535.56542969 1422 l 257
393.48828125 647 m 257
 453.48828125 647 l 257
 1451.16113281 1028 l 257
 1393.16113281 1028 l 257
 393.48828125 647 l 257
393.48828125 647 m 257
 230.793945312 200 l 257
 290.793945312 200 l 257
 453.48828125 647 l 257
 393.48828125 647 l 257
240.256835938 226 m 257
 218.418945312 166 l 257
 2066.41894531 166 l 257
 2088.25683594 226 l 257
 240.256835938 226 l 257
EndSplineSet
Ligature2: "halfHalfFormsinDevanagarilookup0 subtable" uni0915_uni094D_uni0937.akhn uni094D
EndChar

StartChar: uni0915_uni094D_uni0937_uni094D
Encoding: 65542 -1 384
GlifName: uni0915_uni094D__uni0937_uni094D_
Width: 2048
VWidth: 0
GlyphClass: 2
Flags: HW
LayerCount: 2
Fore
SplineSet
2817.30761719 1550 m 257
 2774.359375 1491 l 257
 3133.359375 1491 l 257
 3176.30761719 1550 l 257
 2817.30761719 1550 l 257
2985.91796875 1511 m 257
 1888.91210938 4 l 257
 1947.91210938 4 l 257
 3044.91796875 1511 l 257
 2985.91796875 1511 l 257
910.719726562 1078 m 257
 867.04296875 1018 l 257
 2686.04296875 1018 l 257
 2729.71972656 1078 l 257
 910.719726562 1078 l 257
870.68359375 1023 m 257
 930.68359375 1023 l 257
 1221.13085938 1422 l 257
 1161.13085938 1422 l 257
 870.68359375 1023 l 257
1171.59375 1435 m 257
 1127.18945312 1374 l 257
 2079.18945312 1374 l 257
 2123.59375 1435 l 257
 1171.59375 1435 l 257
2053.13085938 1422 m 257
 1767.77832031 1030 l 257
 1827.77832031 1030 l 257
 2113.13085938 1422 l 257
 2053.13085938 1422 l 257
628.9765625 647 m 257
 688.9765625 647 l 257
 1825.32226562 1028 l 257
 1767.32226562 1028 l 257
 628.9765625 647 l 257
628.9765625 647 m 257
 303.587890625 200 l 257
 363.587890625 200 l 257
 688.9765625 647 l 257
 628.9765625 647 l 257
322.513671875 226 m 257
 278.837890625 166 l 257
 2026.83789062 166 l 257
 2070.51367188 226 l 257
 322.513671875 226 l 257
1247.35351562 -16 m 257
 1202.94921875 -77 l 257
 1546.94921875 -77 l 257
 1591.35351562 -16 l 257
 1247.35351562 -16 l 257
1522.31640625 -71 m 257
 1760.72070312 -418 l 257
 1828.57421875 -366 l 257
 1592.08007812 -15 l 257
 1522.31640625 -71 l 257
EndSplineSet
Ligature2: "halnHalantFormsinDevanagarilookup0 subtable" uni0915_uni094D_uni0937.akhn uni094D
EndChar

StartChar: uni0916
Encoding: 2326 2326 385
GlifName: uni0916
Width: 2048
VWidth: 0
GlyphClass: 2
Flags: W
LayerCount: 2
Fore
SplineSet
562.337890625 1556 m 257
 540.499023438 1496 l 257
 2596.49902344 1496 l 257
 2618.33789062 1556 l 257
 562.337890625 1556 l 257
2410.05078125 1514 m 257
 1859 0 l 257
 1920 0 l 257
 2471.05078125 1514 l 257
 2410.05078125 1514 l 257
1389.32714844 979 m 257
 1367.48828125 919 l 257
 1795.48828125 919 l 257
 1817.32714844 979 l 257
 1389.32714844 979 l 257
1359.32714844 979 m 257
 1153.68359375 414 l 257
 1214.68359375 414 l 257
 1420.32714844 979 l 257
 1359.32714844 979 l 257
1159.14355469 429 m 257
 1136.94140625 368 l 257
 2008.94140625 368 l 257
 2031.14355469 429 l 257
 1159.14355469 429 l 257
1006.59472656 1510 m 257
 500.676757812 120 l 257
 561.676757812 120 l 257
 1067.59472656 1510 l 257
 1006.59472656 1510 l 257
272.875 714 m 257
 251.036132812 654 l 257
 755.036132812 654 l 257
 776.875 714 l 257
 272.875 714 l 257
504.31640625 130 m 257
 482.477539062 70 l 257
 1882.47753906 70 l 257
 1904.31640625 130 l 257
 504.31640625 130 l 257
EndSplineSet
EndChar

StartChar: uni0916_uni0930_uni094D.vatu
Encoding: 65543 -1 386
GlifName: uni0916_uni0930_uni094D_.vatu
Width: 2048
VWidth: 0
GlyphClass: 2
Flags: W
LayerCount: 2
Fore
SplineSet
190 0 m 257
 447 0 l 257
 1993.9375 357 l 257
 2015.41113281 416 l 257
 190 0 l 257
562.337890625 1556 m 257
 540.499023438 1496 l 257
 2596.49902344 1496 l 257
 2618.33789062 1556 l 257
 562.337890625 1556 l 257
2410.05078125 1514 m 257
 1859 0 l 257
 1920 0 l 257
 2471.05078125 1514 l 257
 2410.05078125 1514 l 257
1498.51757812 1279 m 257
 1476.6796875 1219 l 257
 1904.6796875 1219 l 257
 1926.51757812 1279 l 257
 1498.51757812 1279 l 257
1468.51757812 1279 m 257
 1262.875 714 l 257
 1323.875 714 l 257
 1529.51757812 1279 l 257
 1468.51757812 1279 l 257
1268.33398438 729 m 257
 1246.13183594 668 l 257
 2118.13183594 668 l 257
 2140.33398438 729 l 257
 1268.33398438 729 l 257
1006.59472656 1510 m 257
 609.8671875 420 l 257
 670.8671875 420 l 257
 1067.59472656 1510 l 257
 1006.59472656 1510 l 257
382.065429688 1014 m 257
 360.227539062 954 l 257
 864.227539062 954 l 257
 886.065429688 1014 l 257
 382.065429688 1014 l 257
613.506835938 430 m 257
 591.668945312 370 l 257
 1991.66894531 370 l 257
 2013.50683594 430 l 257
 613.506835938 430 l 257
EndSplineSet
Ligature2: "vatuVattuVariantsinDevanagarilookup0 subtable" uni0916 uni0930_uni094D.blwf
EndChar

StartChar: uni0916_uni094D.half
Encoding: 65544 -1 387
GlifName: uni0916_uni094D_.half
Width: 2048
VWidth: 0
GlyphClass: 2
Flags: W
LayerCount: 2
Fore
SplineSet
562.337890625 1556 m 257
 540.499023438 1496 l 257
 2596.49902344 1496 l 257
 2618.33789062 1556 l 257
 562.337890625 1556 l 257
1389.32714844 979 m 257
 1367.48828125 919 l 257
 1795.48828125 919 l 257
 1817.32714844 979 l 257
 1389.32714844 979 l 257
1359.32714844 979 m 257
 1153.68359375 414 l 257
 1214.68359375 414 l 257
 1420.32714844 979 l 257
 1359.32714844 979 l 257
1159.14355469 429 m 257
 1136.94140625 368 l 257
 2183.94140625 368 l 257
 2206.14355469 429 l 257
 1159.14355469 429 l 257
1006.59472656 1510 m 257
 500.676757812 120 l 257
 561.676757812 120 l 257
 1067.59472656 1510 l 257
 1006.59472656 1510 l 257
272.875 714 m 257
 251.036132812 654 l 257
 755.036132812 654 l 257
 776.875 714 l 257
 272.875 714 l 257
504.31640625 130 m 257
 482.477539062 70 l 257
 2057.47753906 70 l 257
 2079.31640625 130 l 257
 504.31640625 130 l 257
EndSplineSet
Ligature2: "halfHalfFormsinDevanagarilookup0 subtable" uni0916 uni094D
EndChar

StartChar: uni0916_uni094D.haln
Encoding: 65545 -1 388
GlifName: uni0916_uni094D_.haln
Width: 2048
VWidth: 0
GlyphClass: 2
Flags: HW
LayerCount: 2
Fore
SplineSet
1128.67480469 1556 m 257
 1084.99804688 1496 l 257
 3140.99804688 1496 l 257
 3184.67480469 1556 l 257
 1128.67480469 1556 l 257
2961.1015625 1514 m 257
 1859 0 l 257
 1920 0 l 257
 3022.1015625 1514 l 257
 2961.1015625 1514 l 257
1745.65332031 979 m 257
 1701.9765625 919 l 257
 2129.9765625 919 l 257
 2173.65332031 979 l 257
 1745.65332031 979 l 257
1715.65332031 979 m 257
 1304.3671875 414 l 257
 1365.3671875 414 l 257
 1776.65332031 979 l 257
 1715.65332031 979 l 257
1315.28710938 429 m 257
 1270.8828125 368 l 257
 2142.8828125 368 l 257
 2187.28710938 429 l 257
 1315.28710938 429 l 257
1556.18945312 1510 m 257
 544.353515625 120 l 257
 605.353515625 120 l 257
 1617.18945312 1510 l 257
 1556.18945312 1510 l 257
532.75 714 m 257
 489.072265625 654 l 257
 993.072265625 654 l 257
 1036.75 714 l 257
 532.75 714 l 257
551.6328125 130 m 257
 507.955078125 70 l 257
 1907.95507812 70 l 257
 1951.6328125 130 l 257
 551.6328125 130 l 257
1123.35351562 -16 m 257
 1078.94921875 -77 l 257
 1422.94921875 -77 l 257
 1467.35351562 -16 l 257
 1123.35351562 -16 l 257
1398.31640625 -71 m 257
 1636.72070312 -418 l 257
 1704.57421875 -366 l 257
 1468.08007812 -15 l 257
 1398.31640625 -71 l 257
EndSplineSet
Ligature2: "halnHalantFormsinDevanagarilookup0 subtable" uni0916 uni094D
EndChar

StartChar: uni0917
Encoding: 2327 2327 389
GlifName: uni0917
Width: 2048
VWidth: 0
GlyphClass: 2
Flags: W
LayerCount: 2
Fore
SplineSet
361.466796875 853 m 257
 431.466796875 853 l 257
 500.985351562 1044 l 257
 430.985351562 1044 l 257
 361.466796875 853 l 257
372.021484375 882 m 257
 346.543945312 812 l 257
 1205.54394531 812 l 257
 1231.02148438 882 l 257
 372.021484375 882 l 257
1406.33789062 1556 m 257
 1135.54394531 812 l 257
 1205.54394531 812 l 257
 1476.33789062 1556 l 257
 1406.33789062 1556 l 257
2563.70117188 1557 m 257
 1288.70117188 1557 l 257
 1266.49902344 1496 l 257
 2541.49902344 1496 l 257
 2563.70117188 1557 l 257
2400.32714844 1523 m 257
 1846 0 l 257
 1916 0 l 257
 2470.32714844 1523 l 257
 2400.32714844 1523 l 257
EndSplineSet
EndChar

StartChar: uni0917_uni0930_uni094D.vatu
Encoding: 65546 -1 390
GlifName: uni0917_uni0930_uni094D_.vatu
Width: 2048
VWidth: 0
GlyphClass: 2
Flags: W
LayerCount: 2
Fore
SplineSet
196 0 m 257
 453 0 l 257
 1999.9375 357 l 257
 2021.41113281 416 l 257
 196 0 l 257
361.466796875 853 m 257
 431.466796875 853 l 257
 500.985351562 1044 l 257
 430.985351562 1044 l 257
 361.466796875 853 l 257
372.021484375 882 m 257
 346.543945312 812 l 257
 1205.54394531 812 l 257
 1231.02148438 882 l 257
 372.021484375 882 l 257
1406.33789062 1556 m 257
 1135.54394531 812 l 257
 1205.54394531 812 l 257
 1476.33789062 1556 l 257
 1406.33789062 1556 l 257
2563.70117188 1557 m 257
 1288.70117188 1557 l 257
 1266.49902344 1496 l 257
 2541.49902344 1496 l 257
 2563.70117188 1557 l 257
2400.32714844 1523 m 257
 1846 0 l 257
 1916 0 l 257
 2470.32714844 1523 l 257
 2400.32714844 1523 l 257
EndSplineSet
Ligature2: "vatuVattuVariantsinDevanagarilookup0 subtable" uni0917 uni0930_uni094D.blwf
EndChar

StartChar: uni0917_uni094D.half
Encoding: 65547 -1 391
GlifName: uni0917_uni094D_.half
Width: 2048
VWidth: 0
GlyphClass: 2
Flags: W
LayerCount: 2
Fore
SplineSet
361.466796875 853 m 257
 431.466796875 853 l 257
 500.985351562 1044 l 257
 430.985351562 1044 l 257
 361.466796875 853 l 257
372.021484375 882 m 257
 346.543945312 812 l 257
 1205.54394531 812 l 257
 1231.02148438 882 l 257
 372.021484375 882 l 257
1406.33789062 1556 m 257
 1135.54394531 812 l 257
 1205.54394531 812 l 257
 1476.33789062 1556 l 257
 1406.33789062 1556 l 257
2618.70117188 1557 m 257
 1288.70117188 1557 l 257
 1266.49902344 1496 l 257
 2596.49902344 1496 l 257
 2618.70117188 1557 l 257
EndSplineSet
Ligature2: "halfHalfFormsinDevanagarilookup0 subtable" uni0917 uni094D
EndChar

StartChar: uni0917_uni094D.haln
Encoding: 65548 -1 392
GlifName: uni0917_uni094D_.haln
Width: 2048
VWidth: 0
GlyphClass: 2
Flags: HW
LayerCount: 2
Fore
SplineSet
671.93359375 853 m 257
 741.93359375 853 l 257
 880.969726562 1044 l 257
 810.969726562 1044 l 257
 671.93359375 853 l 257
693.04296875 882 m 257
 642.087890625 812 l 257
 1501.08789062 812 l 257
 1552.04296875 882 l 257
 693.04296875 882 l 257
1972.67480469 1556 m 257
 1431.08789062 812 l 257
 1501.08789062 812 l 257
 2042.67480469 1556 l 257
 1972.67480469 1556 l 257
3130.40234375 1557 m 257
 1855.40234375 1557 l 257
 1810.99804688 1496 l 257
 3085.99804688 1496 l 257
 3130.40234375 1557 l 257
2954.65332031 1523 m 257
 1846 0 l 257
 1916 0 l 257
 3024.65332031 1523 l 257
 2954.65332031 1523 l 257
1523.35351562 -16 m 257
 1478.94921875 -77 l 257
 1822.94921875 -77 l 257
 1867.35351562 -16 l 257
 1523.35351562 -16 l 257
1798.31640625 -71 m 257
 2036.72070312 -418 l 257
 2104.57421875 -366 l 257
 1868.08007812 -15 l 257
 1798.31640625 -71 l 257
EndSplineSet
Ligature2: "halnHalantFormsinDevanagarilookup0 subtable" uni0917 uni094D
EndChar

StartChar: uni0918
Encoding: 2328 2328 393
GlifName: uni0918
Width: 2048
VWidth: 0
GlyphClass: 2
Flags: W
LayerCount: 2
Fore
SplineSet
565.24609375 1553 m 257
 544.135742188 1495 l 257
 2590.13574219 1495 l 257
 2611.24609375 1553 l 257
 565.24609375 1553 l 257
2419.96289062 1522 m 257
 1870.73144531 13 l 257
 1930.73144531 13 l 257
 2479.96289062 1522 l 257
 2419.96289062 1522 l 257
725.415039062 1515 m 257
 486.650390625 859 l 257
 544.650390625 859 l 257
 783.415039062 1515 l 257
 725.415039062 1515 l 257
533.5625 867 m 257
 511.723632812 807 l 257
 1267.72363281 807 l 257
 1289.5625 867 l 257
 533.5625 867 l 257
299.381835938 328 m 257
 277.908203125 269 l 257
 1999.90820312 269 l 257
 2021.38183594 328 l 257
 299.381835938 328 l 257
271.908203125 269 m 257
 331.908203125 269 l 257
 530.271484375 814 l 257
 470.271484375 814 l 257
 271.908203125 269 l 257
EndSplineSet
EndChar

StartChar: uni0918_uni0930_uni094D.vatu
Encoding: 65549 -1 394
GlifName: uni0918_uni0930_uni094D_.vatu
Width: 2048
VWidth: 0
GlyphClass: 2
Flags: W
LayerCount: 2
Fore
SplineSet
201.165039062 -49 m 257
 458.165039062 -49 l 257
 2005.10253906 308 l 257
 2026.57714844 367 l 257
 201.165039062 -49 l 257
565.24609375 1553 m 257
 544.135742188 1495 l 257
 2590.13574219 1495 l 257
 2611.24609375 1553 l 257
 565.24609375 1553 l 257
2419.96289062 1522 m 257
 1870.73144531 13 l 257
 1930.73144531 13 l 257
 2479.96289062 1522 l 257
 2419.96289062 1522 l 257
725.415039062 1515 m 257
 486.650390625 859 l 257
 544.650390625 859 l 257
 783.415039062 1515 l 257
 725.415039062 1515 l 257
533.5625 867 m 257
 511.723632812 807 l 257
 1267.72363281 807 l 257
 1289.5625 867 l 257
 533.5625 867 l 257
320.12890625 385 m 257
 298.654296875 326 l 257
 2020.65429688 326 l 257
 2042.12890625 385 l 257
 320.12890625 385 l 257
295.9296875 335 m 257
 355.9296875 335 l 257
 530.271484375 814 l 257
 470.271484375 814 l 257
 295.9296875 335 l 257
EndSplineSet
Ligature2: "vatuVattuVariantsinDevanagarilookup0 subtable" uni0918 uni0930_uni094D.blwf
EndChar

StartChar: uni0918_uni094D.half
Encoding: 65550 -1 395
GlifName: uni0918_uni094D_.half
Width: 2048
VWidth: 0
GlyphClass: 2
Flags: W
LayerCount: 2
Fore
SplineSet
565.24609375 1553 m 257
 544.135742188 1495 l 257
 2590.13574219 1495 l 257
 2611.24609375 1553 l 257
 565.24609375 1553 l 257
725.415039062 1515 m 257
 486.650390625 859 l 257
 544.650390625 859 l 257
 783.415039062 1515 l 257
 725.415039062 1515 l 257
533.5625 867 m 257
 511.723632812 807 l 257
 1267.72363281 807 l 257
 1289.5625 867 l 257
 533.5625 867 l 257
299.381835938 328 m 257
 277.908203125 269 l 257
 2199.90820312 269 l 257
 2221.38183594 328 l 257
 299.381835938 328 l 257
271.908203125 269 m 257
 331.908203125 269 l 257
 530.271484375 814 l 257
 470.271484375 814 l 257
 271.908203125 269 l 257
EndSplineSet
Ligature2: "halfHalfFormsinDevanagarilookup0 subtable" uni0918 uni094D
EndChar

StartChar: uni0918_uni094D.haln
Encoding: 65551 -1 396
GlifName: uni0918_uni094D_.haln
Width: 2048
VWidth: 0
GlyphClass: 2
Flags: HW
LayerCount: 2
Fore
SplineSet
1130.49121094 1553 m 257
 1088.27050781 1495 l 257
 3134.27050781 1495 l 257
 3176.49121094 1553 l 257
 1130.49121094 1553 l 257
2973.92480469 1522 m 257
 1875.46289062 13 l 257
 1935.46289062 13 l 257
 3033.92480469 1522 l 257
 2973.92480469 1522 l 257
1276.82910156 1515 m 257
 799.30078125 859 l 257
 857.30078125 859 l 257
 1334.82910156 1515 l 257
 1276.82910156 1515 l 257
849.124023438 867 m 257
 805.447265625 807 l 257
 1561.44726562 807 l 257
 1605.12402344 867 l 257
 849.124023438 867 l 257
418.763671875 328 m 257
 375.81640625 269 l 257
 2097.81640625 269 l 257
 2140.76367188 328 l 257
 418.763671875 328 l 257
369.81640625 269 m 257
 429.81640625 269 l 257
 826.54296875 814 l 257
 766.54296875 814 l 257
 369.81640625 269 l 257
1247.35351562 -16 m 257
 1202.94921875 -77 l 257
 1546.94921875 -77 l 257
 1591.35351562 -16 l 257
 1247.35351562 -16 l 257
1522.31640625 -71 m 257
 1760.72070312 -418 l 257
 1828.57421875 -366 l 257
 1592.08007812 -15 l 257
 1522.31640625 -71 l 257
EndSplineSet
Ligature2: "halnHalantFormsinDevanagarilookup0 subtable" uni0918 uni094D
EndChar

StartChar: uni0919
Encoding: 2329 2329 397
GlifName: uni0919
Width: 2048
VWidth: 0
GlyphClass: 2
Flags: W
LayerCount: 2
Fore
SplineSet
565.24609375 1553 m 257
 543.771484375 1494 l 257
 2593.77148438 1494 l 257
 2615.24609375 1553 l 257
 565.24609375 1553 l 257
1724.60644531 1543 m 257
 1536.43359375 1026 l 257
 1596.43359375 1026 l 257
 1784.60644531 1543 l 257
 1724.60644531 1543 l 257
1609.27148438 1086 m 257
 634.271484375 1086 l 257
 612.43359375 1026 l 257
 1587.43359375 1026 l 257
 1609.27148438 1086 l 257
621.1796875 1083 m 257
 455.9375 629 l 257
 527.9375 629 l 257
 693.1796875 1083 l 257
 621.1796875 1083 l 257
480.5 680 m 257
 458.661132812 620 l 257
 1525.66113281 620 l 257
 1547.5 680 l 257
 480.5 680 l 257
1484.5 680 m 257
 1247.5546875 29 l 257
 1310.5546875 29 l 257
 1547.5 680 l 257
 1484.5 680 l 257
136.202148438 61 m 257
 114 0 l 257
 1301 0 l 257
 1323.20214844 61 l 257
 136.202148438 61 l 257
187.522460938 202 m 257
 116.912109375 8 l 257
 176.912109375 8 l 257
 247.522460938 202 l 257
 187.522460938 202 l 257
1623.85644531 931 m 257
 1588.91503906 835 l 257
 1684.91503906 835 l 257
 1719.85644531 931 l 257
 1623.85644531 931 l 257
EndSplineSet
EndChar

StartChar: uni0919_uni0930_uni094D.vatu
Encoding: 65552 -1 398
GlifName: uni0919_uni0930_uni094D_.vatu
Width: 2048
VWidth: 0
GlyphClass: 2
Flags: W
LayerCount: 2
Fore
SplineSet
1006.95214844 129 m 257
 1066.56640625 -210 l 257
 1134.56640625 -210 l 257
 1075.33789062 196 l 257
 1006.95214844 129 l 257
1075.33789062 196 m 257
 672.297851562 -197 l 257
 740.297851562 -197 l 257
 1083.86425781 137 l 257
 1075.33789062 196 l 257
565.24609375 1553 m 257
 543.771484375 1494 l 257
 2593.77148438 1494 l 257
 2615.24609375 1553 l 257
 565.24609375 1553 l 257
1724.60644531 1543 m 257
 1645.625 1326 l 257
 1705.625 1326 l 257
 1784.60644531 1543 l 257
 1724.60644531 1543 l 257
1718.46289062 1386 m 257
 743.462890625 1386 l 257
 721.625 1326 l 257
 1696.625 1326 l 257
 1718.46289062 1386 l 257
730.37109375 1383 m 257
 565.127929688 929 l 257
 637.127929688 929 l 257
 802.37109375 1383 l 257
 730.37109375 1383 l 257
589.690429688 980 m 257
 567.852539062 920 l 257
 1634.85253906 920 l 257
 1656.69042969 980 l 257
 589.690429688 980 l 257
1593.69042969 980 m 257
 1356.74609375 329 l 257
 1419.74609375 329 l 257
 1656.69042969 980 l 257
 1593.69042969 980 l 257
245.393554688 361 m 257
 223.19140625 300 l 257
 1410.19140625 300 l 257
 1432.39355469 361 l 257
 245.393554688 361 l 257
296.712890625 502 m 257
 226.102539062 308 l 257
 286.102539062 308 l 257
 356.712890625 502 l 257
 296.712890625 502 l 257
1733.046875 1231 m 257
 1698.10644531 1135 l 257
 1794.10644531 1135 l 257
 1829.046875 1231 l 257
 1733.046875 1231 l 257
EndSplineSet
Ligature2: "vatuVattuVariantsinDevanagarilookup0 subtable" uni0919 uni0930_uni094D.blwf
EndChar

StartChar: uni0919_uni094D.half
Encoding: 65553 -1 399
GlifName: uni0919_uni094D_.half
Width: 2048
VWidth: 0
GlyphClass: 2
Flags: W
LayerCount: 2
Fore
SplineSet
565.24609375 1553 m 257
 543.771484375 1494 l 257
 2593.77148438 1494 l 257
 2615.24609375 1553 l 257
 565.24609375 1553 l 257
1724.60644531 1543 m 257
 1536.43359375 1026 l 257
 1596.43359375 1026 l 257
 1784.60644531 1543 l 257
 1724.60644531 1543 l 257
1609.27148438 1086 m 257
 634.271484375 1086 l 257
 612.43359375 1026 l 257
 1587.43359375 1026 l 257
 1609.27148438 1086 l 257
621.1796875 1083 m 257
 455.9375 629 l 257
 527.9375 629 l 257
 693.1796875 1083 l 257
 621.1796875 1083 l 257
480.5 680 m 257
 458.661132812 620 l 257
 1525.66113281 620 l 257
 1547.5 680 l 257
 480.5 680 l 257
1484.5 680 m 257
 1356.74609375 329 l 257
 1419.74609375 329 l 257
 1547.5 680 l 257
 1484.5 680 l 257
245.393554688 361 m 257
 223.19140625 300 l 257
 1410.19140625 300 l 257
 1432.39355469 361 l 257
 245.393554688 361 l 257
296.712890625 502 m 257
 226.102539062 308 l 257
 286.102539062 308 l 257
 356.712890625 502 l 257
 296.712890625 502 l 257
1623.85644531 931 m 257
 1588.91503906 835 l 257
 1684.91503906 835 l 257
 1719.85644531 931 l 257
 1623.85644531 931 l 257
1362.3671875 284 m 257
 1340.16503906 223 l 257
 1684.16503906 223 l 257
 1706.3671875 284 l 257
 1362.3671875 284 l 257
1657.34960938 229 m 257
 2022.05175781 -118 l 257
 2070.97753906 -66 l 257
 1706.73144531 285 l 257
 1657.34960938 229 l 257
EndSplineSet
Ligature2: "halfHalfFormsinDevanagarilookup0 subtable" uni0919 uni094D
EndChar

StartChar: uni0919_uni094D.haln
Encoding: 65554 -1 400
GlifName: uni0919_uni094D_.haln
Width: 2048
VWidth: 0
GlyphClass: 2
Flags: HW
LayerCount: 2
Fore
SplineSet
1130.49121094 1553 m 257
 1087.54296875 1494 l 257
 3137.54296875 1494 l 257
 3180.49121094 1553 l 257
 1130.49121094 1553 l 257
2286.21191406 1543 m 257
 1909.8671875 1026 l 257
 1969.8671875 1026 l 257
 2346.21191406 1543 l 257
 2286.21191406 1543 l 257
2004.54296875 1086 m 257
 1029.54296875 1086 l 257
 985.8671875 1026 l 257
 1960.8671875 1026 l 257
 2004.54296875 1086 l 257
1015.359375 1083 m 257
 684.875 629 l 257
 756.875 629 l 257
 1087.359375 1083 l 257
 1015.359375 1083 l 257
728 680 m 257
 684.322265625 620 l 257
 1751.32226562 620 l 257
 1795 680 l 257
 728 680 l 257
1732 680 m 257
 1258.109375 29 l 257
 1321.109375 29 l 257
 1795 680 l 257
 1732 680 l 257
158.404296875 61 m 257
 114 0 l 257
 1301 0 l 257
 1345.40429688 61 l 257
 158.404296875 61 l 257
261.043945312 202 m 257
 119.82421875 8 l 257
 179.82421875 8 l 257
 321.043945312 202 l 257
 261.043945312 202 l 257
1962.71289062 931 m 257
 1892.83007812 835 l 257
 1988.83007812 835 l 257
 2058.71289062 931 l 257
 1962.71289062 931 l 257
1247.35351562 -16 m 257
 1202.94921875 -77 l 257
 1546.94921875 -77 l 257
 1591.35351562 -16 l 257
 1247.35351562 -16 l 257
1522.31640625 -71 m 257
 1760.72070312 -418 l 257
 1828.57421875 -366 l 257
 1592.08007812 -15 l 257
 1522.31640625 -71 l 257
EndSplineSet
Ligature2: "halnHalantFormsinDevanagarilookup0 subtable" uni0919 uni094D
EndChar

StartChar: uni091A
Encoding: 2330 2330 401
GlifName: uni091A_
Width: 2048
VWidth: 0
GlyphClass: 2
Flags: W
LayerCount: 2
Fore
SplineSet
566.337890625 1556 m 257
 544.86328125 1497 l 257
 2592.86328125 1497 l 257
 2614.33789062 1556 l 257
 566.337890625 1556 l 257
2368.24609375 1553 m 257
 1803 0 l 257
 1862 0 l 257
 2427.24609375 1553 l 257
 2368.24609375 1553 l 257
1982.23144531 421 m 257
 2003.70605469 480 l 257
 982.706054688 480 l 257
 961.231445312 421 l 257
 1982.23144531 421 l 257
1112.64355469 837 m 257
 961.231445312 421 l 257
 1020.23144531 421 l 257
 1171.64355469 837 l 257
 1112.64355469 837 l 257
382.102539062 852 m 257
 359.900390625 791 l 257
 1296.90039062 791 l 257
 1319.10253906 852 l 257
 382.102539062 852 l 257
EndSplineSet
EndChar

StartChar: uni091A_uni0930_uni094D.vatu
Encoding: 65555 -1 402
GlifName: uni091A__uni0930_uni094D_.vatu
Width: 2048
VWidth: 0
GlyphClass: 2
Flags: W
LayerCount: 2
Fore
SplineSet
126 0 m 257
 383 0 l 257
 1929.9375 357 l 257
 1951.41113281 416 l 257
 126 0 l 257
566.337890625 1556 m 257
 544.86328125 1497 l 257
 2592.86328125 1497 l 257
 2614.33789062 1556 l 257
 566.337890625 1556 l 257
2368.24609375 1553 m 257
 1803 0 l 257
 1862 0 l 257
 2427.24609375 1553 l 257
 2368.24609375 1553 l 257
1982.23144531 421 m 257
 2003.70605469 480 l 257
 982.706054688 480 l 257
 961.231445312 421 l 257
 1982.23144531 421 l 257
1112.64355469 837 m 257
 961.231445312 421 l 257
 1020.23144531 421 l 257
 1171.64355469 837 l 257
 1112.64355469 837 l 257
382.102539062 852 m 257
 359.900390625 791 l 257
 1296.90039062 791 l 257
 1319.10253906 852 l 257
 382.102539062 852 l 257
EndSplineSet
Ligature2: "vatuVattuVariantsinDevanagarilookup0 subtable" uni091A uni0930_uni094D.blwf
EndChar

StartChar: uni091A_uni094D.half
Encoding: 65556 -1 403
GlifName: uni091A__uni094D_.half
Width: 2048
VWidth: 0
GlyphClass: 2
Flags: W
LayerCount: 2
Fore
SplineSet
566.337890625 1556 m 257
 544.86328125 1497 l 257
 2592.86328125 1497 l 257
 2614.33789062 1556 l 257
 566.337890625 1556 l 257
2282.23144531 421 m 257
 2303.70605469 480 l 257
 1282.70605469 480 l 257
 1261.23144531 421 l 257
 2282.23144531 421 l 257
1412.64355469 837 m 257
 1261.23144531 421 l 257
 1320.23144531 421 l 257
 1471.64355469 837 l 257
 1412.64355469 837 l 257
682.102539062 852 m 257
 659.900390625 791 l 257
 1596.90039062 791 l 257
 1619.10253906 852 l 257
 682.102539062 852 l 257
EndSplineSet
Ligature2: "halfHalfFormsinDevanagarilookup0 subtable" uni091A uni094D
EndChar

StartChar: uni091A_uni094D.haln
Encoding: 65557 -1 404
GlifName: uni091A__uni094D_.haln
Width: 2048
VWidth: 0
GlyphClass: 2
Flags: HW
LayerCount: 2
Fore
SplineSet
1132.67480469 1556 m 257
 1089.7265625 1497 l 257
 3137.7265625 1497 l 257
 3180.67480469 1556 l 257
 1132.67480469 1556 l 257
2933.49121094 1553 m 257
 1803 0 l 257
 1862 0 l 257
 2992.49121094 1553 l 257
 2933.49121094 1553 l 257
2135.46289062 421 m 257
 2178.41210938 480 l 257
 1157.41210938 480 l 257
 1114.46289062 421 l 257
 2135.46289062 421 l 257
1417.28613281 837 m 257
 1114.46289062 421 l 257
 1173.46289062 421 l 257
 1476.28613281 837 l 257
 1417.28613281 837 l 257
692.205078125 852 m 257
 647.80078125 791 l 257
 1584.80078125 791 l 257
 1629.20507812 852 l 257
 692.205078125 852 l 257
1247.35351562 -16 m 257
 1202.94921875 -77 l 257
 1546.94921875 -77 l 257
 1591.35351562 -16 l 257
 1247.35351562 -16 l 257
1522.31640625 -71 m 257
 1760.72070312 -418 l 257
 1828.57421875 -366 l 257
 1592.08007812 -15 l 257
 1522.31640625 -71 l 257
EndSplineSet
Ligature2: "halnHalantFormsinDevanagarilookup0 subtable" uni091A uni094D
EndChar

StartChar: uni091B
Encoding: 2331 2331 405
GlifName: uni091B_
Width: 2048
VWidth: 0
GlyphClass: 2
Flags: W
LayerCount: 2
Fore
SplineSet
562.24609375 1553 m 257
 541.135742188 1495 l 257
 2595.13574219 1495 l 257
 2616.24609375 1553 l 257
 562.24609375 1553 l 257
1143.55859375 1128 m 257
 558.55859375 1128 l 257
 537.083984375 1069 l 257
 1122.08398438 1069 l 257
 1143.55859375 1128 l 257
549.55859375 1128 m 257
 334.81640625 538 l 257
 394.81640625 538 l 257
 609.55859375 1128 l 257
 549.55859375 1128 l 257
369.091796875 547 m 257
 347.25390625 487 l 257
 910.25390625 487 l 257
 932.091796875 547 l 257
 369.091796875 547 l 257
320.348632812 501 m 257
 138 0 l 257
 198 0 l 257
 380.348632812 501 l 257
 320.348632812 501 l 257
215.474609375 59 m 257
 194 0 l 257
 1541 0 l 257
 1562.47460938 59 l 257
 215.474609375 59 l 257
1484.18359375 6 m 257
 1543.18359375 6 l 257
 2092.41503906 1515 l 257
 2033.41503906 1515 l 257
 1484.18359375 6 l 257
1690.29003906 869 m 257
 1668.08789062 808 l 257
 2326.08789062 808 l 257
 2348.29003906 869 l 257
 1690.29003906 869 l 257
2288.92578125 868 m 257
 2144.4296875 471 l 257
 2203.4296875 471 l 257
 2347.92578125 868 l 257
 2288.92578125 868 l 257
EndSplineSet
EndChar

StartChar: uni091B_uni0930_uni094D.vatu
Encoding: 65558 -1 406
GlifName: uni091B__uni0930_uni094D_.vatu
Width: 2048
VWidth: 0
GlyphClass: 2
Flags: W
LayerCount: 2
Fore
SplineSet
126 0 m 257
 383 0 l 257
 1634.09570312 286 l 257
 1655.56933594 345 l 257
 126 0 l 257
562.24609375 1553 m 257
 541.135742188 1495 l 257
 2595.13574219 1495 l 257
 2616.24609375 1553 l 257
 562.24609375 1553 l 257
1252.74902344 1428 m 257
 667.749023438 1428 l 257
 646.275390625 1369 l 257
 1231.27539062 1369 l 257
 1252.74902344 1428 l 257
658.749023438 1428 m 257
 444.006835938 838 l 257
 504.006835938 838 l 257
 718.749023438 1428 l 257
 658.749023438 1428 l 257
478.283203125 847 m 257
 456.444335938 787 l 257
 1019.44433594 787 l 257
 1041.28320312 847 l 257
 478.283203125 847 l 257
429.540039062 801 m 257
 261.385742188 339 l 257
 321.385742188 339 l 257
 489.540039062 801 l 257
 429.540039062 801 l 257
340.31640625 402 m 257
 318.841796875 343 l 257
 1665.84179688 343 l 257
 1687.31640625 402 l 257
 340.31640625 402 l 257
1484.18359375 6 m 257
 1543.18359375 6 l 257
 2092.41503906 1515 l 257
 2033.41503906 1515 l 257
 1484.18359375 6 l 257
1799.48144531 1169 m 257
 1777.27929688 1108 l 257
 2435.27929688 1108 l 257
 2457.48144531 1169 l 257
 1799.48144531 1169 l 257
2398.1171875 1168 m 257
 2253.62109375 771 l 257
 2312.62109375 771 l 257
 2457.1171875 1168 l 257
 2398.1171875 1168 l 257
EndSplineSet
Ligature2: "vatuVattuVariantsinDevanagarilookup0 subtable" uni091B uni0930_uni094D.blwf
EndChar

StartChar: uni091B_uni094D.half
Encoding: 65559 -1 407
GlifName: uni091B__uni094D_.half
Width: 2048
VWidth: 0
GlyphClass: 2
Flags: W
LayerCount: 2
Fore
SplineSet
562.24609375 1553 m 257
 541.135742188 1495 l 257
 2595.13574219 1495 l 257
 2616.24609375 1553 l 257
 562.24609375 1553 l 257
1543.55859375 1128 m 257
 958.55859375 1128 l 257
 937.083984375 1069 l 257
 1522.08398438 1069 l 257
 1543.55859375 1128 l 257
949.55859375 1128 m 257
 734.81640625 538 l 257
 794.81640625 538 l 257
 1009.55859375 1128 l 257
 949.55859375 1128 l 257
769.091796875 547 m 257
 747.25390625 487 l 257
 1310.25390625 487 l 257
 1332.09179688 547 l 257
 769.091796875 547 l 257
720.348632812 501 m 257
 538 0 l 257
 598 0 l 257
 780.348632812 501 l 257
 720.348632812 501 l 257
615.474609375 59 m 257
 594 0 l 257
 2041 0 l 257
 2062.47460938 59 l 257
 615.474609375 59 l 257
EndSplineSet
Ligature2: "halfHalfFormsinDevanagarilookup0 subtable" uni091B uni094D
EndChar

StartChar: uni091B_uni094D.haln
Encoding: 65560 -1 408
GlifName: uni091B__uni094D_.haln
Width: 2048
VWidth: 0
GlyphClass: 2
Flags: HW
LayerCount: 2
Fore
SplineSet
1127.49121094 1553 m 257
 1085.27050781 1495 l 257
 3139.27050781 1495 l 257
 3181.49121094 1553 l 257
 1127.49121094 1553 l 257
1554.1171875 1128 m 257
 969.1171875 1128 l 257
 926.16796875 1069 l 257
 1511.16796875 1069 l 257
 1554.1171875 1128 l 257
960.1171875 1128 m 257
 530.631835938 538 l 257
 590.631835938 538 l 257
 1020.1171875 1128 l 257
 960.1171875 1128 l 257
568.18359375 547 m 257
 524.506835938 487 l 257
 1087.50683594 487 l 257
 1131.18359375 547 l 257
 568.18359375 547 l 257
502.697265625 501 m 257
 138 0 l 257
 198 0 l 257
 562.697265625 501 l 257
 502.697265625 501 l 257
236.94921875 59 m 257
 194 0 l 257
 1541 0 l 257
 1583.94921875 59 l 257
 236.94921875 59 l 257
1486.3671875 6 m 257
 1545.3671875 6 l 257
 2643.82910156 1515 l 257
 2584.82910156 1515 l 257
 1486.3671875 6 l 257
2006.58007812 869 m 257
 1962.17578125 808 l 257
 2620.17578125 808 l 257
 2664.58007812 869 l 257
 2006.58007812 869 l 257
2604.8515625 868 m 257
 2315.859375 471 l 257
 2374.859375 471 l 257
 2663.8515625 868 l 257
 2604.8515625 868 l 257
1197.99316406 -6 m 257
 1153.58886719 -67 l 257
 1497.58886719 -67 l 257
 1541.99316406 -6 l 257
 1197.99316406 -6 l 257
1472.95605469 -61 m 257
 1711.36132812 -408 l 257
 1779.21386719 -356 l 257
 1542.72070312 -5 l 257
 1472.95605469 -61 l 257
EndSplineSet
Ligature2: "halnHalantFormsinDevanagarilookup0 subtable" uni091B uni094D
EndChar

StartChar: uni091C
Encoding: 2332 2332 409
GlifName: uni091C_
Width: 2048
VWidth: 0
GlyphClass: 2
Flags: W
LayerCount: 2
Fore
SplineSet
547.154296875 1550 m 257
 526.043945312 1492 l 257
 2608.04394531 1492 l 257
 2629.15429688 1550 l 257
 547.154296875 1550 l 257
2421.15429688 1550 m 257
 1852.6328125 -12 l 257
 1913.6328125 -12 l 257
 2482.15429688 1550 l 257
 2421.15429688 1550 l 257
1343.01464844 860 m 257
 1321.54003906 801 l 257
 2169.54003906 801 l 257
 2191.01464844 860 l 257
 1343.01464844 860 l 257
1333.01464844 860 m 257
 1206.35253906 512 l 257
 1266.35253906 512 l 257
 1393.01464844 860 l 257
 1333.01464844 860 l 257
264.37109375 567 m 257
 242.896484375 508 l 257
 1264.89648438 508 l 257
 1286.37109375 567 l 257
 264.37109375 567 l 257
322.606445312 727 m 257
 243.260742188 509 l 257
 303.260742188 509 l 257
 382.606445312 727 l 257
 322.606445312 727 l 257
EndSplineSet
EndChar

StartChar: uni091C_uni0930_uni094D.vatu
Encoding: 65561 -1 410
GlifName: uni091C__uni0930_uni094D_.vatu
Width: 2048
VWidth: 0
GlyphClass: 2
Flags: W
LayerCount: 2
Fore
SplineSet
191 0 m 257
 448 0 l 257
 1994.9375 357 l 257
 2016.41113281 416 l 257
 191 0 l 257
547.154296875 1550 m 257
 526.043945312 1492 l 257
 2608.04394531 1492 l 257
 2629.15429688 1550 l 257
 547.154296875 1550 l 257
2421.15429688 1550 m 257
 1852.6328125 -12 l 257
 1913.6328125 -12 l 257
 2482.15429688 1550 l 257
 2421.15429688 1550 l 257
1343.01464844 860 m 257
 1321.54003906 801 l 257
 2169.54003906 801 l 257
 2191.01464844 860 l 257
 1343.01464844 860 l 257
1333.01464844 860 m 257
 1206.35253906 512 l 257
 1266.35253906 512 l 257
 1393.01464844 860 l 257
 1333.01464844 860 l 257
264.37109375 567 m 257
 242.896484375 508 l 257
 1264.89648438 508 l 257
 1286.37109375 567 l 257
 264.37109375 567 l 257
322.606445312 727 m 257
 243.260742188 509 l 257
 303.260742188 509 l 257
 382.606445312 727 l 257
 322.606445312 727 l 257
EndSplineSet
Ligature2: "vatuVattuVariantsinDevanagarilookup0 subtable" uni091C uni0930_uni094D.blwf
EndChar

StartChar: uni091C_uni094D.half
Encoding: 65562 -1 411
GlifName: uni091C__uni094D_.half
Width: 2048
VWidth: 0
GlyphClass: 2
Flags: W
LayerCount: 2
Fore
SplineSet
547.154296875 1550 m 257
 526.043945312 1492 l 257
 2608.04394531 1492 l 257
 2629.15429688 1550 l 257
 547.154296875 1550 l 257
1618.01464844 860 m 257
 1596.54003906 801 l 257
 2444.54003906 801 l 257
 2466.01464844 860 l 257
 1618.01464844 860 l 257
1608.01464844 860 m 257
 1481.35253906 512 l 257
 1541.35253906 512 l 257
 1668.01464844 860 l 257
 1608.01464844 860 l 257
539.37109375 567 m 257
 517.896484375 508 l 257
 1539.89648438 508 l 257
 1561.37109375 567 l 257
 539.37109375 567 l 257
597.606445312 727 m 257
 518.260742188 509 l 257
 578.260742188 509 l 257
 657.606445312 727 l 257
 597.606445312 727 l 257
EndSplineSet
Ligature2: "halfHalfFormsinDevanagarilookup0 subtable" uni091C uni094D
EndChar

StartChar: uni091C_uni094D.haln
Encoding: 65563 -1 412
GlifName: uni091C__uni094D_.haln
Width: 2048
VWidth: 0
GlyphClass: 2
Flags: HW
LayerCount: 2
Fore
SplineSet
1111.30761719 1550 m 257
 1069.08691406 1492 l 257
 3151.08691406 1492 l 257
 3193.30761719 1550 l 257
 1111.30761719 1550 l 257
2985.30761719 1550 m 257
 1848.265625 -12 l 257
 1909.265625 -12 l 257
 3046.30761719 1550 l 257
 2985.30761719 1550 l 257
1656.02929688 860 m 257
 1613.08007812 801 l 257
 2461.08007812 801 l 257
 2504.02929688 860 l 257
 1656.02929688 860 l 257
1646.02929688 860 m 257
 1392.70507812 512 l 257
 1452.70507812 512 l 257
 1706.02929688 860 l 257
 1646.02929688 860 l 257
470.7421875 567 m 257
 427.79296875 508 l 257
 1449.79296875 508 l 257
 1492.7421875 567 l 257
 470.7421875 567 l 257
587.212890625 727 m 257
 428.521484375 509 l 257
 488.521484375 509 l 257
 647.212890625 727 l 257
 587.212890625 727 l 257
1247.35351562 -16 m 257
 1202.94921875 -77 l 257
 1546.94921875 -77 l 257
 1591.35351562 -16 l 257
 1247.35351562 -16 l 257
1522.31640625 -71 m 257
 1760.72070312 -418 l 257
 1828.57421875 -366 l 257
 1592.08007812 -15 l 257
 1522.31640625 -71 l 257
EndSplineSet
Ligature2: "halnHalantFormsinDevanagarilookup0 subtable" uni091C uni094D
EndChar

StartChar: uni091C_uni094D_uni091E.akhn
Encoding: 65564 -1 413
GlifName: uni091C__uni094D__uni091E_.akhn
Width: 2048
VWidth: 0
GlyphClass: 2
Flags: W
LayerCount: 2
Fore
SplineSet
551.154296875 1550 m 257
 528.587890625 1488 l 257
 2589.58789062 1488 l 257
 2612.15429688 1550 l 257
 551.154296875 1550 l 257
2405.15429688 1550 m 257
 1836.6328125 -12 l 257
 1896.6328125 -12 l 257
 2465.15429688 1550 l 257
 2405.15429688 1550 l 257
1222.01464844 860 m 257
 1200.17578125 800 l 257
 2152.17578125 800 l 257
 2174.01464844 860 l 257
 1222.01464844 860 l 257
1176.01464844 860 m 257
 1013.31933594 413 l 257
 1072.31933594 413 l 257
 1235.01464844 860 l 257
 1176.01464844 860 l 257
196.779296875 428 m 257
 174.577148438 367 l 257
 1055.57714844 367 l 257
 1077.77929688 428 l 257
 196.779296875 428 l 257
174.94140625 368 m 257
 528.297851562 75 l 257
 617.297851562 75 l 257
 248.94140625 368 l 257
 174.94140625 368 l 257
EndSplineSet
Ligature2: "akhnAkhandinDevanagarilookup0 subtable" uni091C uni094D uni091E
EndChar

StartChar: uni091C_uni094D_uni091E.half
Encoding: 65565 -1 414
GlifName: uni091C__uni094D__uni091E_.half
Width: 2048
VWidth: 0
GlyphClass: 2
Flags: W
LayerCount: 2
Fore
SplineSet
551.154296875 1550 m 257
 528.587890625 1488 l 257
 2589.58789062 1488 l 257
 2612.15429688 1550 l 257
 551.154296875 1550 l 257
1222.01464844 860 m 257
 1200.17578125 800 l 257
 2352.17578125 800 l 257
 2374.01464844 860 l 257
 1222.01464844 860 l 257
1176.01464844 860 m 257
 1013.31933594 413 l 257
 1072.31933594 413 l 257
 1235.01464844 860 l 257
 1176.01464844 860 l 257
196.779296875 428 m 257
 174.577148438 367 l 257
 1055.57714844 367 l 257
 1077.77929688 428 l 257
 196.779296875 428 l 257
174.94140625 368 m 257
 528.297851562 75 l 257
 617.297851562 75 l 257
 248.94140625 368 l 257
 174.94140625 368 l 257
EndSplineSet
Ligature2: "halfHalfFormsinDevanagarilookup0 subtable" uni091C_uni094D_uni091E.akhn uni094D
EndChar

StartChar: uni091C_uni094D_uni091E_uni094D
Encoding: 65566 -1 415
GlifName: uni091C__uni094D__uni091E__uni094D_
Width: 2048
VWidth: 0
GlyphClass: 2
Flags: HW
LayerCount: 2
Fore
SplineSet
1115.30761719 1550 m 257
 1070.17480469 1488 l 257
 3131.17480469 1488 l 257
 3176.30761719 1550 l 257
 1115.30761719 1550 l 257
2969.30761719 1550 m 257
 1832.265625 -12 l 257
 1892.265625 -12 l 257
 3029.30761719 1550 l 257
 2969.30761719 1550 l 257
1535.02929688 860 m 257
 1491.3515625 800 l 257
 2443.3515625 800 l 257
 2487.02929688 860 l 257
 1535.02929688 860 l 257
1489.02929688 860 m 257
 1163.63867188 413 l 257
 1222.63867188 413 l 257
 1548.02929688 860 l 257
 1489.02929688 860 l 257
352.55859375 428 m 257
 308.154296875 367 l 257
 1189.15429688 367 l 257
 1233.55859375 428 l 257
 352.55859375 428 l 257
308.8828125 368 m 257
 555.595703125 75 l 257
 644.595703125 75 l 257
 382.8828125 368 l 257
 308.8828125 368 l 257
1247.35351562 -16 m 257
 1202.94921875 -77 l 257
 1546.94921875 -77 l 257
 1591.35351562 -16 l 257
 1247.35351562 -16 l 257
1522.31640625 -71 m 257
 1760.72070312 -418 l 257
 1828.57421875 -366 l 257
 1592.08007812 -15 l 257
 1522.31640625 -71 l 257
EndSplineSet
Ligature2: "halnHalantFormsinDevanagarilookup0 subtable" uni091C_uni094D_uni091E.akhn uni094D
EndChar

StartChar: uni091D
Encoding: 2333 2333 416
GlifName: uni091D_
Width: 2048
VWidth: 0
GlyphClass: 2
Flags: W
LayerCount: 2
Fore
SplineSet
557.24609375 1553 m 257
 535.771484375 1494 l 257
 2599.77148438 1494 l 257
 2621.24609375 1553 l 257
 557.24609375 1553 l 257
2417.24609375 1553 m 257
 1850.1796875 -5 l 257
 1912.1796875 -5 l 257
 2479.24609375 1553 l 257
 2417.24609375 1553 l 257
1667.421875 1537 m 257
 1480.34179688 1023 l 257
 1540.34179688 1023 l 257
 1727.421875 1537 l 257
 1667.421875 1537 l 257
528.543945312 1084 m 257
 506.341796875 1023 l 257
 1540.34179688 1023 l 257
 1562.54394531 1084 l 257
 528.543945312 1084 l 257
528.907226562 1085 m 257
 370.944335938 651 l 257
 430.944335938 651 l 257
 588.907226562 1085 l 257
 528.907226562 1085 l 257
388.05078125 698 m 257
 366.212890625 638 l 257
 2140.21289062 638 l 257
 2162.05078125 698 l 257
 388.05078125 698 l 257
1331.50390625 691 m 257
 1082.54785156 7 l 257
 1142.54785156 7 l 257
 1391.50390625 691 l 257
 1331.50390625 691 l 257
156.9296875 63 m 257
 135.091796875 3 l 257
 1141.09179688 3 l 257
 1162.9296875 63 l 257
 156.9296875 63 l 257
156.9296875 63 m 257
 80.1328125 -148 l 257
 140.1328125 -148 l 257
 216.9296875 63 l 257
 156.9296875 63 l 257
EndSplineSet
EndChar

StartChar: uni091D_uni0930_uni094D.vatu
Encoding: 65567 -1 417
GlifName: uni091D__uni0930_uni094D_.vatu
Width: 2048
VWidth: 0
GlyphClass: 2
Flags: W
LayerCount: 2
Fore
SplineSet
990 0 m 257
 1174 0 l 257
 1978.25683594 226 l 257
 1999.73144531 285 l 257
 990 0 l 257
557.24609375 1553 m 257
 535.771484375 1494 l 257
 2599.77148438 1494 l 257
 2621.24609375 1553 l 257
 557.24609375 1553 l 257
2417.24609375 1553 m 257
 1850.1796875 -5 l 257
 1912.1796875 -5 l 257
 2479.24609375 1553 l 257
 2417.24609375 1553 l 257
1667.421875 1537 m 257
 1480.34179688 1023 l 257
 1540.34179688 1023 l 257
 1727.421875 1537 l 257
 1667.421875 1537 l 257
528.543945312 1084 m 257
 506.341796875 1023 l 257
 1540.34179688 1023 l 257
 1562.54394531 1084 l 257
 528.543945312 1084 l 257
528.907226562 1085 m 257
 370.944335938 651 l 257
 430.944335938 651 l 257
 588.907226562 1085 l 257
 528.907226562 1085 l 257
388.05078125 698 m 257
 366.212890625 638 l 257
 2140.21289062 638 l 257
 2162.05078125 698 l 257
 388.05078125 698 l 257
1131.50390625 691 m 257
 882.547851562 7 l 257
 942.547851562 7 l 257
 1191.50390625 691 l 257
 1131.50390625 691 l 257
156.9296875 63 m 257
 135.091796875 3 l 257
 941.091796875 3 l 257
 962.9296875 63 l 257
 156.9296875 63 l 257
156.9296875 63 m 257
 80.1328125 -148 l 257
 140.1328125 -148 l 257
 216.9296875 63 l 257
 156.9296875 63 l 257
EndSplineSet
Ligature2: "vatuVattuVariantsinDevanagarilookup0 subtable" uni091D uni0930_uni094D.blwf
EndChar

StartChar: uni091D_uni094D.half
Encoding: 65568 -1 418
GlifName: uni091D__uni094D_.half
Width: 2048
VWidth: 0
GlyphClass: 2
Flags: W
LayerCount: 2
Fore
SplineSet
557.24609375 1553 m 257
 535.771484375 1494 l 257
 2599.77148438 1494 l 257
 2621.24609375 1553 l 257
 557.24609375 1553 l 257
1867.421875 1537 m 257
 1680.34179688 1023 l 257
 1740.34179688 1023 l 257
 1927.421875 1537 l 257
 1867.421875 1537 l 257
728.543945312 1084 m 257
 706.341796875 1023 l 257
 1740.34179688 1023 l 257
 1762.54394531 1084 l 257
 728.543945312 1084 l 257
728.907226562 1085 m 257
 570.944335938 651 l 257
 630.944335938 651 l 257
 788.907226562 1085 l 257
 728.907226562 1085 l 257
588.05078125 698 m 257
 566.212890625 638 l 257
 2340.21289062 638 l 257
 2362.05078125 698 l 257
 588.05078125 698 l 257
1531.50390625 691 m 257
 1282.54785156 7 l 257
 1342.54785156 7 l 257
 1591.50390625 691 l 257
 1531.50390625 691 l 257
356.9296875 63 m 257
 335.091796875 3 l 257
 1341.09179688 3 l 257
 1362.9296875 63 l 257
 356.9296875 63 l 257
356.9296875 63 m 257
 280.1328125 -148 l 257
 340.1328125 -148 l 257
 416.9296875 63 l 257
 356.9296875 63 l 257
EndSplineSet
Ligature2: "halfHalfFormsinDevanagarilookup0 subtable" uni091D uni094D
EndChar

StartChar: uni091D_uni094D.haln
Encoding: 65569 -1 419
GlifName: uni091D__uni094D_.haln
Width: 2048
VWidth: 0
GlyphClass: 2
Flags: HW
LayerCount: 2
Fore
SplineSet
1122.49121094 1553 m 257
 1079.54296875 1494 l 257
 3143.54296875 1494 l 257
 3186.49121094 1553 l 257
 1122.49121094 1553 l 257
2982.49121094 1553 m 257
 1848.359375 -5 l 257
 1910.359375 -5 l 257
 3044.49121094 1553 l 257
 2982.49121094 1553 l 257
2226.84375 1537 m 257
 1852.68359375 1023 l 257
 1912.68359375 1023 l 257
 2286.84375 1537 l 257
 2226.84375 1537 l 257
923.087890625 1084 m 257
 878.68359375 1023 l 257
 1912.68359375 1023 l 257
 1957.08789062 1084 l 257
 923.087890625 1084 l 257
923.814453125 1085 m 257
 607.888671875 651 l 257
 667.888671875 651 l 257
 983.814453125 1085 l 257
 923.814453125 1085 l 257
642.1015625 698 m 257
 598.42578125 638 l 257
 2372.42578125 638 l 257
 2416.1015625 698 l 257
 642.1015625 698 l 257
1583.00683594 691 m 257
 1085.09570312 7 l 257
 1145.09570312 7 l 257
 1643.00683594 691 l 257
 1583.00683594 691 l 257
179.859375 63 m 257
 136.18359375 3 l 257
 1142.18359375 3 l 257
 1185.859375 63 l 257
 179.859375 63 l 257
179.859375 63 m 257
 26.265625 -148 l 257
 86.265625 -148 l 257
 239.859375 63 l 257
 179.859375 63 l 257
1247.35351562 -16 m 257
 1202.94921875 -77 l 257
 1546.94921875 -77 l 257
 1591.35351562 -16 l 257
 1247.35351562 -16 l 257
1522.31640625 -71 m 257
 1760.72070312 -418 l 257
 1828.57421875 -366 l 257
 1592.08007812 -15 l 257
 1522.31640625 -71 l 257
EndSplineSet
Ligature2: "halnHalantFormsinDevanagarilookup0 subtable" uni091D uni094D
EndChar

StartChar: uni091E
Encoding: 2334 2334 420
GlifName: uni091E_
Width: 2048
VWidth: 0
GlyphClass: 2
Flags: W
LayerCount: 2
Fore
SplineSet
560.24609375 1553 m 257
 538.407226562 1493 l 257
 2596.40722656 1493 l 257
 2618.24609375 1553 l 257
 560.24609375 1553 l 257
2458.78613281 1538 m 257
 1896.08789062 -8 l 257
 1956.08789062 -8 l 257
 2518.78613281 1538 l 257
 2458.78613281 1538 l 257
1338.58789062 672 m 257
 1316.75 612 l 257
 2142.75 612 l 257
 2164.58789062 672 l 257
 1338.58789062 672 l 257
433.411132812 960 m 257
 411.573242188 900 l 257
 1420.57324219 900 l 257
 1442.41113281 960 l 257
 433.411132812 960 l 257
1412.41113281 960 m 257
 1178.01464844 316 l 257
 1238.01464844 316 l 257
 1472.41113281 960 l 257
 1412.41113281 960 l 257
177.470703125 320 m 257
 155.631835938 260 l 257
 1217.63183594 260 l 257
 1239.47070312 320 l 257
 177.470703125 320 l 257
EndSplineSet
EndChar

StartChar: uni091E_uni0930_uni094D.vatu
Encoding: 65570 -1 421
GlifName: uni091E__uni0930_uni094D_.vatu
Width: 2048
VWidth: 0
GlyphClass: 2
Flags: W
LayerCount: 2
Fore
SplineSet
248 0 m 257
 505 0 l 257
 2051.9375 357 l 257
 2073.41113281 416 l 257
 248 0 l 257
560.24609375 1553 m 257
 538.407226562 1493 l 257
 2596.40722656 1493 l 257
 2618.24609375 1553 l 257
 560.24609375 1553 l 257
2458.78613281 1538 m 257
 1896.08789062 -8 l 257
 1956.08789062 -8 l 257
 2518.78613281 1538 l 257
 2458.78613281 1538 l 257
1338.58789062 672 m 257
 1316.75 612 l 257
 2142.75 612 l 257
 2164.58789062 672 l 257
 1338.58789062 672 l 257
433.411132812 960 m 257
 411.573242188 900 l 257
 1420.57324219 900 l 257
 1442.41113281 960 l 257
 433.411132812 960 l 257
1412.41113281 960 m 257
 1178.01464844 316 l 257
 1238.01464844 316 l 257
 1472.41113281 960 l 257
 1412.41113281 960 l 257
177.470703125 320 m 257
 155.631835938 260 l 257
 1217.63183594 260 l 257
 1239.47070312 320 l 257
 177.470703125 320 l 257
EndSplineSet
Ligature2: "vatuVattuVariantsinDevanagarilookup0 subtable" uni091E uni0930_uni094D.blwf
EndChar

StartChar: uni091E_uni094D.half
Encoding: 65571 -1 422
GlifName: uni091E__uni094D_.half
Width: 2048
VWidth: 0
GlyphClass: 2
Flags: W
LayerCount: 2
Fore
SplineSet
560.24609375 1553 m 257
 538.407226562 1493 l 257
 2596.40722656 1493 l 257
 2618.24609375 1553 l 257
 560.24609375 1553 l 257
1516.58789062 672 m 257
 1494.75 612 l 257
 2320.75 612 l 257
 2342.58789062 672 l 257
 1516.58789062 672 l 257
611.411132812 960 m 257
 589.573242188 900 l 257
 1598.57324219 900 l 257
 1620.41113281 960 l 257
 611.411132812 960 l 257
1590.41113281 960 m 257
 1356.01464844 316 l 257
 1416.01464844 316 l 257
 1650.41113281 960 l 257
 1590.41113281 960 l 257
355.470703125 320 m 257
 333.631835938 260 l 257
 1395.63183594 260 l 257
 1417.47070312 320 l 257
 355.470703125 320 l 257
EndSplineSet
Ligature2: "halfHalfFormsinDevanagarilookup0 subtable" uni091E uni094D
EndChar

StartChar: uni091E_uni094D.haln
Encoding: 65572 -1 423
GlifName: uni091E__uni094D_.haln
Width: 2048
VWidth: 0
GlyphClass: 2
Flags: HW
LayerCount: 2
Fore
SplineSet
1125.49121094 1553 m 257
 1081.81445312 1493 l 257
 3139.81445312 1493 l 257
 3183.49121094 1553 l 257
 1125.49121094 1553 l 257
3018.57226562 1538 m 257
 1893.17578125 -8 l 257
 1953.17578125 -8 l 257
 3078.57226562 1538 l 257
 3018.57226562 1538 l 257
1583.17578125 672 m 257
 1539.5 612 l 257
 2365.5 612 l 257
 2409.17578125 672 l 257
 1583.17578125 672 l 257
782.822265625 960 m 257
 739.146484375 900 l 257
 1748.14648438 900 l 257
 1791.82226562 960 l 257
 782.822265625 960 l 257
1761.82226562 960 m 257
 1293.02929688 316 l 257
 1353.02929688 316 l 257
 1821.82226562 960 l 257
 1761.82226562 960 l 257
293.94140625 320 m 257
 250.263671875 260 l 257
 1312.26367188 260 l 257
 1355.94140625 320 l 257
 293.94140625 320 l 257
1247.35351562 -16 m 257
 1202.94921875 -77 l 257
 1546.94921875 -77 l 257
 1591.35351562 -16 l 257
 1247.35351562 -16 l 257
1522.31640625 -71 m 257
 1760.72070312 -418 l 257
 1828.57421875 -366 l 257
 1592.08007812 -15 l 257
 1522.31640625 -71 l 257
EndSplineSet
Ligature2: "halnHalantFormsinDevanagarilookup0 subtable" uni091E uni094D
EndChar

StartChar: uni091F
Encoding: 2335 2335 424
GlifName: uni091F_
Width: 2048
VWidth: 0
GlyphClass: 2
Flags: W
LayerCount: 2
Fore
SplineSet
570.24609375 1553 m 257
 548.771484375 1494 l 257
 2586.77148438 1494 l 257
 2608.24609375 1553 l 257
 570.24609375 1553 l 257
2284.14648438 1528 m 257
 2087.60253906 988 l 257
 2147.60253906 988 l 257
 2344.14648438 1528 l 257
 2284.14648438 1528 l 257
2160.34179688 1023 m 257
 487.341796875 1023 l 257
 465.502929688 963 l 257
 2138.50292969 963 l 257
 2160.34179688 1023 l 257
466.341796875 1023 m 257
 95.8203125 5 l 257
 155.8203125 5 l 257
 526.341796875 1023 l 257
 466.341796875 1023 l 257
115.837890625 60 m 257
 94 0 l 257
 1831 0 l 257
 1852.83789062 60 l 257
 115.837890625 60 l 257
EndSplineSet
EndChar

StartChar: uni091F_uni0930_uni094D.vatu
Encoding: 65573 -1 425
GlifName: uni091F__uni0930_uni094D_.vatu
Width: 2048
VWidth: 0
GlyphClass: 2
Flags: W
LayerCount: 2
Fore
SplineSet
1040.87109375 159 m 257
 1100.48535156 -180 l 257
 1168.48535156 -180 l 257
 1109.25683594 226 l 257
 1040.87109375 159 l 257
1109.25683594 226 m 257
 706.216796875 -167 l 257
 774.216796875 -167 l 257
 1117.78320312 167 l 257
 1109.25683594 226 l 257
570.24609375 1553 m 257
 548.771484375 1494 l 257
 2586.77148438 1494 l 257
 2608.24609375 1553 l 257
 570.24609375 1553 l 257
2284.14648438 1528 m 257
 2087.60253906 988 l 257
 2147.60253906 988 l 257
 2344.14648438 1528 l 257
 2284.14648438 1528 l 257
2160.34179688 1023 m 257
 487.341796875 1023 l 257
 465.502929688 963 l 257
 2138.50292969 963 l 257
 2160.34179688 1023 l 257
466.341796875 1023 m 257
 205.010742188 305 l 257
 265.010742188 305 l 257
 526.341796875 1023 l 257
 466.341796875 1023 l 257
225.029296875 360 m 257
 203.19140625 300 l 257
 1940.19140625 300 l 257
 1962.02929688 360 l 257
 225.029296875 360 l 257
EndSplineSet
Ligature2: "vatuVattuVariantsinDevanagarilookup0 subtable" uni091F uni0930_uni094D.blwf
EndChar

StartChar: uni091F_uni094D.haln
Encoding: 65574 -1 426
GlifName: uni091F__uni094D_.haln
Width: 2048
VWidth: 0
GlyphClass: 2
Flags: HW
LayerCount: 2
Fore
SplineSet
1135.49121094 1553 m 257
 1092.54296875 1494 l 257
 3130.54296875 1494 l 257
 3173.49121094 1553 l 257
 1135.49121094 1553 l 257
2840.29296875 1528 m 257
 2447.20507812 988 l 257
 2507.20507812 988 l 257
 2900.29296875 1528 l 257
 2840.29296875 1528 l 257
2532.68359375 1023 m 257
 859.68359375 1023 l 257
 816.005859375 963 l 257
 2489.00585938 963 l 257
 2532.68359375 1023 l 257
838.68359375 1023 m 257
 97.640625 5 l 257
 157.640625 5 l 257
 898.68359375 1023 l 257
 838.68359375 1023 l 257
137.67578125 60 m 257
 94 0 l 257
 1831 0 l 257
 1874.67578125 60 l 257
 137.67578125 60 l 257
1247.35351562 -16 m 257
 1202.94921875 -77 l 257
 1546.94921875 -77 l 257
 1591.35351562 -16 l 257
 1247.35351562 -16 l 257
1522.31640625 -71 m 257
 1760.72070312 -418 l 257
 1828.57421875 -366 l 257
 1592.08007812 -15 l 257
 1522.31640625 -71 l 257
EndSplineSet
Ligature2: "halnHalantFormsinDevanagarilookup0 subtable" uni091F uni094D
EndChar

StartChar: uni0920
Encoding: 2336 2336 427
GlifName: uni0920
Width: 2048
VWidth: 0
GlyphClass: 2
Flags: W
LayerCount: 2
Fore
SplineSet
564.154296875 1550 m 257
 542.315429688 1490 l 257
 2590.31542969 1490 l 257
 2612.15429688 1550 l 257
 564.154296875 1550 l 257
1659.59472656 1510 m 257
 1482.34179688 1023 l 257
 1540.34179688 1023 l 257
 1717.59472656 1510 l 257
 1659.59472656 1510 l 257
456.341796875 1023 m 257
 434.502929688 963 l 257
 2336.50292969 963 l 257
 2358.34179688 1023 l 257
 456.341796875 1023 l 257
444.341796875 1023 m 257
 76.7314453125 13 l 257
 138.731445312 13 l 257
 506.341796875 1023 l 257
 444.341796875 1023 l 257
2278.33398438 1001 m 257
 1914 0 l 257
 1986 0 l 257
 2350.33398438 1001 l 257
 2278.33398438 1001 l 257
93.1103515625 58 m 257
 70.908203125 -3 l 257
 1964.90820312 -3 l 257
 1987.11035156 58 l 257
 93.1103515625 58 l 257
EndSplineSet
EndChar

StartChar: uni0920_uni0930_uni094D.vatu
Encoding: 65575 -1 428
GlifName: uni0920_uni0930_uni094D_.vatu
Width: 2048
VWidth: 0
GlyphClass: 2
Flags: W
LayerCount: 2
Fore
SplineSet
1040.87109375 159 m 257
 1100.48535156 -180 l 257
 1168.48535156 -180 l 257
 1109.25683594 226 l 257
 1040.87109375 159 l 257
1109.25683594 226 m 257
 706.216796875 -167 l 257
 774.216796875 -167 l 257
 1117.78320312 167 l 257
 1109.25683594 226 l 257
564.154296875 1550 m 257
 542.315429688 1490 l 257
 2590.31542969 1490 l 257
 2612.15429688 1550 l 257
 564.154296875 1550 l 257
1659.59472656 1510 m 257
 1482.34179688 1023 l 257
 1540.34179688 1023 l 257
 1717.59472656 1510 l 257
 1659.59472656 1510 l 257
456.341796875 1023 m 257
 434.502929688 963 l 257
 2336.50292969 963 l 257
 2358.34179688 1023 l 257
 456.341796875 1023 l 257
444.341796875 1023 m 257
 185.922851562 313 l 257
 247.922851562 313 l 257
 506.341796875 1023 l 257
 444.341796875 1023 l 257
2278.33398438 1001 m 257
 2022.46289062 298 l 257
 2094.46289062 298 l 257
 2350.33398438 1001 l 257
 2278.33398438 1001 l 257
202.301757812 358 m 257
 180.099609375 297 l 257
 2074.09960938 297 l 257
 2096.30175781 358 l 257
 202.301757812 358 l 257
EndSplineSet
Ligature2: "vatuVattuVariantsinDevanagarilookup0 subtable" uni0920 uni0930_uni094D.blwf
EndChar

StartChar: uni0920_uni094D.haln
Encoding: 65576 -1 429
GlifName: uni0920_uni094D_.haln
Width: 2048
VWidth: 0
GlyphClass: 2
Flags: HW
LayerCount: 2
Fore
SplineSet
1128.30761719 1550 m 257
 1084.63085938 1490 l 257
 3132.63085938 1490 l 257
 3176.30761719 1550 l 257
 1128.30761719 1550 l 257
2209.18945312 1510 m 257
 1854.68359375 1023 l 257
 1912.68359375 1023 l 257
 2267.18945312 1510 l 257
 2209.18945312 1510 l 257
828.68359375 1023 m 257
 785.005859375 963 l 257
 2687.00585938 963 l 257
 2730.68359375 1023 l 257
 828.68359375 1023 l 257
816.68359375 1023 m 257
 81.462890625 13 l 257
 143.462890625 13 l 257
 878.68359375 1023 l 257
 816.68359375 1023 l 257
2642.66796875 1001 m 257
 1914 0 l 257
 1986 0 l 257
 2714.66796875 1001 l 257
 2642.66796875 1001 l 257
114.220703125 58 m 257
 69.81640625 -3 l 257
 1963.81640625 -3 l 257
 2008.22070312 58 l 257
 114.220703125 58 l 257
1247.35351562 -16 m 257
 1202.94921875 -77 l 257
 1546.94921875 -77 l 257
 1591.35351562 -16 l 257
 1247.35351562 -16 l 257
1522.31640625 -71 m 257
 1760.72070312 -418 l 257
 1828.57421875 -366 l 257
 1592.08007812 -15 l 257
 1522.31640625 -71 l 257
EndSplineSet
Ligature2: "halnHalantFormsinDevanagarilookup0 subtable" uni0920 uni094D
EndChar

StartChar: uni0921
Encoding: 2337 2337 430
GlifName: uni0921
Width: 2048
VWidth: 0
GlyphClass: 2
Flags: W
LayerCount: 2
Fore
SplineSet
563.42578125 1548 m 257
 541.587890625 1488 l 257
 2589.58789062 1488 l 257
 2611.42578125 1548 l 257
 563.42578125 1548 l 257
781.091796875 1091 m 257
 594.73828125 579 l 257
 654.73828125 579 l 257
 841.091796875 1091 l 257
 781.091796875 1091 l 257
601.290039062 597 m 257
 579.81640625 538 l 257
 1936.81640625 538 l 257
 1958.29003906 597 l 257
 601.290039062 597 l 257
1882.63964844 554 m 257
 1682.8203125 5 l 257
 1742.8203125 5 l 257
 1942.63964844 554 l 257
 1882.63964844 554 l 257
83.837890625 60 m 257
 62 0 l 257
 1741 0 l 257
 1762.83789062 60 l 257
 83.837890625 60 l 257
182.474609375 331 m 257
 63.8203125 5 l 257
 124.8203125 5 l 257
 243.474609375 331 l 257
 182.474609375 331 l 257
796.7421875 1134 m 257
 774.904296875 1074 l 257
 2131.90429688 1074 l 257
 2153.7421875 1134 l 257
 796.7421875 1134 l 257
2226.046875 1503 m 257
 2078.63964844 1098 l 257
 2140.63964844 1098 l 257
 2288.046875 1503 l 257
 2226.046875 1503 l 257
EndSplineSet
EndChar

StartChar: uni0921_uni0930_uni094D.vatu
Encoding: 65577 -1 431
GlifName: uni0921_uni0930_uni094D_.vatu
Width: 2048
VWidth: 0
GlyphClass: 2
Flags: W
LayerCount: 2
Fore
SplineSet
1040.50683594 158 m 257
 1100.12109375 -181 l 257
 1168.12109375 -181 l 257
 1108.89355469 225 l 257
 1040.50683594 158 l 257
1108.89355469 225 m 257
 705.852539062 -168 l 257
 773.852539062 -168 l 257
 1117.41894531 166 l 257
 1108.89355469 225 l 257
563.42578125 1548 m 257
 541.587890625 1488 l 257
 2589.58789062 1488 l 257
 2611.42578125 1548 l 257
 563.42578125 1548 l 257
781.091796875 1091 m 257
 684.275390625 825 l 257
 744.275390625 825 l 257
 841.091796875 1091 l 257
 781.091796875 1091 l 257
690.827148438 843 m 257
 669.352539062 784 l 257
 2026.35253906 784 l 257
 2047.82714844 843 l 257
 690.827148438 843 l 257
1972.17578125 800 m 257
 1772.35644531 251 l 257
 1832.35644531 251 l 257
 2032.17578125 800 l 257
 1972.17578125 800 l 257
173.375 306 m 257
 151.537109375 246 l 257
 1830.53710938 246 l 257
 1852.375 306 l 257
 173.375 306 l 257
272.010742188 577 m 257
 153.356445312 251 l 257
 214.356445312 251 l 257
 333.010742188 577 l 257
 272.010742188 577 l 257
796.7421875 1134 m 257
 774.904296875 1074 l 257
 2131.90429688 1074 l 257
 2153.7421875 1134 l 257
 796.7421875 1134 l 257
2226.046875 1503 m 257
 2078.63964844 1098 l 257
 2140.63964844 1098 l 257
 2288.046875 1503 l 257
 2226.046875 1503 l 257
EndSplineSet
Ligature2: "vatuVattuVariantsinDevanagarilookup0 subtable" uni0921 uni0930_uni094D.blwf
EndChar

StartChar: uni0921_uni094D.haln
Encoding: 65578 -1 432
GlifName: uni0921_uni094D_.haln
Width: 2048
VWidth: 0
GlyphClass: 2
Flags: HW
LayerCount: 2
Fore
SplineSet
1126.8515625 1548 m 257
 1083.17480469 1488 l 257
 3131.17480469 1488 l 257
 3174.8515625 1548 l 257
 1126.8515625 1548 l 257
1178.18261719 1091 m 257
 805.4765625 579 l 257
 865.4765625 579 l 257
 1238.18261719 1091 l 257
 1178.18261719 1091 l 257
818.580078125 597 m 257
 775.631835938 538 l 257
 2132.63183594 538 l 257
 2175.58007812 597 l 257
 818.580078125 597 l 257
2084.27929688 554 m 257
 1684.640625 5 l 257
 1744.640625 5 l 257
 2144.27929688 554 l 257
 2084.27929688 554 l 257
105.67578125 60 m 257
 62 0 l 257
 1741 0 l 257
 1784.67578125 60 l 257
 105.67578125 60 l 257
302.948242188 331 m 257
 65.640625 5 l 257
 126.640625 5 l 257
 363.948242188 331 l 257
 302.948242188 331 l 257
1209.484375 1134 m 257
 1165.80761719 1074 l 257
 2522.80761719 1074 l 257
 2566.484375 1134 l 257
 1209.484375 1134 l 257
2773.09375 1503 m 257
 2478.27832031 1098 l 257
 2540.27832031 1098 l 257
 2835.09375 1503 l 257
 2773.09375 1503 l 257
1247.35351562 -16 m 257
 1202.94921875 -77 l 257
 1546.94921875 -77 l 257
 1591.35351562 -16 l 257
 1247.35351562 -16 l 257
1522.31640625 -71 m 257
 1760.72070312 -418 l 257
 1828.57421875 -366 l 257
 1592.08007812 -15 l 257
 1522.31640625 -71 l 257
EndSplineSet
Ligature2: "halnHalantFormsinDevanagarilookup0 subtable" uni0921 uni094D
EndChar

StartChar: uni0922
Encoding: 2338 2338 433
GlifName: uni0922
Width: 2048
VWidth: 0
GlyphClass: 2
Flags: W
LayerCount: 2
Fore
SplineSet
564.154296875 1550 m 257
 541.587890625 1488 l 257
 2589.58789062 1488 l 257
 2612.15429688 1550 l 257
 564.154296875 1550 l 257
2267.14648438 1528 m 257
 2070.60253906 988 l 257
 2152.60253906 988 l 257
 2349.14648438 1528 l 257
 2267.14648438 1528 l 257
2165.34179688 1023 m 257
 492.341796875 1023 l 257
 470.139648438 962 l 257
 2143.13964844 962 l 257
 2165.34179688 1023 l 257
471.341796875 1023 m 257
 100.8203125 5 l 257
 160.8203125 5 l 257
 531.341796875 1023 l 257
 471.341796875 1023 l 257
120.837890625 60 m 257
 99 0 l 257
 1836 0 l 257
 1857.83789062 60 l 257
 120.837890625 60 l 257
1976 544 m 257
 1778 0 l 257
 1838 0 l 257
 2036 544 l 257
 1976 544 l 257
1707.09179688 547 m 257
 1685.25390625 487 l 257
 2013.25390625 487 l 257
 2035.09179688 547 l 257
 1707.09179688 547 l 257
EndSplineSet
EndChar

StartChar: uni0922_uni0930_uni094D.vatu
Encoding: 65579 -1 434
GlifName: uni0922_uni0930_uni094D_.vatu
Width: 2048
VWidth: 0
GlyphClass: 2
Flags: W
LayerCount: 2
Fore
SplineSet
1040.87109375 159 m 257
 1100.48535156 -180 l 257
 1168.48535156 -180 l 257
 1109.25683594 226 l 257
 1040.87109375 159 l 257
1109.25683594 226 m 257
 706.216796875 -167 l 257
 774.216796875 -167 l 257
 1117.78320312 167 l 257
 1109.25683594 226 l 257
564.154296875 1550 m 257
 541.587890625 1488 l 257
 2589.58789062 1488 l 257
 2612.15429688 1550 l 257
 564.154296875 1550 l 257
2267.14648438 1528 m 257
 2070.60253906 988 l 257
 2152.60253906 988 l 257
 2349.14648438 1528 l 257
 2267.14648438 1528 l 257
2165.34179688 1023 m 257
 492.341796875 1023 l 257
 470.139648438 962 l 257
 2143.13964844 962 l 257
 2165.34179688 1023 l 257
471.341796875 1023 m 257
 210.010742188 305 l 257
 270.010742188 305 l 257
 531.341796875 1023 l 257
 471.341796875 1023 l 257
230.029296875 360 m 257
 208.19140625 300 l 257
 1945.19140625 300 l 257
 1967.02929688 360 l 257
 230.029296875 360 l 257
2085.19042969 844 m 257
 1886.46289062 298 l 257
 1946.46289062 298 l 257
 2145.19042969 844 l 257
 2085.19042969 844 l 257
1816.28320312 847 m 257
 1794.44433594 787 l 257
 2122.44433594 787 l 257
 2144.28320312 847 l 257
 1816.28320312 847 l 257
EndSplineSet
Ligature2: "vatuVattuVariantsinDevanagarilookup0 subtable" uni0922 uni0930_uni094D.blwf
EndChar

